RisingSun-BlackItalic.ufo
<glyph name="exclam" format="2">
  <advance width="330"/>
  <unicode hex="0021"/>
  <outline>
    <contour>
      <point x="15" y="103" type="qcurve" smooth="yes"/>
      <point x="10" y="80"/>
      <point x="19" y="39"/>
      <point x="43" y="8"/>
      <point x="81" y="-10"/>
      <point x="104" y="-10" type="qcurve" smooth="yes"/>
      <point x="127" y="-10"/>
      <point x="172" y="8"/>
      <point x="210" y="39"/>
      <point x="236" y="80"/>
      <point x="241" y="103" type="qcurve" smooth="yes"/>
      <point x="246" y="126"/>
      <point x="237" y="167"/>
      <point x="213" y="198"/>
      <point x="175" y="216"/>
      <point x="152" y="216" type="qcurve" smooth="yes"/>
      <point x="129" y="216"/>
      <point x="84" y="198"/>
      <point x="46" y="167"/>
      <point x="20" y="126"/>
    </contour>
    <contour>
      <point x="236" y="300" type="line"/>
      <point x="319" y="550" type="line"/>
      <point x="354" y="717" type="line"/>
      <point x="164" y="717" type="line"/>
      <point x="129" y="550" type="line"/>
      <point x="106" y="300" type="line"/>
    </contour>
  </outline>
</glyph>
<glyph name="quotedbl" format="2">
  <advance width="532"/>
  <unicode hex="0022"/>
  <outline>
    <contour>
      <point x="124" y="495" type="line"/>
      <point x="206" y="495" type="line"/>
      <point x="385" y="730" type="line"/>
      <point x="228" y="730" type="line"/>
    </contour>
    <contour>
      <point x="310" y="495" type="line"/>
      <point x="392" y="495" type="line"/>
      <point x="571" y="730" type="line"/>
      <point x="414" y="730" type="line"/>
    </contour>
  </outline>
</glyph>
<glyph name="dollar" format="2">
  <advance width="630"/>
  <unicode hex="0024"/>
  <outline>
    <contour>
      <point x="187" y="-129" type="line"/>
      <point x="267" y="-129" type="line"/>
      <point x="314" y="95" type="line"/>
      <point x="235" y="95" type="line"/>
    </contour>
    <contour>
      <point x="304" y="115" type="line"/>
      <point x="408" y="603" type="line"/>
      <point x="354" y="589" type="line"/>
      <point x="254" y="117" type="line"/>
    </contour>
    <contour>
      <point x="344" y="609" type="line"/>
      <point x="426" y="623" type="line"/>
      <point x="467" y="815" type="line"/>
      <point x="388" y="815" type="line"/>
    </contour>
    <contour>
      <point x="642" y="639" type="line"/>
      <point x="622" y="651"/>
      <point x="570" y="678"/>
      <point x="509" y="701"/>
      <point x="440" y="716"/>
      <point x="403" y="716" type="qcurve" smooth="yes"/>
      <point x="346" y="716"/>
      <point x="235" y="678"/>
      <point x="147" y="606"/>
      <point x="93" y="501"/>
      <point x="93" y="434" type="qcurve" smooth="yes"/>
      <point x="93" y="406"/>
      <point x="109" y="359"/>
      <point x="142" y="321"/>
      <point x="191" y="290"/>
      <point x="224" y="277" type="qcurve" smooth="yes"/>
      <point x="249" y="267"/>
      <point x="296" y="252"/>
      <point x="332" y="236"/>
      <point x="354" y="218"/>
      <point x="354" y="204" type="qcurve" smooth="yes"/>
      <point x="354" y="197"/>
      <point x="350" y="184"/>
      <point x="339" y="173"/>
      <point x="319" y="167"/>
      <point x="302" y="167" type="qcurve" smooth="yes"/>
      <point x="263" y="167"/>
      <point x="190" y="191"/>
      <point x="135" y="221"/>
      <point x="103" y="245"/>
      <point x="104" y="245" type="qcurve"/>
      <point x="-16" y="74" type="line"/>
      <point x="11" y="55"/>
      <point x="77" y="25"/>
      <point x="149" y="3"/>
      <point x="225" y="-9"/>
      <point x="262" y="-9" type="qcurve" smooth="yes"/>
      <point x="316" y="-9"/>
      <point x="427" y="19"/>
      <point x="517" y="83"/>
      <point x="574" y="186"/>
      <point x="574" y="262" type="qcurve" smooth="yes"/>
      <point x="574" y="299"/>
      <point x="551" y="353"/>
      <point x="508" y="393"/>
      <point x="449" y="424"/>
      <point x="413" y="437" type="qcurve" smooth="yes"/>
      <point x="389" y="446"/>
      <point x="350" y="459"/>
      <point x="322" y="473"/>
      <point x="307" y="489"/>
      <point x="307" y="501" type="qcurve" smooth="yes"/>
      <point x="307" y="512"/>
      <point x="315" y="528"/>
      <point x="330" y="538"/>
      <point x="349" y="543"/>
      <point x="360" y="543" type="qcurve" smooth="yes"/>
      <point x="390" y="543"/>
      <point x="450" y="523"/>
      <point x="497" y="498"/>
      <point x="526" y="478"/>
      <point x="524" y="478" type="qcurve"/>
    </contour>
  </outline>
</glyph>
<glyph name="ampersand" format="2">
  <advance width="728"/>
  <unicode hex="0026"/>
  <outline>
    <contour>
      <point x="210" y="-10" type="qcurve" smooth="yes"/>
      <point x="272" y="-10"/>
      <point x="410" y="41"/>
      <point x="536" y="146"/>
      <point x="636" y="306"/>
      <point x="660" y="416" type="qcurve"/>
      <point x="507" y="416" type="line"/>
      <point x="498" y="347"/>
      <point x="446" y="242"/>
      <point x="377" y="170"/>
      <point x="299" y="134"/>
      <point x="264" y="134" type="qcurve" smooth="yes"/>
      <point x="235" y="134"/>
      <point x="197" y="163"/>
      <point x="197" y="195" type="qcurve" smooth="yes"/>
      <point x="197" y="213"/>
      <point x="212" y="241"/>
      <point x="248" y="268"/>
      <point x="309" y="299"/>
      <point x="355" y="318" type="qcurve"/>
      <point x="273" y="444" type="line"/>
      <point x="225" y="417"/>
      <point x="132" y="366"/>
      <point x="58" y="305"/>
      <point x="12" y="229"/>
      <point x="12" y="176" type="qcurve" smooth="yes"/>
      <point x="12" y="141"/>
      <point x="35" y="74"/>
      <point x="83" y="22"/>
      <point x="158" y="-10"/>
    </contour>
    <contour>
      <point x="415" y="0" type="line"/>
      <point x="663" y="0" type="line"/>
      <point x="361" y="438" type="line" smooth="yes"/>
      <point x="345" y="461"/>
      <point x="321" y="491"/>
      <point x="305" y="512"/>
      <point x="297" y="529"/>
      <point x="297" y="539" type="qcurve" smooth="yes"/>
      <point x="297" y="550"/>
      <point x="306" y="566"/>
      <point x="320" y="577"/>
      <point x="337" y="582"/>
      <point x="345" y="582" type="qcurve" smooth="yes"/>
      <point x="365" y="582"/>
      <point x="401" y="552"/>
      <point x="409" y="515" type="qcurve"/>
      <point x="543" y="565" type="line"/>
      <point x="536" y="606"/>
      <point x="500" y="664"/>
      <point x="449" y="701"/>
      <point x="388" y="719"/>
      <point x="355" y="719" type="qcurve" smooth="yes"/>
      <point x="310" y="719"/>
      <point x="225" y="688"/>
      <point x="159" y="632"/>
      <point x="120" y="554"/>
      <point x="120" y="507" type="qcurve" smooth="yes"/>
      <point x="120" y="486"/>
      <point x="128" y="449"/>
      <point x="145" y="409"/>
      <point x="171" y="365"/>
      <point x="189" y="338" type="qcurve" smooth="yes"/>
    </contour>
    <contour>
      <point x="503" y="287" type="line"/>
      <point x="679" y="287" type="line"/>
      <point x="694" y="416" type="line"/>
      <point x="518" y="416" type="line"/>
    </contour>
  </outline>
</glyph>
<glyph name="quotesingle" format="2">
  <advance width="266"/>
  <unicode hex="0027"/>
  <outline>
    <contour>
      <point x="136" y="495" type="line"/>
      <point x="315" y="730" type="line"/>
      <point x="158" y="730" type="line"/>
      <point x="54" y="495" type="line"/>
    </contour>
  </outline>
</glyph>
<glyph name="parenleft" format="2">
  <advance width="336"/>
  <unicode hex="0028"/>
  <outline>
    <contour>
      <point x="26" y="266" type="qcurve" smooth="yes"/>
      <point x="26" y="224"/>
      <point x="38" y="136"/>
      <point x="58" y="50"/>
      <point x="84" y="-31"/>
      <point x="99" y="-66" type="qcurve"/>
      <point x="252" y="1" type="line"/>
      <point x="242" y="36"/>
      <point x="224" y="107"/>
      <point x="211" y="177"/>
      <point x="204" y="244"/>
      <point x="204" y="275" type="qcurve" smooth="yes"/>
      <point x="204" y="316"/>
      <point x="227" y="410"/>
      <point x="276" y="518"/>
      <point x="354" y="642"/>
      <point x="408" y="714" type="qcurve"/>
      <point x="276" y="772" type="line"/>
      <point x="224" y="704"/>
      <point x="132" y="578"/>
      <point x="65" y="455"/>
      <point x="26" y="331"/>
    </contour>
  </outline>
</glyph>
<glyph name="parenright" format="2">
  <advance width="335"/>
  <unicode hex="0029"/>
  <outline>
    <contour>
      <point x="329" y="430" type="qcurve" smooth="yes"/>
      <point x="329" y="509"/>
      <point x="289" y="687"/>
      <point x="260" y="772" type="qcurve"/>
      <point x="103" y="714" type="line"/>
      <point x="108" y="699"/>
      <point x="124" y="639"/>
      <point x="140" y="560"/>
      <point x="151" y="469"/>
      <point x="151" y="425" type="qcurve" smooth="yes"/>
      <point x="151" y="367"/>
      <point x="121" y="263"/>
      <point x="68" y="162"/>
      <point x="-3" y="58"/>
      <point x="-44" y="1" type="qcurve"/>
      <point x="80" y="-66" type="line"/>
      <point x="126" y="-11"/>
      <point x="215" y="106"/>
      <point x="286" y="230"/>
      <point x="329" y="361"/>
    </contour>
  </outline>
</glyph>
<glyph name="comma" format="2">
  <advance width="268"/>
  <unicode hex="002C"/>
  <outline>
    <contour>
      <point x="-43" y="-180" type="line"/>
      <point x="156" y="89" type="line"/>
      <point x="13" y="115" type="line"/>
      <point x="-110" y="-160" type="line"/>
    </contour>
  </outline>
</glyph>
<glyph name="period" format="2">
  <advance width="268"/>
  <unicode hex="002E"/>
  <outline>
    <contour>
      <point x="-7" y="84" type="qcurve" smooth="yes"/>
      <point x="-15" y="45"/>
      <point x="28" y="-10"/>
      <point x="67" y="-10" type="qcurve" smooth="yes"/>
      <point x="106" y="-10"/>
      <point x="173" y="45"/>
      <point x="181" y="84" type="qcurve" smooth="yes"/>
      <point x="189" y="123"/>
      <point x="146" y="178"/>
      <point x="107" y="178" type="qcurve" smooth="yes"/>
      <point x="68" y="178"/>
      <point x="1" y="123"/>
    </contour>
  </outline>
</glyph>
<glyph name="zero.tnum" format="2">
  <advance width="586"/>
  <unicode hex="0030"/>
  <outline>
    <contour>
      <point x="224" y="-10" type="qcurve" smooth="yes"/>
      <point x="299" y="-10"/>
      <point x="428" y="68"/>
      <point x="477" y="130" type="qcurve" smooth="yes"/>
      <point x="525" y="192"/>
      <point x="580" y="343"/>
      <point x="580" y="416" type="qcurve" smooth="yes"/>
      <point x="580" y="467"/>
      <point x="556" y="572"/>
      <point x="529" y="615" type="qcurve" smooth="yes"/>
      <point x="502" y="657"/>
      <point x="419" y="710"/>
      <point x="362" y="710" type="qcurve" smooth="yes"/>
      <point x="289" y="710"/>
      <point x="158" y="632"/>
      <point x="110" y="569" type="qcurve" smooth="yes"/>
      <point x="62" y="506"/>
      <point x="6" y="356"/>
      <point x="6" y="281" type="qcurve" smooth="yes"/>
      <point x="6" y="229"/>
      <point x="31" y="126"/>
      <point x="58" y="84" type="qcurve" smooth="yes"/>
      <point x="84" y="42"/>
      <point x="167" y="-10"/>
    </contour>
    <contour>
      <point x="263" y="163" type="qcurve" smooth="yes"/>
      <point x="246" y="163"/>
      <point x="224" y="181"/>
      <point x="217" y="197" type="qcurve" smooth="yes"/>
      <point x="210" y="212"/>
      <point x="204" y="253"/>
      <point x="204" y="276" type="qcurve" smooth="yes"/>
      <point x="204" y="310"/>
      <point x="219" y="400"/>
      <point x="234" y="441" type="qcurve" smooth="yes"/>
      <point x="249" y="482"/>
      <point x="293" y="537"/>
      <point x="323" y="537" type="qcurve" smooth="yes"/>
      <point x="339" y="537"/>
      <point x="362" y="515"/>
      <point x="369" y="497" type="qcurve" smooth="yes"/>
      <point x="376" y="479"/>
      <point x="382" y="432"/>
      <point x="382" y="408" type="qcurve" smooth="yes"/>
      <point x="382" y="374"/>
      <point x="367" y="290"/>
      <point x="352" y="252" type="qcurve" smooth="yes"/>
      <point x="337" y="214"/>
      <point x="292" y="163"/>
    </contour>
  </outline>
</glyph>
<glyph name="two" format="2">
  <advance width="586"/>
  <unicode hex="0032"/>
  <outline>
    <contour>
      <point x="-17" y="-2" type="qcurve"/>
      <point x="493" y="-2" type="line"/>
      <point x="529" y="168" type="line"/>
      <point x="244" y="168" type="line"/>
      <point x="247" y="184"/>
      <point x="289" y="213"/>
      <point x="346" y="239"/>
      <point x="405" y="263"/>
      <point x="426" y="275" type="qcurve" smooth="yes"/>
      <point x="474" y="303"/>
      <point x="540" y="355"/>
      <point x="584" y="415"/>
      <point x="603" y="492"/>
      <point x="603" y="541" type="qcurve" smooth="yes"/>
      <point x="603" y="583"/>
      <point x="577" y="649"/>
      <point x="526" y="694"/>
      <point x="453" y="718"/>
      <point x="404" y="718" type="qcurve" smooth="yes"/>
      <point x="359" y="718"/>
      <point x="273" y="700"/>
      <point x="196" y="668"/>
      <point x="131" y="626"/>
      <point x="106" y="603" type="qcurve"/>
      <point x="193" y="476" type="line"/>
      <point x="209" y="490"/>
      <point x="246" y="516"/>
      <point x="285" y="536"/>
      <point x="322" y="548"/>
      <point x="338" y="548" type="qcurve" smooth="yes"/>
      <point x="345" y="548"/>
      <point x="362" y="543"/>
      <point x="374" y="532"/>
      <point x="381" y="515"/>
      <point x="381" y="502" type="qcurve" smooth="yes"/>
      <point x="381" y="471"/>
      <point x="354" y="424"/>
      <point x="308" y="387"/>
      <point x="246" y="355"/>
      <point x="211" y="338" type="qcurve" smooth="yes"/>
      <point x="152" y="311"/>
      <point x="76" y="250"/>
      <point x="27" y="170"/>
      <point x="-2" y="67"/>
    </contour>
  </outline>
</glyph>
<glyph name="three" format="2">
  <advance width="586"/>
  <unicode hex="0033"/>
  <outline>
    <contour>
      <point x="210" y="-11" type="qcurve" smooth="yes"/>
      <point x="280" y="-11"/>
      <point x="397" y="23"/>
      <point x="479" y="86"/>
      <point x="525" y="175"/>
      <point x="525" y="230" type="qcurve" smooth="yes"/>
      <point x="525" y="285"/>
      <point x="472" y="366"/>
      <point x="425" y="375" type="qcurve"/>
      <point x="457" y="381"/>
      <point x="515" y="417"/>
      <point x="560" y="469"/>
      <point x="587" y="532"/>
      <point x="587" y="566" type="qcurve" smooth="yes"/>
      <point x="587" y="599"/>
      <point x="560" y="654"/>
      <point x="508" y="693"/>
      <point x="433" y="714"/>
      <point x="386" y="714" type="qcurve" smooth="yes"/>
      <point x="348" y="714"/>
      <point x="270" y="701"/>
      <point x="201" y="677"/>
      <point x="142" y="644"/>
      <point x="120" y="622" type="qcurve"/>
      <point x="207" y="483" type="line"/>
      <point x="235" y="518"/>
      <point x="297" y="551"/>
      <point x="328" y="551" type="qcurve" smooth="yes"/>
      <point x="350" y="551"/>
      <point x="372" y="530"/>
      <point x="372" y="511" type="qcurve" smooth="yes"/>
      <point x="372" y="493"/>
      <point x="355" y="466"/>
      <point x="327" y="445"/>
      <point x="287" y="433"/>
      <point x="263" y="433" type="qcurve" smooth="yes"/>
      <point x="230" y="433" type="line"/>
      <point x="203" y="299" type="line"/>
      <point x="232" y="299" type="line" smooth="yes"/>
      <point x="284" y="299"/>
      <point x="333" y="272"/>
      <point x="333" y="243" type="qcurve" smooth="yes"/>
      <point x="333" y="224"/>
      <point x="322" y="196"/>
      <point x="299" y="175"/>
      <point x="260" y="165"/>
      <point x="232" y="165" type="qcurve" smooth="yes"/>
      <point x="196" y="165"/>
      <point x="141" y="186"/>
      <point x="120" y="209" type="qcurve"/>
      <point x="-1" y="69" type="line"/>
      <point x="37" y="28"/>
      <point x="139" y="-11"/>
    </contour>
  </outline>
</glyph>
<glyph name="four" format="2">
  <advance width="586"/>
  <unicode hex="0034"/>
  <outline>
    <contour>
      <point x="413" y="1" type="line"/>
      <point x="441" y="137" type="line"/>
      <point x="521" y="137" type="line"/>
      <point x="556" y="307" type="line"/>
      <point x="475" y="307" type="line"/>
      <point x="558" y="711" type="line"/>
      <point x="433" y="711" type="line"/>
      <point x="64" y="307" type="line"/>
      <point x="28" y="137" type="line"/>
      <point x="258" y="137" type="line"/>
      <point x="230" y="1" type="line"/>
    </contour>
    <contour>
      <point x="244" y="307" type="line"/>
      <point x="338" y="427" type="line"/>
      <point x="313" y="307" type="line"/>
    </contour>
  </outline>
</glyph>
<glyph name="five.tnum" format="2">
  <advance width="586"/>
  <unicode hex="0035"/>
  <outline>
    <contour>
      <point x="212" y="-11" type="curve" smooth="yes"/>
      <point x="381" y="-11"/>
      <point x="528" y="106"/>
      <point x="528" y="282" type="curve" smooth="yes"/>
      <point x="528" y="391"/>
      <point x="456" y="466"/>
      <point x="346" y="466" type="curve" smooth="yes"/>
      <point x="338" y="466"/>
      <point x="315" y="466"/>
      <point x="309" y="461" type="curve"/>
      <point x="332" y="538" type="line"/>
      <point x="534" y="538" type="line"/>
      <point x="570" y="711" type="line"/>
      <point x="236" y="711" type="line"/>
      <point x="68" y="269" type="line"/>
      <point x="224" y="269" type="line"/>
      <point x="237" y="289"/>
      <point x="260" y="304"/>
      <point x="284" y="304" type="curve" smooth="yes"/>
      <point x="314" y="304"/>
      <point x="328" y="277"/>
      <point x="328" y="250" type="curve" smooth="yes"/>
      <point x="328" y="200"/>
      <point x="297" y="157"/>
      <point x="244" y="157" type="curve" smooth="yes"/>
      <point x="200" y="157"/>
      <point x="162" y="187"/>
      <point x="139" y="223" type="curve"/>
      <point x="16" y="103" type="line"/>
      <point x="48" y="21"/>
      <point x="129" y="-11"/>
    </contour>
  </outline>
</glyph>
<glyph name="six.tnum" format="2">
  <advance width="586"/>
  <unicode hex="0036"/>
  <outline>
    <contour>
      <point x="208" y="-12" type="qcurve" smooth="yes"/>
      <point x="153" y="-12"/>
      <point x="79" y="30"/>
      <point x="35" y="98"/>
      <point x="15" y="186"/>
      <point x="15" y="232" type="qcurve" smooth="yes"/>
      <point x="15" y="285"/>
      <point x="34" y="399"/>
      <point x="72" y="506"/>
      <point x="130" y="602"/>
      <point x="211" y="674"/>
      <point x="315" y="716"/>
      <point x="379" y="716" type="qcurve" smooth="yes"/>
      <point x="440" y="716"/>
      <point x="536" y="667"/>
      <point x="571" y="618" type="qcurve"/>
      <point x="442" y="498" type="line"/>
      <point x="423" y="522"/>
      <point x="374" y="550"/>
      <point x="342" y="550" type="qcurve" smooth="yes"/>
      <point x="317" y="550"/>
      <point x="278" y="531"/>
      <point x="249" y="500"/>
      <point x="231" y="460"/>
      <point x="225" y="439" type="qcurve"/>
      <point x="236" y="448"/>
      <point x="259" y="460"/>
      <point x="285" y="469"/>
      <point x="312" y="473"/>
      <point x="326" y="473" type="qcurve" smooth="yes"/>
      <point x="369" y="473"/>
      <point x="440" y="445"/>
      <point x="490" y="394"/>
      <point x="517" y="324"/>
      <point x="517" y="282" type="qcurve" smooth="yes"/>
      <point x="517" y="222"/>
      <point x="465" y="114"/>
      <point x="380" y="34"/>
      <point x="268" y="-12"/>
    </contour>
    <contour>
      <point x="242" y="149" type="qcurve" smooth="yes"/>
      <point x="261" y="149"/>
      <point x="295" y="170"/>
      <point x="318" y="202"/>
      <point x="332" y="239"/>
      <point x="332" y="255" type="qcurve" smooth="yes"/>
      <point x="332" y="267"/>
      <point x="326" y="290"/>
      <point x="313" y="310"/>
      <point x="293" y="322"/>
      <point x="278" y="322" type="qcurve" smooth="yes"/>
      <point x="258" y="322"/>
      <point x="225" y="303"/>
      <point x="201" y="274"/>
      <point x="188" y="238"/>
      <point x="188" y="222" type="qcurve" smooth="yes"/>
      <point x="188" y="211"/>
      <point x="195" y="186"/>
      <point x="208" y="164"/>
      <point x="228" y="149"/>
    </contour>
  </outline>
</glyph>
<glyph name="seven" format="2">
  <advance width="586"/>
  <unicode hex="0037"/>
  <outline>
    <contour>
      <point x="-22" y="1" type="line"/>
      <point x="186" y="1" type="line"/>
      <point x="648" y="711" type="line"/>
      <point x="99" y="711" type="line"/>
      <point x="64" y="538" type="line"/>
      <point x="324" y="538" type="line"/>
    </contour>
  </outline>
</glyph>
<glyph name="eight" format="2">
  <advance width="586"/>
  <unicode hex="0038"/>
  <outline>
    <contour>
      <point x="534" y="254" type="curve" smooth="yes"/>
      <point x="534" y="300"/>
      <point x="518" y="345"/>
      <point x="486" y="379" type="curve"/>
      <point x="539" y="408"/>
      <point x="576" y="474"/>
      <point x="576" y="534" type="curve" smooth="yes"/>
      <point x="576" y="642"/>
      <point x="478" y="710"/>
      <point x="377" y="710" type="curve" smooth="yes"/>
      <point x="250" y="710"/>
      <point x="89" y="615"/>
      <point x="89" y="474" type="curve" smooth="yes"/>
      <point x="89" y="441"/>
      <point x="98" y="400"/>
      <point x="125" y="379" type="curve"/>
      <point x="59" y="331"/>
      <point x="10" y="271"/>
      <point x="10" y="186" type="curve" smooth="yes"/>
      <point x="10" y="65"/>
      <point x="109" y="-10"/>
      <point x="224" y="-10" type="curve" smooth="yes"/>
      <point x="372" y="-10"/>
      <point x="534" y="93"/>
    </contour>
    <contour>
      <point x="341" y="248" type="curve" smooth="yes"/>
      <point x="341" y="202"/>
      <point x="307" y="163"/>
      <point x="260" y="163" type="curve" smooth="yes"/>
      <point x="228" y="163"/>
      <point x="208" y="187"/>
      <point x="208" y="218" type="curve" smooth="yes"/>
      <point x="208" y="265"/>
      <point x="244" y="301"/>
      <point x="291" y="301" type="curve" smooth="yes"/>
      <point x="325" y="301"/>
      <point x="341" y="281"/>
    </contour>
    <contour>
      <point x="282" y="482" type="curve" smooth="yes"/>
      <point x="282" y="514"/>
      <point x="310" y="543"/>
      <point x="342" y="543" type="curve" smooth="yes"/>
      <point x="366" y="543"/>
      <point x="379" y="527"/>
      <point x="379" y="504" type="curve" smooth="yes"/>
      <point x="379" y="470"/>
      <point x="353" y="442"/>
      <point x="319" y="442" type="curve" smooth="yes"/>
      <point x="297" y="442"/>
      <point x="282" y="461"/>
    </contour>
  </outline>
</glyph>
<glyph name="nine" format="2">
  <advance width="586"/>
  <unicode hex="0039"/>
  <outline>
    <contour>
      <point x="208" y="-12" type="curve" smooth="yes"/>
      <point x="127" y="-12"/>
      <point x="62" y="20"/>
      <point x="15" y="86" type="curve"/>
      <point x="144" y="206" type="line"/>
      <point x="169" y="174"/>
      <point x="203" y="154"/>
      <point x="244" y="154" type="curve" smooth="yes"/>
      <point x="308" y="154"/>
      <point x="349" y="207"/>
      <point x="362" y="265" type="curve"/>
      <point x="333" y="241"/>
      <point x="298" y="231"/>
      <point x="261" y="231" type="curve" smooth="yes"/>
      <point x="148" y="231"/>
      <point x="70" y="310"/>
      <point x="70" y="422" type="curve" smooth="yes"/>
      <point x="70" y="585"/>
      <point x="219" y="716"/>
      <point x="378" y="716" type="curve" smooth="yes"/>
      <point x="523" y="716"/>
      <point x="571" y="599"/>
      <point x="571" y="472" type="curve" smooth="yes"/>
      <point x="571" y="255"/>
      <point x="461" y="-12"/>
    </contour>
    <contour>
      <point x="309" y="382" type="curve" smooth="yes"/>
      <point x="359" y="382"/>
      <point x="398" y="435"/>
      <point x="398" y="482" type="curve" smooth="yes"/>
      <point x="398" y="514"/>
      <point x="381" y="555"/>
      <point x="344" y="555" type="curve" smooth="yes"/>
      <point x="295" y="555"/>
      <point x="254" y="494"/>
      <point x="254" y="449" type="curve" smooth="yes"/>
      <point x="254" y="416"/>
      <point x="272" y="382"/>
    </contour>
  </outline>
</glyph>
<glyph name="question" format="2">
  <advance width="489"/>
  <unicode hex="003F"/>
  <outline>
    <contour>
      <point x="165" y="259" type="line"/>
      <point x="176" y="273"/>
      <point x="211" y="292"/>
      <point x="253" y="307" type="curve" smooth="yes"/>
      <point x="282" y="317"/>
      <point x="318" y="333"/>
      <point x="349" y="351" type="curve" smooth="yes"/>
      <point x="369" y="362"/>
      <point x="387" y="374"/>
      <point x="404" y="388" type="curve" smooth="yes"/>
      <point x="435" y="413"/>
      <point x="458" y="441"/>
      <point x="472" y="472" type="curve" smooth="yes"/>
      <point x="485" y="499"/>
      <point x="491" y="528"/>
      <point x="491" y="558" type="curve" smooth="yes"/>
      <point x="491" y="661"/>
      <point x="423" y="719"/>
      <point x="318" y="719" type="curve" smooth="yes"/>
      <point x="218" y="719"/>
      <point x="122" y="667"/>
      <point x="77" y="590" type="curve"/>
      <point x="180" y="503" type="line"/>
      <point x="201" y="541"/>
      <point x="238" y="566"/>
      <point x="273" y="566" type="curve" smooth="yes"/>
      <point x="302" y="566"/>
      <point x="321" y="549"/>
      <point x="321" y="527" type="curve" smooth="yes"/>
      <point x="321" y="505"/>
      <point x="302" y="484"/>
      <point x="277" y="466" type="curve" smooth="yes"/>
      <point x="248" y="444"/>
      <point x="211" y="426"/>
      <point x="191" y="416" type="curve" smooth="yes"/>
      <point x="173" y="407"/>
      <point x="159" y="400"/>
      <point x="146" y="391" type="curve" smooth="yes"/>
      <point x="111" y="368"/>
      <point x="89" y="338"/>
      <point x="89" y="314" type="curve" smooth="yes"/>
      <point x="89" y="293"/>
      <point x="105" y="271"/>
      <point x="128" y="259" type="curve"/>
    </contour>
    <contour>
      <point x="21" y="81" type="curve" smooth="yes"/>
      <point x="11" y="30"/>
      <point x="41" y="-10"/>
      <point x="95" y="-10" type="curve" smooth="yes"/>
      <point x="150" y="-10"/>
      <point x="202" y="33"/>
      <point x="210" y="90" type="curve" smooth="yes"/>
      <point x="217" y="140"/>
      <point x="186" y="178"/>
      <point x="135" y="178" type="curve" smooth="yes"/>
      <point x="82" y="178"/>
      <point x="31" y="136"/>
    </contour>
  </outline>
</glyph>
<glyph name="at" format="2">
  <advance width="820"/>
  <unicode hex="0040"/>
  <outline>
    <contour>
      <point x="588" y="64" type="qcurve" smooth="yes"/>
      <point x="573" y="64"/>
      <point x="556" y="85"/>
      <point x="556" y="102" type="qcurve" smooth="yes"/>
      <point x="556" y="109"/>
      <point x="558" y="127"/>
      <point x="560" y="135" type="qcurve"/>
      <point x="619" y="450" type="line"/>
      <point x="536" y="450" type="line"/>
      <point x="526" y="394" type="line"/>
      <point x="519" y="428"/>
      <point x="458" y="468"/>
      <point x="412" y="468" type="qcurve" smooth="yes"/>
      <point x="362" y="468"/>
      <point x="270" y="421"/>
      <point x="199" y="341"/>
      <point x="157" y="236"/>
      <point x="157" y="178" type="qcurve" smooth="yes"/>
      <point x="157" y="137"/>
      <point x="180" y="69"/>
      <point x="222" y="21"/>
      <point x="282" y="-6"/>
      <point x="319" y="-6" type="qcurve" smooth="yes"/>
      <point x="357" y="-6"/>
      <point x="428" y="25"/>
      <point x="470" y="60" type="qcurve"/>
      <point x="469" y="58"/>
      <point x="469" y="53"/>
      <point x="469" y="49" type="qcurve" smooth="yes"/>
      <point x="469" y="18"/>
      <point x="514" y="-16"/>
      <point x="550" y="-16" type="qcurve" smooth="yes"/>
      <point x="582" y="-16"/>
      <point x="639" y="10"/>
      <point x="688" y="55"/>
      <point x="728" y="117"/>
      <point x="756" y="190"/>
      <point x="771" y="270"/>
      <point x="771" y="311" type="qcurve" smooth="yes"/>
      <point x="771" y="380"/>
      <point x="727" y="489"/>
      <point x="648" y="564"/>
      <point x="536" y="603"/>
      <point x="467" y="603" type="qcurve" smooth="yes"/>
      <point x="374" y="603"/>
      <point x="209" y="533"/>
      <point x="87" y="412"/>
      <point x="16" y="248"/>
      <point x="16" y="155" type="qcurve" smooth="yes"/>
      <point x="16" y="86"/>
      <point x="56" y="-25"/>
      <point x="129" y="-103"/>
      <point x="234" y="-146"/>
      <point x="299" y="-146" type="qcurve" smooth="yes"/>
      <point x="344" y="-146"/>
      <point x="431" y="-126"/>
      <point x="473" y="-106" type="qcurve"/>
      <point x="466" y="-38" type="line"/>
      <point x="420" y="-58"/>
      <point x="349" y="-76"/>
      <point x="313" y="-76" type="qcurve" smooth="yes"/>
      <point x="261" y="-76"/>
      <point x="179" y="-43"/>
      <point x="122" y="19"/>
      <point x="91" y="108"/>
      <point x="91" y="164" type="qcurve" smooth="yes"/>
      <point x="91" y="241"/>
      <point x="147" y="375"/>
      <point x="243" y="475"/>
      <point x="374" y="533"/>
      <point x="449" y="533" type="qcurve" smooth="yes"/>
      <point x="506" y="533"/>
      <point x="597" y="499"/>
      <point x="661" y="436"/>
      <point x="696" y="347"/>
      <point x="696" y="291" type="qcurve" smooth="yes"/>
      <point x="696" y="249"/>
      <point x="677" y="168"/>
      <point x="647" y="104"/>
      <point x="608" y="64"/>
    </contour>
    <contour>
      <point x="354" y="82" type="qcurve" smooth="yes"/>
      <point x="330" y="82"/>
      <point x="296" y="99"/>
      <point x="275" y="127"/>
      <point x="266" y="165"/>
      <point x="266" y="186" type="qcurve" smooth="yes"/>
      <point x="266" y="223"/>
      <point x="290" y="288"/>
      <point x="329" y="336"/>
      <point x="378" y="363"/>
      <point x="403" y="363" type="qcurve" smooth="yes"/>
      <point x="438" y="363"/>
      <point x="477" y="316"/>
      <point x="479" y="284" type="qcurve"/>
      <point x="463" y="169" type="line"/>
      <point x="454" y="148"/>
      <point x="433" y="116"/>
      <point x="406" y="93"/>
      <point x="374" y="82"/>
    </contour>
  </outline>
</glyph>
<glyph name="A" format="2">
  <advance width="636"/>
  <unicode hex="0041"/>
  <outline>
    <contour>
      <point x="-61" y="0" type="line"/>
      <point x="138" y="0" type="line"/>
      <point x="203" y="139" type="line"/>
      <point x="373" y="139" type="line"/>
      <point x="380" y="0" type="line"/>
      <point x="578" y="0" type="line"/>
      <point x="499" y="710" type="line"/>
      <point x="320" y="710" type="line"/>
    </contour>
    <contour>
      <point x="259" y="269" type="line"/>
      <point x="362" y="489" type="line"/>
      <point x="370" y="269" type="line"/>
    </contour>
  </outline>
</glyph>
<glyph name="B" format="2">
  <advance width="667"/>
  <unicode hex="0042"/>
  <outline>
    <contour>
      <point x="-3" y="0" type="line"/>
      <point x="330" y="0" type="line" smooth="yes"/>
      <point x="387" y="0"/>
      <point x="493" y="26"/>
      <point x="573" y="80"/>
      <point x="621" y="165"/>
      <point x="621" y="225" type="qcurve" smooth="yes"/>
      <point x="621" y="279"/>
      <point x="572" y="350"/>
      <point x="528" y="364" type="qcurve"/>
      <point x="561" y="378"/>
      <point x="612" y="421"/>
      <point x="647" y="475"/>
      <point x="665" y="534"/>
      <point x="665" y="564" type="qcurve" smooth="yes"/>
      <point x="665" y="592"/>
      <point x="650" y="645"/>
      <point x="620" y="685"/>
      <point x="575" y="710"/>
      <point x="545" y="710" type="qcurve" smooth="yes"/>
      <point x="148" y="710" type="line"/>
    </contour>
    <contour>
      <point x="227" y="164" type="line"/>
      <point x="252" y="283" type="line"/>
      <point x="396" y="283" type="line" smooth="yes"/>
      <point x="404" y="283"/>
      <point x="415" y="276"/>
      <point x="424" y="264"/>
      <point x="428" y="248"/>
      <point x="428" y="238" type="qcurve" smooth="yes"/>
      <point x="428" y="221"/>
      <point x="417" y="193"/>
      <point x="400" y="174"/>
      <point x="377" y="164"/>
      <point x="365" y="164" type="qcurve" smooth="yes"/>
    </contour>
    <contour>
      <point x="284" y="435" type="line"/>
      <point x="308" y="544" type="line"/>
      <point x="431" y="544" type="line" smooth="yes"/>
      <point x="437" y="544"/>
      <point x="448" y="540"/>
      <point x="456" y="531"/>
      <point x="461" y="516"/>
      <point x="461" y="506" type="qcurve" smooth="yes"/>
      <point x="461" y="485"/>
      <point x="450" y="458"/>
      <point x="433" y="442"/>
      <point x="412" y="435"/>
      <point x="402" y="435" type="qcurve" smooth="yes"/>
    </contour>
  </outline>
</glyph>
<glyph name="D" format="2">
  <advance width="693"/>
  <unicode hex="0044"/>
  <outline>
    <contour>
      <point x="-3" y="0" type="line"/>
      <point x="259" y="0" type="line" smooth="yes"/>
      <point x="350" y="0"/>
      <point x="506" y="65"/>
      <point x="621" y="181"/>
      <point x="686" y="339"/>
      <point x="686" y="433" type="qcurve" smooth="yes"/>
      <point x="686" y="491"/>
      <point x="653" y="592"/>
      <point x="584" y="667"/>
      <point x="481" y="710"/>
      <point x="410" y="710" type="qcurve" smooth="yes"/>
      <point x="148" y="710" type="line"/>
    </contour>
    <contour>
      <point x="228" y="170" type="line"/>
      <point x="307" y="540" type="line"/>
      <point x="374" y="540" type="line" smooth="yes"/>
      <point x="401" y="540"/>
      <point x="442" y="521"/>
      <point x="471" y="485"/>
      <point x="485" y="435"/>
      <point x="485" y="405" type="qcurve" smooth="yes"/>
      <point x="485" y="358"/>
      <point x="457" y="273"/>
      <point x="407" y="208"/>
      <point x="337" y="170"/>
      <point x="295" y="170" type="qcurve" smooth="yes"/>
    </contour>
  </outline>
</glyph>
<glyph name="G" format="2">
  <advance width="701"/>
  <unicode hex="0047"/>
  <outline>
    <contour>
      <point x="287" y="-5" type="qcurve" smooth="yes"/>
      <point x="328" y="-5"/>
      <point x="399" y="3"/>
      <point x="471" y="25"/>
      <point x="549" y="66"/>
      <point x="596" y="100" type="qcurve"/>
      <point x="659" y="398" type="line"/>
      <point x="350" y="398" type="line"/>
      <point x="320" y="238" type="line"/>
      <point x="433" y="238" type="line"/>
      <point x="422" y="184" type="line"/>
      <point x="405" y="177"/>
      <point x="385" y="168"/>
      <point x="367" y="165"/>
      <point x="345" y="164"/>
      <point x="325" y="164" type="qcurve" smooth="yes"/>
      <point x="286" y="164"/>
      <point x="239" y="201"/>
      <point x="218" y="257"/>
      <point x="218" y="325"/>
      <point x="225" y="356" type="qcurve" smooth="yes"/>
      <point x="233" y="391"/>
      <point x="263" y="457"/>
      <point x="308" y="510"/>
      <point x="366" y="542"/>
      <point x="401" y="542" type="qcurve" smooth="yes"/>
      <point x="433" y="542"/>
      <point x="472" y="517"/>
      <point x="495" y="485"/>
      <point x="504" y="454"/>
      <point x="505" y="449" type="qcurve"/>
      <point x="680" y="570" type="line"/>
      <point x="657" y="641"/>
      <point x="537" y="715"/>
      <point x="449" y="715" type="qcurve" smooth="yes"/>
      <point x="370" y="715"/>
      <point x="232" y="656"/>
      <point x="124" y="557"/>
      <point x="50" y="426"/>
      <point x="35" y="355" type="qcurve" smooth="yes"/>
      <point x="20" y="287"/>
      <point x="35" y="157"/>
      <point x="97" y="56"/>
      <point x="207" y="-5"/>
    </contour>
  </outline>
</glyph>
<glyph name="I" format="2">
  <advance width="317"/>
  <unicode hex="0049"/>
  <outline>
    <contour>
      <point x="-3" y="0" type="line"/>
      <point x="192" y="0" type="line"/>
      <point x="343" y="710" type="line"/>
      <point x="148" y="710" type="line"/>
    </contour>
  </outline>
</glyph>
<glyph name="J" format="2">
  <advance width="589"/>
  <unicode hex="004A"/>
  <outline>
    <contour>
      <point x="162" y="253" type="line"/>
      <point x="167" y="239"/>
      <point x="181" y="209"/>
      <point x="201" y="184"/>
      <point x="227" y="168"/>
      <point x="245" y="168" type="qcurve" smooth="yes"/>
      <point x="265" y="168"/>
      <point x="293" y="187"/>
      <point x="312" y="217"/>
      <point x="324" y="253"/>
      <point x="327" y="269" type="qcurve" smooth="yes"/>
      <point x="416" y="710" type="line"/>
      <point x="610" y="710" type="line"/>
      <point x="518" y="254" type="line" smooth="yes"/>
      <point x="507" y="199"/>
      <point x="451" y="104"/>
      <point x="370" y="34"/>
      <point x="267" y="-6"/>
      <point x="210" y="-6" type="qcurve" smooth="yes"/>
      <point x="166" y="-6"/>
      <point x="94" y="22"/>
      <point x="40" y="73"/>
      <point x="3" y="143"/>
      <point x="-6" y="184" type="qcurve"/>
    </contour>
  </outline>
</glyph>
<glyph name="P" format="2">
  <advance width="602"/>
  <unicode hex="0050"/>
  <outline>
    <contour>
      <point x="-3" y="0" type="line"/>
      <point x="192" y="0" type="line"/>
      <point x="238" y="218" type="line"/>
      <point x="340" y="218" type="line" smooth="yes"/>
      <point x="398" y="218"/>
      <point x="500" y="269"/>
      <point x="577" y="350"/>
      <point x="622" y="453"/>
      <point x="622" y="505" type="qcurve" smooth="yes"/>
      <point x="622" y="544"/>
      <point x="597" y="618"/>
      <point x="550" y="675"/>
      <point x="483" y="710"/>
      <point x="440" y="710" type="qcurve" smooth="yes"/>
      <point x="148" y="710" type="line"/>
    </contour>
    <contour>
      <point x="275" y="388" type="line"/>
      <point x="307" y="540" type="line"/>
      <point x="390" y="540" type="line" smooth="yes"/>
      <point x="396" y="540"/>
      <point x="407" y="535"/>
      <point x="416" y="523"/>
      <point x="422" y="504"/>
      <point x="422" y="489" type="qcurve" smooth="yes"/>
      <point x="422" y="463"/>
      <point x="410" y="425"/>
      <point x="393" y="400"/>
      <point x="372" y="388"/>
      <point x="363" y="388" type="qcurve" smooth="yes"/>
    </contour>
  </outline>
</glyph>
<glyph name="Q" format="2">
  <advance width="738"/>
  <unicode hex="0051"/>
  <outline>
    <contour>
      <point x="303" y="-6" type="qcurve" smooth="yes"/>
      <point x="389" y="-6"/>
      <point x="545" y="66"/>
      <point x="663" y="184"/>
      <point x="733" y="336"/>
      <point x="733" y="416" type="qcurve" smooth="yes"/>
      <point x="733" y="474"/>
      <point x="697" y="581"/>
      <point x="628" y="664"/>
      <point x="526" y="714"/>
      <point x="460" y="714" type="qcurve" smooth="yes"/>
      <point x="374" y="714"/>
      <point x="217" y="643"/>
      <point x="98" y="525"/>
      <point x="28" y="373"/>
      <point x="28" y="292" type="qcurve" smooth="yes"/>
      <point x="28" y="234"/>
      <point x="64" y="126"/>
      <point x="134" y="44"/>
      <point x="237" y="-6"/>
    </contour>
    <contour>
      <point x="341" y="167" type="qcurve" smooth="yes"/>
      <point x="311" y="167"/>
      <point x="268" y="190"/>
      <point x="241" y="229"/>
      <point x="228" y="279"/>
      <point x="228" y="307" type="qcurve" smooth="yes"/>
      <point x="228" y="346"/>
      <point x="253" y="429"/>
      <point x="301" y="497"/>
      <point x="373" y="541"/>
      <point x="420" y="541" type="qcurve" smooth="yes"/>
      <point x="450" y="541"/>
      <point x="494" y="519"/>
      <point x="521" y="481"/>
      <point x="534" y="431"/>
      <point x="534" y="403" type="qcurve" smooth="yes"/>
      <point x="534" y="364"/>
      <point x="510" y="281"/>
      <point x="461" y="212"/>
      <point x="389" y="167"/>
    </contour>
    <contour>
      <point x="550" y="-30" type="line"/>
      <point x="659" y="62" type="line"/>
      <point x="440" y="354" type="line"/>
      <point x="333" y="262" type="line"/>
    </contour>
  </outline>
</glyph>
<glyph name="S" format="2">
  <advance width="596"/>
  <unicode hex="0053"/>
  <outline>
    <contour>
      <point x="245" y="-9" type="qcurve" smooth="yes"/>
      <point x="299" y="-9"/>
      <point x="410" y="19"/>
      <point x="500" y="83"/>
      <point x="557" y="186"/>
      <point x="557" y="262" type="qcurve" smooth="yes"/>
      <point x="557" y="299"/>
      <point x="534" y="353"/>
      <point x="491" y="393"/>
      <point x="432" y="424"/>
      <point x="396" y="437" type="qcurve" smooth="yes"/>
      <point x="372" y="446"/>
      <point x="333" y="459"/>
      <point x="305" y="473"/>
      <point x="290" y="489"/>
      <point x="290" y="501" type="qcurve" smooth="yes"/>
      <point x="290" y="512"/>
      <point x="298" y="528"/>
      <point x="313" y="538"/>
      <point x="332" y="543"/>
      <point x="343" y="543" type="qcurve" smooth="yes"/>
      <point x="373" y="543"/>
      <point x="433" y="523"/>
      <point x="480" y="498"/>
      <point x="509" y="478"/>
      <point x="507" y="478" type="qcurve"/>
      <point x="625" y="639" type="line"/>
      <point x="605" y="651"/>
      <point x="553" y="678"/>
      <point x="492" y="701"/>
      <point x="423" y="716"/>
      <point x="386" y="716" type="qcurve" smooth="yes"/>
      <point x="329" y="716"/>
      <point x="218" y="678"/>
      <point x="130" y="606"/>
      <point x="76" y="501"/>
      <point x="76" y="434" type="qcurve" smooth="yes"/>
      <point x="76" y="406"/>
      <point x="92" y="359"/>
      <point x="125" y="321"/>
      <point x="174" y="290"/>
      <point x="207" y="277" type="qcurve" smooth="yes"/>
      <point x="232" y="267"/>
      <point x="279" y="252"/>
      <point x="315" y="236"/>
      <point x="337" y="218"/>
      <point x="337" y="204" type="qcurve" smooth="yes"/>
      <point x="337" y="197"/>
      <point x="333" y="184"/>
      <point x="322" y="173"/>
      <point x="302" y="167"/>
      <point x="285" y="167" type="qcurve" smooth="yes"/>
      <point x="246" y="167"/>
      <point x="173" y="191"/>
      <point x="118" y="221"/>
      <point x="86" y="245"/>
      <point x="87" y="245" type="qcurve"/>
      <point x="-33" y="74" type="line"/>
      <point x="-6" y="55"/>
      <point x="60" y="25"/>
      <point x="132" y="3"/>
      <point x="208" y="-9"/>
    </contour>
  </outline>
</glyph>
<glyph name="U" format="2">
  <advance width="713"/>
  <unicode hex="0055"/>
  <outline>
    <contour>
      <point x="291" y="-6" type="qcurve" smooth="yes"/>
      <point x="369" y="-6"/>
      <point x="496" y="48"/>
      <point x="592" y="143"/>
      <point x="656" y="271"/>
      <point x="672" y="345" type="qcurve" smooth="yes"/>
      <point x="750" y="710" type="line"/>
      <point x="555" y="710" type="line"/>
      <point x="477" y="345" type="line" smooth="yes"/>
      <point x="470" y="311"/>
      <point x="444" y="246"/>
      <point x="406" y="197"/>
      <point x="358" y="167"/>
      <point x="328" y="167" type="qcurve" smooth="yes"/>
      <point x="306" y="167"/>
      <point x="276" y="183"/>
      <point x="256" y="212"/>
      <point x="247" y="251"/>
      <point x="247" y="274" type="qcurve" smooth="yes"/>
      <point x="247" y="291"/>
      <point x="251" y="326"/>
      <point x="255" y="345" type="qcurve" smooth="yes"/>
      <point x="333" y="710" type="line"/>
      <point x="138" y="710" type="line"/>
      <point x="60" y="345" type="line" smooth="yes"/>
      <point x="54" y="317"/>
      <point x="48" y="264"/>
      <point x="48" y="238" type="qcurve" smooth="yes"/>
      <point x="48" y="186"/>
      <point x="75" y="97"/>
      <point x="134" y="31"/>
      <point x="226" y="-6"/>
    </contour>
  </outline>
</glyph>
<glyph name="b" format="2">
  <advance width="627"/>
  <unicode hex="0062"/>
  <outline>
    <contour>
      <point x="305" y="-10" type="qcurve" smooth="yes"/>
      <point x="364" y="-10"/>
      <point x="472" y="42"/>
      <point x="555" y="133"/>
      <point x="604" y="255"/>
      <point x="604" y="325" type="qcurve" smooth="yes"/>
      <point x="604" y="371"/>
      <point x="582" y="449"/>
      <point x="539" y="505"/>
      <point x="476" y="536"/>
      <point x="436" y="536" type="qcurve" smooth="yes"/>
      <point x="386" y="536"/>
      <point x="297" y="489"/>
      <point x="269" y="448" type="qcurve"/>
      <point x="329" y="730" type="line"/>
      <point x="139" y="730" type="line"/>
      <point x="-16" y="0" type="line"/>
      <point x="149" y="0" type="line"/>
      <point x="166" y="82" type="line"/>
      <point x="173" y="60"/>
      <point x="197" y="25"/>
      <point x="232" y="2"/>
      <point x="278" y="-10"/>
    </contour>
    <contour>
      <point x="287" y="150" type="qcurve" smooth="yes"/>
      <point x="274" y="150"/>
      <point x="254" y="157"/>
      <point x="237" y="170"/>
      <point x="224" y="191"/>
      <point x="217" y="204" type="qcurve"/>
      <point x="237" y="298" type="line"/>
      <point x="247" y="315"/>
      <point x="272" y="344"/>
      <point x="299" y="365"/>
      <point x="328" y="376"/>
      <point x="341" y="376" type="qcurve" smooth="yes"/>
      <point x="356" y="376"/>
      <point x="379" y="363"/>
      <point x="395" y="339"/>
      <point x="404" y="306"/>
      <point x="404" y="287" type="qcurve" smooth="yes"/>
      <point x="404" y="258"/>
      <point x="385" y="208"/>
      <point x="353" y="171"/>
      <point x="311" y="150"/>
    </contour>
  </outline>
</glyph>
<glyph name="c" format="2">
  <advance width="555"/>
  <unicode hex="0063"/>
  <outline>
    <contour>
      <point x="232" y="-10" type="qcurve" smooth="yes"/>
      <point x="278" y="-10"/>
      <point x="359" y="11"/>
      <point x="429" y="49"/>
      <point x="487" y="102"/>
      <point x="509" y="133" type="qcurve"/>
      <point x="336" y="189" type="line"/>
      <point x="328" y="180"/>
      <point x="311" y="165"/>
      <point x="293" y="155"/>
      <point x="275" y="150"/>
      <point x="265" y="150" type="qcurve" smooth="yes"/>
      <point x="251" y="150"/>
      <point x="229" y="161"/>
      <point x="213" y="182"/>
      <point x="204" y="213"/>
      <point x="204" y="232" type="qcurve" smooth="yes"/>
      <point x="204" y="264"/>
      <point x="222" y="317"/>
      <point x="253" y="355"/>
      <point x="292" y="376"/>
      <point x="313" y="376" type="qcurve" smooth="yes"/>
      <point x="333" y="376"/>
      <point x="360" y="356"/>
      <point x="368" y="337" type="qcurve"/>
      <point x="565" y="393" type="line"/>
      <point x="547" y="456"/>
      <point x="441" y="536"/>
      <point x="348" y="536" type="qcurve" smooth="yes"/>
      <point x="270" y="536"/>
      <point x="144" y="480"/>
      <point x="54" y="389"/>
      <point x="6" y="272"/>
      <point x="6" y="211" type="qcurve" smooth="yes"/>
      <point x="6" y="166"/>
      <point x="34" y="86"/>
      <point x="90" y="26"/>
      <point x="175" y="-10"/>
    </contour>
  </outline>
</glyph>
<glyph name="e" format="2">
  <advance width="566"/>
  <unicode hex="0065"/>
  <outline>
    <contour>
      <point x="233" y="-10" type="qcurve" smooth="yes"/>
      <point x="274" y="-10"/>
      <point x="356" y="10"/>
      <point x="431" y="48"/>
      <point x="494" y="100"/>
      <point x="516" y="132" type="qcurve"/>
      <point x="367" y="180" type="line"/>
      <point x="359" y="167"/>
      <point x="338" y="147"/>
      <point x="313" y="133"/>
      <point x="285" y="126"/>
      <point x="269" y="126" type="qcurve" smooth="yes"/>
      <point x="252" y="126"/>
      <point x="227" y="135"/>
      <point x="212" y="153"/>
      <point x="205" y="182"/>
      <point x="205" y="203" type="qcurve" smooth="yes"/>
      <point x="205" y="244"/>
      <point x="223" y="316"/>
      <point x="255" y="370"/>
      <point x="296" y="401"/>
      <point x="320" y="401" type="qcurve" smooth="yes"/>
      <point x="331" y="401"/>
      <point x="350" y="395"/>
      <point x="364" y="385"/>
      <point x="371" y="371"/>
      <point x="371" y="362" type="qcurve" smooth="yes"/>
      <point x="371" y="350"/>
      <point x="357" y="333"/>
      <point x="324" y="322"/>
      <point x="271" y="318"/>
      <point x="233" y="318" type="qcurve" smooth="yes"/>
      <point x="202" y="318"/>
      <point x="146" y="321"/>
      <point x="120" y="324" type="qcurve"/>
      <point x="96" y="211" type="line"/>
      <point x="131" y="207"/>
      <point x="202" y="204"/>
      <point x="234" y="204" type="qcurve" smooth="yes"/>
      <point x="394" y="204"/>
      <point x="557" y="294"/>
      <point x="557" y="383" type="qcurve" smooth="yes"/>
      <point x="557" y="419"/>
      <point x="529" y="476"/>
      <point x="477" y="515"/>
      <point x="402" y="536"/>
      <point x="354" y="536" type="qcurve" smooth="yes"/>
      <point x="282" y="536"/>
      <point x="155" y="486"/>
      <point x="61" y="398"/>
      <point x="7" y="281"/>
      <point x="7" y="213" type="qcurve" smooth="yes"/>
      <point x="7" y="162"/>
      <point x="39" y="80"/>
      <point x="98" y="22"/>
      <point x="182" y="-10"/>
    </contour>
  </outline>
</glyph>
<glyph name="f" format="2">
  <advance width="394"/>
  <unicode hex="0066"/>
  <outline>
    <contour>
      <point x="-28" y="-213" type="line"/>
      <point x="162" y="-213" type="line"/>
      <point x="276" y="322" type="line"/>
      <point x="383" y="322" type="line"/>
      <point x="414" y="465" type="line"/>
      <point x="306" y="465" type="line"/>
      <point x="320" y="529" type="line" smooth="yes"/>
      <point x="325" y="555"/>
      <point x="351" y="580"/>
      <point x="371" y="580" type="qcurve" smooth="yes"/>
      <point x="385" y="580"/>
      <point x="421" y="572"/>
      <point x="435" y="566" type="qcurve"/>
      <point x="497" y="710" type="line"/>
      <point x="461" y="725"/>
      <point x="394" y="740"/>
      <point x="362" y="740" type="qcurve" smooth="yes"/>
      <point x="320" y="740"/>
      <point x="245" y="709"/>
      <point x="183" y="652"/>
      <point x="140" y="572"/>
      <point x="129" y="522" type="qcurve" smooth="yes"/>
      <point x="117" y="465" type="line"/>
      <point x="56" y="465" type="line"/>
      <point x="25" y="322" type="line"/>
      <point x="86" y="322" type="line"/>
    </contour>
  </outline>
</glyph>
<glyph name="g" format="2">
  <advance width="626"/>
  <unicode hex="0067"/>
  <outline>
    <contour>
      <point x="159" y="-223" type="qcurve" smooth="yes"/>
      <point x="229" y="-223"/>
      <point x="351" y="-184"/>
      <point x="447" y="-114"/>
      <point x="512" y="-14"/>
      <point x="525" y="48" type="qcurve" smooth="yes"/>
      <point x="627" y="526" type="line"/>
      <point x="462" y="526" type="line"/>
      <point x="445" y="448" type="line"/>
      <point x="438" y="469"/>
      <point x="413" y="502"/>
      <point x="378" y="525"/>
      <point x="333" y="536"/>
      <point x="307" y="536" type="qcurve" smooth="yes"/>
      <point x="247" y="536"/>
      <point x="138" y="484"/>
      <point x="56" y="394"/>
      <point x="8" y="273"/>
      <point x="8" y="204" type="qcurve" smooth="yes"/>
      <point x="8" y="160"/>
      <point x="30" y="85"/>
      <point x="73" y="31"/>
      <point x="136" y="0"/>
      <point x="176" y="0" type="qcurve" smooth="yes"/>
      <point x="200" y="0"/>
      <point x="246" y="10"/>
      <point x="290" y="31"/>
      <point x="327" y="61"/>
      <point x="342" y="82" type="qcurve"/>
      <point x="335" y="48" type="line" smooth="yes"/>
      <point x="328" y="13"/>
      <point x="298" y="-37"/>
      <point x="259" y="-68"/>
      <point x="212" y="-82"/>
      <point x="188" y="-82" type="qcurve" smooth="yes"/>
      <point x="146" y="-82"/>
      <point x="78" y="-45"/>
      <point x="57" y="-18" type="qcurve"/>
      <point x="-65" y="-122" type="line"/>
      <point x="-47" y="-146"/>
      <point x="-2" y="-184"/>
      <point x="53" y="-210"/>
      <point x="120" y="-223"/>
    </contour>
    <contour>
      <point x="277" y="150" type="qcurve" smooth="yes"/>
      <point x="261" y="150"/>
      <point x="234" y="162"/>
      <point x="216" y="184"/>
      <point x="206" y="215"/>
      <point x="206" y="233" type="qcurve" smooth="yes"/>
      <point x="206" y="261"/>
      <point x="225" y="312"/>
      <point x="257" y="352"/>
      <point x="296" y="376"/>
      <point x="317" y="376" type="qcurve" smooth="yes"/>
      <point x="330" y="376"/>
      <point x="354" y="365"/>
      <point x="372" y="345"/>
      <point x="385" y="316"/>
      <point x="388" y="298" type="qcurve"/>
      <point x="368" y="204" type="line"/>
      <point x="356" y="191"/>
      <point x="334" y="170"/>
      <point x="311" y="157"/>
      <point x="289" y="150"/>
    </contour>
  </outline>
</glyph>
<glyph name="h" format="2">
  <advance width="601"/>
  <unicode hex="0068"/>
  <outline>
    <contour>
      <point x="-16" y="0" type="line"/>
      <point x="174" y="0" type="line"/>
      <point x="237" y="295" type="line"/>
      <point x="247" y="312"/>
      <point x="272" y="340"/>
      <point x="298" y="360"/>
      <point x="322" y="370"/>
      <point x="329" y="370" type="qcurve" smooth="yes"/>
      <point x="347" y="370"/>
      <point x="370" y="348"/>
      <point x="370" y="323" type="qcurve" smooth="yes"/>
      <point x="370" y="317"/>
      <point x="369" y="304"/>
      <point x="367" y="296" type="qcurve" smooth="yes"/>
      <point x="304" y="0" type="line"/>
      <point x="494" y="0" type="line"/>
      <point x="567" y="346" type="line" smooth="yes"/>
      <point x="571" y="363"/>
      <point x="576" y="401"/>
      <point x="576" y="420" type="qcurve" smooth="yes"/>
      <point x="576" y="443"/>
      <point x="565" y="484"/>
      <point x="537" y="517"/>
      <point x="489" y="536"/>
      <point x="451" y="536" type="qcurve" smooth="yes"/>
      <point x="425" y="536"/>
      <point x="375" y="525"/>
      <point x="328" y="502"/>
      <point x="287" y="469"/>
      <point x="269" y="448" type="qcurve"/>
      <point x="329" y="730" type="line"/>
      <point x="139" y="730" type="line"/>
    </contour>
  </outline>
</glyph>
<glyph name="k" format="2">
  <advance width="582"/>
  <unicode hex="006B"/>
  <outline>
    <contour>
      <point x="309" y="0" type="line"/>
      <point x="509" y="0" type="line"/>
      <point x="432" y="189" type="line"/>
      <point x="494" y="227"/>
      <point x="562" y="340"/>
      <point x="562" y="407" type="qcurve" smooth="yes"/>
      <point x="562" y="467"/>
      <point x="502" y="531"/>
      <point x="447" y="531" type="qcurve" smooth="yes"/>
      <point x="416" y="531"/>
      <point x="357" y="510"/>
      <point x="304" y="468"/>
      <point x="258" y="406"/>
      <point x="239" y="365" type="qcurve"/>
      <point x="209" y="197" type="line"/>
      <point x="217" y="231"/>
      <point x="247" y="293"/>
      <point x="286" y="341"/>
      <point x="329" y="369"/>
      <point x="349" y="369" type="qcurve" smooth="yes"/>
      <point x="368" y="369"/>
      <point x="392" y="344"/>
      <point x="392" y="324" type="qcurve" smooth="yes"/>
      <point x="392" y="286"/>
      <point x="307" y="228"/>
      <point x="235" y="215" type="qcurve"/>
    </contour>
    <contour>
      <point x="-16" y="0" type="line"/>
      <point x="172" y="0" type="line"/>
      <point x="327" y="730" type="line"/>
      <point x="139" y="730" type="line"/>
    </contour>
  </outline>
</glyph>
<glyph name="l" format="2">
  <advance width="345"/>
  <unicode hex="006C"/>
  <outline>
    <contour>
      <point x="132" y="-10" type="qcurve" smooth="yes"/>
      <point x="169" y="-10"/>
      <point x="257" y="8"/>
      <point x="293" y="24" type="qcurve"/>
      <point x="299" y="164" type="line"/>
      <point x="286" y="157"/>
      <point x="258" y="149"/>
      <point x="247" y="149" type="qcurve" smooth="yes"/>
      <point x="229" y="149"/>
      <point x="211" y="168"/>
      <point x="211" y="187" type="qcurve" smooth="yes"/>
      <point x="211" y="192"/>
      <point x="212" y="203"/>
      <point x="214" y="209" type="qcurve"/>
      <point x="325" y="730" type="line"/>
      <point x="135" y="730" type="line"/>
      <point x="10" y="142" type="line" smooth="yes"/>
      <point x="7" y="130"/>
      <point x="5" y="108"/>
      <point x="5" y="97" type="qcurve" smooth="yes"/>
      <point x="5" y="45"/>
      <point x="69" y="-10"/>
    </contour>
  </outline>
</glyph>
<glyph name="m" format="2">
  <advance width="903"/>
  <unicode hex="006D"/>
  <outline>
    <contour>
      <point x="-16" y="0" type="line"/>
      <point x="174" y="0" type="line"/>
      <point x="237" y="295" type="line"/>
      <point x="245" y="310"/>
      <point x="268" y="338"/>
      <point x="293" y="358"/>
      <point x="318" y="370"/>
      <point x="328" y="370" type="qcurve" smooth="yes"/>
      <point x="342" y="370"/>
      <point x="361" y="348"/>
      <point x="361" y="325" type="qcurve" smooth="yes"/>
      <point x="361" y="319"/>
      <point x="360" y="304"/>
      <point x="358" y="296" type="qcurve"/>
      <point x="295" y="0" type="line"/>
      <point x="485" y="0" type="line"/>
      <point x="547" y="295" type="line"/>
      <point x="556" y="311"/>
      <point x="579" y="338"/>
      <point x="604" y="358"/>
      <point x="629" y="370"/>
      <point x="639" y="370" type="qcurve" smooth="yes"/>
      <point x="652" y="370"/>
      <point x="671" y="348"/>
      <point x="671" y="325" type="qcurve" smooth="yes"/>
      <point x="671" y="319"/>
      <point x="670" y="304"/>
      <point x="668" y="296" type="qcurve"/>
      <point x="605" y="0" type="line"/>
      <point x="795" y="0" type="line"/>
      <point x="869" y="346" type="line" smooth="yes"/>
      <point x="875" y="375"/>
      <point x="878" y="411"/>
      <point x="878" y="420" type="qcurve" smooth="yes"/>
      <point x="878" y="442"/>
      <point x="868" y="484"/>
      <point x="841" y="516"/>
      <point x="796" y="536"/>
      <point x="760" y="536" type="qcurve" smooth="yes"/>
      <point x="732" y="536"/>
      <point x="678" y="524"/>
      <point x="628" y="500"/>
      <point x="584" y="466"/>
      <point x="566" y="445" type="qcurve"/>
      <point x="564" y="463"/>
      <point x="552" y="496"/>
      <point x="525" y="521"/>
      <point x="480" y="536"/>
      <point x="447" y="536" type="qcurve" smooth="yes"/>
      <point x="390" y="536"/>
      <point x="285" y="491"/>
      <point x="250" y="448" type="qcurve"/>
      <point x="267" y="526" type="line"/>
      <point x="96" y="526" type="line"/>
    </contour>
  </outline>
</glyph>
<glyph name="n" format="2">
  <advance width="601"/>
  <unicode hex="006E"/>
  <outline>
    <contour>
      <point x="-16" y="0" type="line"/>
      <point x="174" y="0" type="line"/>
      <point x="237" y="295" type="line"/>
      <point x="246" y="312"/>
      <point x="271" y="339"/>
      <point x="296" y="359"/>
      <point x="321" y="370"/>
      <point x="331" y="370" type="qcurve" smooth="yes"/>
      <point x="347" y="370"/>
      <point x="370" y="347"/>
      <point x="370" y="322" type="qcurve" smooth="yes"/>
      <point x="370" y="316"/>
      <point x="369" y="304"/>
      <point x="367" y="296" type="qcurve" smooth="yes"/>
      <point x="304" y="0" type="line"/>
      <point x="494" y="0" type="line"/>
      <point x="567" y="346" type="line" smooth="yes"/>
      <point x="570" y="362"/>
      <point x="575" y="398"/>
      <point x="575" y="417" type="qcurve" smooth="yes"/>
      <point x="575" y="440"/>
      <point x="565" y="482"/>
      <point x="538" y="516"/>
      <point x="491" y="536"/>
      <point x="455" y="536" type="qcurve" smooth="yes"/>
      <point x="423" y="536"/>
      <point x="364" y="525"/>
      <point x="312" y="502"/>
      <point x="268" y="469"/>
      <point x="250" y="448" type="qcurve"/>
      <point x="267" y="526" type="line"/>
      <point x="96" y="526" type="line"/>
    </contour>
  </outline>
</glyph>
<glyph name="o" format="2">
  <advance width="596"/>
  <unicode hex="006F"/>
  <outline>
    <contour>
      <point x="240" y="-10" type="qcurve" smooth="yes"/>
      <point x="318" y="-10"/>
      <point x="441" y="43"/>
      <point x="527" y="133"/>
      <point x="573" y="250"/>
      <point x="573" y="313" type="qcurve" smooth="yes"/>
      <point x="573" y="359"/>
      <point x="547" y="440"/>
      <point x="491" y="501"/>
      <point x="403" y="536"/>
      <point x="340" y="536" type="qcurve" smooth="yes"/>
      <point x="262" y="536"/>
      <point x="139" y="483"/>
      <point x="53" y="394"/>
      <point x="7" y="277"/>
      <point x="7" y="214" type="qcurve" smooth="yes"/>
      <point x="7" y="168"/>
      <point x="33" y="86"/>
      <point x="89" y="25"/>
      <point x="177" y="-10"/>
    </contour>
    <contour>
      <point x="267" y="150" type="qcurve" smooth="yes"/>
      <point x="252" y="150"/>
      <point x="229" y="161"/>
      <point x="213" y="183"/>
      <point x="205" y="214"/>
      <point x="205" y="234" type="qcurve" smooth="yes"/>
      <point x="205" y="264"/>
      <point x="223" y="316"/>
      <point x="253" y="354"/>
      <point x="292" y="376"/>
      <point x="313" y="376" type="qcurve" smooth="yes"/>
      <point x="328" y="376"/>
      <point x="351" y="365"/>
      <point x="367" y="343"/>
      <point x="375" y="312"/>
      <point x="375" y="292" type="qcurve" smooth="yes"/>
      <point x="375" y="262"/>
      <point x="357" y="210"/>
      <point x="327" y="172"/>
      <point x="288" y="150"/>
    </contour>
  </outline>
</glyph>
<glyph name="p" format="2">
  <advance width="626"/>
  <unicode hex="0070"/>
  <outline>
    <contour>
      <point x="-62" y="-213" type="line"/>
      <point x="128" y="-213" type="line"/>
      <point x="190" y="78" type="line"/>
      <point x="196" y="57"/>
      <point x="219" y="24"/>
      <point x="253" y="1"/>
      <point x="297" y="-10"/>
      <point x="324" y="-10" type="qcurve" smooth="yes"/>
      <point x="378" y="-10"/>
      <point x="479" y="44"/>
      <point x="557" y="135"/>
      <point x="603" y="257"/>
      <point x="603" y="324" type="qcurve" smooth="yes"/>
      <point x="603" y="370"/>
      <point x="578" y="448"/>
      <point x="531" y="504"/>
      <point x="464" y="536"/>
      <point x="422" y="536" type="qcurve" smooth="yes"/>
      <point x="394" y="536"/>
      <point x="344" y="524"/>
      <point x="300" y="502"/>
      <point x="261" y="468"/>
      <point x="243" y="447" type="qcurve"/>
      <point x="260" y="526" type="line"/>
      <point x="95" y="526" type="line"/>
    </contour>
    <contour>
      <point x="292" y="150" type="qcurve" smooth="yes"/>
      <point x="279" y="150"/>
      <point x="256" y="162"/>
      <point x="237" y="184"/>
      <point x="225" y="214"/>
      <point x="222" y="231" type="qcurve"/>
      <point x="242" y="322" type="line"/>
      <point x="254" y="336"/>
      <point x="276" y="356"/>
      <point x="298" y="369"/>
      <point x="320" y="376"/>
      <point x="332" y="376" type="qcurve" smooth="yes"/>
      <point x="349" y="376"/>
      <point x="376" y="364"/>
      <point x="394" y="342"/>
      <point x="404" y="312"/>
      <point x="404" y="293" type="qcurve" smooth="yes"/>
      <point x="404" y="265"/>
      <point x="385" y="213"/>
      <point x="353" y="174"/>
      <point x="313" y="150"/>
    </contour>
  </outline>
</glyph>
<glyph name="q" format="2">
  <advance width="626"/>
  <unicode hex="0071"/>
  <outline>
    <contour>
      <point x="279" y="-214" type="line"/>
      <point x="469" y="-214" type="line"/>
      <point x="626" y="526" type="line"/>
      <point x="461" y="526" type="line"/>
      <point x="444" y="445" type="line"/>
      <point x="435" y="466"/>
      <point x="411" y="500"/>
      <point x="376" y="524"/>
      <point x="332" y="536"/>
      <point x="304" y="536" type="qcurve" smooth="yes"/>
      <point x="246" y="536"/>
      <point x="138" y="484"/>
      <point x="56" y="393"/>
      <point x="7" y="271"/>
      <point x="7" y="200" type="qcurve" smooth="yes"/>
      <point x="7" y="154"/>
      <point x="30" y="77"/>
      <point x="72" y="21"/>
      <point x="132" y="-10"/>
      <point x="169" y="-10" type="qcurve" smooth="yes"/>
      <point x="223" y="-10"/>
      <point x="312" y="35"/>
      <point x="341" y="78" type="qcurve"/>
    </contour>
    <contour>
      <point x="278" y="150" type="qcurve" smooth="yes"/>
      <point x="261" y="150"/>
      <point x="234" y="162"/>
      <point x="215" y="184"/>
      <point x="205" y="215"/>
      <point x="205" y="234" type="qcurve" smooth="yes"/>
      <point x="205" y="262"/>
      <point x="224" y="313"/>
      <point x="255" y="352"/>
      <point x="296" y="376"/>
      <point x="317" y="376" type="qcurve" smooth="yes"/>
      <point x="330" y="376"/>
      <point x="353" y="365"/>
      <point x="372" y="344"/>
      <point x="385" y="315"/>
      <point x="388" y="298" type="qcurve"/>
      <point x="368" y="204" type="line"/>
      <point x="356" y="191"/>
      <point x="334" y="170"/>
      <point x="311" y="157"/>
      <point x="289" y="150"/>
    </contour>
  </outline>
</glyph>
<glyph name="r" format="2">
  <advance width="408"/>
  <unicode hex="0072"/>
  <outline>
    <contour>
      <point x="-16" y="0" type="line"/>
      <point x="174" y="0" type="line"/>
      <point x="240" y="312" type="line"/>
      <point x="267" y="340"/>
      <point x="357" y="364"/>
      <point x="408" y="364" type="qcurve"/>
      <point x="444" y="535" type="line"/>
      <point x="441" y="536"/>
      <point x="433" y="536"/>
      <point x="422" y="536" type="qcurve" smooth="yes"/>
      <point x="377" y="536"/>
      <point x="286" y="479"/>
      <point x="248" y="426" type="qcurve"/>
      <point x="270" y="526" type="line"/>
      <point x="96" y="526" type="line"/>
    </contour>
  </outline>
</glyph>
<glyph name="s" format="2">
  <advance width="485"/>
  <unicode hex="0073"/>
  <outline>
    <contour>
      <point x="191" y="-10" type="qcurve" smooth="yes"/>
      <point x="247" y="-10"/>
      <point x="339" y="20"/>
      <point x="405" y="74"/>
      <point x="441" y="150"/>
      <point x="441" y="196" type="qcurve" smooth="yes"/>
      <point x="441" y="220"/>
      <point x="424" y="259"/>
      <point x="385" y="292"/>
      <point x="325" y="320"/>
      <point x="281" y="333" type="qcurve" smooth="yes"/>
      <point x="263" y="338"/>
      <point x="240" y="348"/>
      <point x="225" y="357"/>
      <point x="219" y="368"/>
      <point x="219" y="374" type="qcurve" smooth="yes"/>
      <point x="219" y="382"/>
      <point x="224" y="393"/>
      <point x="234" y="402"/>
      <point x="248" y="406"/>
      <point x="256" y="406" type="qcurve" smooth="yes"/>
      <point x="282" y="406"/>
      <point x="337" y="379"/>
      <point x="379" y="347" type="qcurve"/>
      <point x="474" y="461" type="line"/>
      <point x="431" y="507"/>
      <point x="339" y="537"/>
      <point x="283" y="537" type="qcurve" smooth="yes"/>
      <point x="232" y="537"/>
      <point x="142" y="504"/>
      <point x="74" y="447"/>
      <point x="35" y="370"/>
      <point x="35" y="326" type="qcurve" smooth="yes"/>
      <point x="35" y="303"/>
      <point x="53" y="267"/>
      <point x="92" y="237"/>
      <point x="152" y="209"/>
      <point x="195" y="195" type="qcurve" smooth="yes"/>
      <point x="211" y="190"/>
      <point x="233" y="180"/>
      <point x="246" y="169"/>
      <point x="251" y="159"/>
      <point x="251" y="153" type="qcurve" smooth="yes"/>
      <point x="251" y="146"/>
      <point x="247" y="135"/>
      <point x="239" y="127"/>
      <point x="225" y="123"/>
      <point x="215" y="123" type="qcurve" smooth="yes"/>
      <point x="180" y="123"/>
      <point x="101" y="159"/>
      <point x="61" y="192" type="qcurve"/>
      <point x="-27" y="78" type="line"/>
      <point x="8" y="35"/>
      <point x="125" y="-10"/>
    </contour>
  </outline>
</glyph>
<glyph name="v" format="2">
  <advance width="548"/>
  <unicode hex="0076"/>
  <outline>
    <contour>
      <point x="96" y="0" type="line"/>
      <point x="311" y="0" type="line"/>
      <point x="594" y="526" type="line"/>
      <point x="405" y="526" type="line"/>
      <point x="240" y="149" type="line"/>
      <point x="240" y="526" type="line"/>
      <point x="43" y="526" type="line"/>
    </contour>
  </outline>
</glyph>
<glyph name="y" format="2">
  <advance width="523"/>
  <unicode hex="0079"/>
  <outline>
    <contour>
      <point x="107" y="0" type="line"/>
      <point x="92" y="-27"/>
      <point x="62" y="-80"/>
      <point x="31" y="-133"/>
      <point x="-1" y="-186"/>
      <point x="-17" y="-213" type="qcurve"/>
      <point x="205" y="-213" type="line"/>
      <point x="569" y="526" type="line"/>
      <point x="392" y="526" type="line"/>
      <point x="245" y="161" type="line"/>
      <point x="245" y="526" type="line"/>
      <point x="40" y="526" type="line"/>
    </contour>
  </outline>
</glyph>
<glyph name="braceright" format="2">
  <advance width="364"/>
  <unicode hex="007D"/>
  <outline>
    <contour>
      <point x="164" y="590" type="line"/>
      <point x="131" y="436" type="line"/>
      <point x="129" y="431"/>
      <point x="129" y="422"/>
      <point x="129" y="417" type="qcurve" smooth="yes"/>
      <point x="129" y="398"/>
      <point x="145" y="371"/>
      <point x="154" y="360" type="qcurve"/>
      <point x="137" y="346"/>
      <point x="104" y="311"/>
      <point x="98" y="284" type="qcurve" smooth="yes"/>
      <point x="63" y="119" type="line"/>
      <point x="11" y="119" type="line"/>
      <point x="-21" y="-31" type="line"/>
      <point x="179" y="-31" type="line" smooth="yes"/>
      <point x="184" y="-31"/>
      <point x="204" y="-20"/>
      <point x="208" y="-1" type="qcurve" smooth="yes"/>
      <point x="254" y="219" type="line" smooth="yes"/>
      <point x="261" y="251"/>
      <point x="308" y="291"/>
      <point x="329" y="296" type="qcurve"/>
      <point x="357" y="426" type="line"/>
      <point x="339" y="426"/>
      <point x="312" y="462"/>
      <point x="312" y="486" type="qcurve" smooth="yes"/>
      <point x="312" y="490"/>
      <point x="313" y="497"/>
      <point x="314" y="501" type="qcurve" smooth="yes"/>
      <point x="359" y="710" type="line" smooth="yes"/>
      <point x="360" y="713"/>
      <point x="360" y="718"/>
      <point x="360" y="720" type="qcurve" smooth="yes"/>
      <point x="360" y="731"/>
      <point x="348" y="740"/>
      <point x="343" y="740" type="qcurve" smooth="yes"/>
      <point x="143" y="740" type="line"/>
      <point x="111" y="590" type="line"/>
    </contour>
  </outline>
</glyph>
<glyph name="exclamdown" format="2">
  <advance width="330"/>
  <unicode hex="00A1"/>
  <outline>
    <contour>
      <point x="315" y="416" type="qcurve" smooth="yes"/>
      <point x="320" y="439"/>
      <point x="311" y="480"/>
      <point x="287" y="511"/>
      <point x="249" y="529"/>
      <point x="226" y="529" type="qcurve" smooth="yes"/>
      <point x="203" y="529"/>
      <point x="158" y="511"/>
      <point x="120" y="480"/>
      <point x="94" y="439"/>
      <point x="89" y="416" type="qcurve" smooth="yes"/>
      <point x="84" y="393"/>
      <point x="93" y="352"/>
      <point x="117" y="321"/>
      <point x="155" y="303"/>
      <point x="178" y="303" type="qcurve" smooth="yes"/>
      <point x="201" y="303"/>
      <point x="246" y="321"/>
      <point x="284" y="352"/>
      <point x="310" y="393"/>
    </contour>
    <contour>
      <point x="94" y="219" type="line"/>
      <point x="11" y="-31" type="line"/>
      <point x="-24" y="-198" type="line"/>
      <point x="166" y="-198" type="line"/>
      <point x="201" y="-31" type="line"/>
      <point x="224" y="219" type="line"/>
    </contour>
  </outline>
</glyph>
<glyph name="cent" format="2">
  <advance width="599"/>
  <unicode hex="00A2"/>
  <outline>
    <contour>
      <point x="258" y="-120" type="line"/>
      <point x="282" y="-10" type="line"/>
      <point x="305" y="-10"/>
      <point x="370" y="8"/>
      <point x="439" y="43"/>
      <point x="505" y="97"/>
      <point x="529" y="133" type="qcurve"/>
      <point x="356" y="189" type="line"/>
      <point x="352" y="184"/>
      <point x="344" y="175"/>
      <point x="335" y="166"/>
      <point x="324" y="158"/>
      <point x="317" y="155" type="qcurve"/>
      <point x="363" y="370" type="line"/>
      <point x="370" y="368"/>
      <point x="386" y="349"/>
      <point x="388" y="337" type="qcurve"/>
      <point x="585" y="393" type="line"/>
      <point x="564" y="463"/>
      <point x="459" y="532"/>
      <point x="397" y="534" type="qcurve"/>
      <point x="421" y="645" type="line"/>
      <point x="342" y="645" type="line"/>
      <point x="318" y="534" type="line"/>
      <point x="246" y="521"/>
      <point x="137" y="458"/>
      <point x="63" y="371"/>
      <point x="25" y="267"/>
      <point x="25" y="213" type="qcurve" smooth="yes"/>
      <point x="25" y="172"/>
      <point x="49" y="95"/>
      <point x="95" y="34"/>
      <point x="161" y="-6"/>
      <point x="203" y="-9" type="qcurve"/>
      <point x="179" y="-120" type="line"/>
    </contour>
    <contour>
      <point x="222" y="226" type="qcurve" smooth="yes"/>
      <point x="222" y="246"/>
      <point x="231" y="287"/>
      <point x="248" y="324"/>
      <point x="269" y="353"/>
      <point x="281" y="361" type="qcurve"/>
      <point x="239" y="164" type="line"/>
      <point x="235" y="169"/>
      <point x="228" y="183"/>
      <point x="224" y="200"/>
      <point x="222" y="217"/>
    </contour>
  </outline>
</glyph>
<glyph name="sterling" format="2">
  <advance width="566"/>
  <unicode hex="00A3"/>
  <outline>
    <contour>
      <point x="49" y="248" type="line"/>
      <point x="447" y="248" type="line"/>
      <point x="477" y="388" type="line"/>
      <point x="78" y="388" type="line"/>
    </contour>
    <contour>
      <point x="19" y="-9" type="line"/>
      <point x="58" y="3"/>
      <point x="137" y="18"/>
      <point x="164" y="18" type="qcurve" smooth="yes"/>
      <point x="188" y="18"/>
      <point x="236" y="8"/>
      <point x="283" y="-5"/>
      <point x="329" y="-15"/>
      <point x="351" y="-15" type="qcurve" smooth="yes"/>
      <point x="380" y="-15"/>
      <point x="448" y="4"/>
      <point x="472" y="19" type="qcurve"/>
      <point x="456" y="159" type="line"/>
      <point x="438" y="152"/>
      <point x="411" y="146"/>
      <point x="395" y="146" type="qcurve" smooth="yes"/>
      <point x="380" y="146"/>
      <point x="350" y="151"/>
      <point x="320" y="156"/>
      <point x="291" y="161"/>
      <point x="276" y="161" type="qcurve" smooth="yes"/>
      <point x="260" y="161"/>
      <point x="224" y="154"/>
      <point x="198" y="146" type="qcurve"/>
      <point x="225" y="171"/>
      <point x="264" y="217"/>
      <point x="288" y="264"/>
      <point x="299" y="313"/>
      <point x="299" y="340" type="qcurve" smooth="yes"/>
      <point x="299" y="362"/>
      <point x="293" y="404"/>
      <point x="287" y="442"/>
      <point x="281" y="477"/>
      <point x="281" y="492" type="qcurve" smooth="yes"/>
      <point x="281" y="508"/>
      <point x="290" y="534"/>
      <point x="307" y="552"/>
      <point x="331" y="562"/>
      <point x="345" y="562" type="qcurve" smooth="yes"/>
      <point x="375" y="562"/>
      <point x="440" y="522"/>
      <point x="458" y="493" type="qcurve"/>
      <point x="578" y="610" type="line"/>
      <point x="547" y="660"/>
      <point x="442" y="715"/>
      <point x="378" y="715" type="qcurve" smooth="yes"/>
      <point x="327" y="715"/>
      <point x="232" y="681"/>
      <point x="160" y="622"/>
      <point x="116" y="542"/>
      <point x="116" y="495" type="qcurve" smooth="yes"/>
      <point x="116" y="474"/>
      <point x="122" y="431"/>
      <point x="128" y="386"/>
      <point x="134" y="343"/>
      <point x="134" y="322" type="qcurve" smooth="yes"/>
      <point x="134" y="293"/>
      <point x="112" y="234"/>
      <point x="77" y="182"/>
      <point x="33" y="139"/>
      <point x="10" y="125" type="qcurve"/>
    </contour>
  </outline>
</glyph>
<glyph name="currency" format="2">
  <advance width="586"/>
  <unicode hex="00A4"/>
  <outline>
    <contour>
      <point x="131" y="578" type="line"/>
      <point x="60" y="507" type="line"/>
      <point x="125" y="441" type="line"/>
      <point x="111" y="418"/>
      <point x="97" y="366"/>
      <point x="97" y="338" type="qcurve" smooth="yes"/>
      <point x="97" y="309"/>
      <point x="112" y="256"/>
      <point x="126" y="233" type="qcurve"/>
      <point x="60" y="167" type="line"/>
      <point x="126" y="101" type="line"/>
      <point x="198" y="169" type="line"/>
      <point x="220" y="158"/>
      <point x="272" y="147"/>
      <point x="303" y="147" type="qcurve" smooth="yes"/>
      <point x="333" y="147"/>
      <point x="384" y="157"/>
      <point x="405" y="168" type="qcurve"/>
      <point x="476" y="101" type="line"/>
      <point x="542" y="167" type="line"/>
      <point x="478" y="231" type="line"/>
      <point x="493" y="254"/>
      <point x="509" y="309"/>
      <point x="509" y="338" type="qcurve" smooth="yes"/>
      <point x="509" y="367"/>
      <point x="493" y="421"/>
      <point x="479" y="444" type="qcurve"/>
      <point x="542" y="507" type="line"/>
      <point x="471" y="578" type="line"/>
      <point x="403" y="509" type="line"/>
      <point x="382" y="518"/>
      <point x="332" y="529"/>
      <point x="303" y="529" type="qcurve" smooth="yes"/>
      <point x="273" y="529"/>
      <point x="222" y="518"/>
      <point x="200" y="507" type="qcurve"/>
    </contour>
    <contour>
      <point x="230" y="338" type="qcurve" smooth="yes"/>
      <point x="230" y="356"/>
      <point x="241" y="386"/>
      <point x="260" y="406"/>
      <point x="287" y="417"/>
      <point x="303" y="417" type="qcurve" smooth="yes"/>
      <point x="319" y="417"/>
      <point x="346" y="406"/>
      <point x="365" y="386"/>
      <point x="376" y="356"/>
      <point x="376" y="338" type="qcurve" smooth="yes"/>
      <point x="376" y="320"/>
      <point x="365" y="290"/>
      <point x="346" y="270"/>
      <point x="319" y="259"/>
      <point x="303" y="259" type="qcurve" smooth="yes"/>
      <point x="287" y="259"/>
      <point x="260" y="270"/>
      <point x="241" y="290"/>
      <point x="230" y="320"/>
    </contour>
  </outline>
</glyph>
<glyph name="section" format="2">
  <advance width="535"/>
  <unicode hex="00A7"/>
  <outline>
    <contour>
      <point x="457" y="232" type="qcurve"/>
      <point x="459" y="236"/>
      <point x="469" y="256"/>
      <point x="480" y="284"/>
      <point x="489" y="319"/>
      <point x="489" y="338" type="qcurve" smooth="yes"/>
      <point x="489" y="378"/>
      <point x="455" y="433"/>
      <point x="401" y="467"/>
      <point x="335" y="483"/>
      <point x="303" y="484" type="qcurve"/>
      <point x="292" y="485"/>
      <point x="274" y="492"/>
      <point x="274" y="506" type="qcurve" smooth="yes"/>
      <point x="274" y="516"/>
      <point x="280" y="531"/>
      <point x="291" y="542"/>
      <point x="308" y="547"/>
      <point x="319" y="547" type="qcurve" smooth="yes"/>
      <point x="333" y="547"/>
      <point x="353" y="539"/>
      <point x="367" y="526"/>
      <point x="376" y="509"/>
      <point x="379" y="500" type="qcurve"/>
      <point x="538" y="568" type="line"/>
      <point x="530" y="587"/>
      <point x="502" y="637"/>
      <point x="456" y="683"/>
      <point x="389" y="715"/>
      <point x="342" y="715" type="qcurve" smooth="yes"/>
      <point x="288" y="715"/>
      <point x="192" y="673"/>
      <point x="121" y="606"/>
      <point x="79" y="521"/>
      <point x="79" y="477" type="qcurve" smooth="yes"/>
      <point x="79" y="452"/>
      <point x="87" y="414"/>
      <point x="90" y="406" type="qcurve"/>
      <point x="89" y="401"/>
      <point x="80" y="386"/>
      <point x="69" y="363"/>
      <point x="61" y="329"/>
      <point x="61" y="305" type="qcurve" smooth="yes"/>
      <point x="61" y="275"/>
      <point x="81" y="221"/>
      <point x="123" y="180"/>
      <point x="188" y="154"/>
      <point x="233" y="150" type="qcurve"/>
      <point x="238" y="150"/>
      <point x="247" y="148"/>
      <point x="254" y="144"/>
      <point x="259" y="137"/>
      <point x="259" y="131" type="qcurve" smooth="yes"/>
      <point x="259" y="122"/>
      <point x="252" y="107"/>
      <point x="238" y="97"/>
      <point x="221" y="92"/>
      <point x="210" y="92" type="qcurve" smooth="yes"/>
      <point x="188" y="92"/>
      <point x="147" y="114"/>
      <point x="130" y="143" type="qcurve"/>
      <point x="-16" y="27" type="line"/>
      <point x="-10" y="14"/>
      <point x="22" y="-25"/>
      <point x="72" y="-62"/>
      <point x="139" y="-88"/>
      <point x="180" y="-88" type="qcurve" smooth="yes"/>
      <point x="219" y="-88"/>
      <point x="318" y="-61"/>
      <point x="405" y="1"/>
      <point x="464" y="102"/>
      <point x="464" y="176" type="qcurve" smooth="yes"/>
      <point x="464" y="194"/>
      <point x="460" y="224"/>
    </contour>
    <contour>
      <point x="243" y="307" type="qcurve" smooth="yes"/>
      <point x="243" y="317"/>
      <point x="251" y="333"/>
      <point x="256" y="337" type="qcurve"/>
      <point x="254" y="337"/>
      <point x="270" y="333"/>
      <point x="279" y="333" type="qcurve" smooth="yes"/>
      <point x="283" y="333"/>
      <point x="292" y="330"/>
      <point x="299" y="324"/>
      <point x="304" y="314"/>
      <point x="304" y="307" type="qcurve" smooth="yes"/>
      <point x="304" y="299"/>
      <point x="297" y="282"/>
      <point x="291" y="277" type="qcurve"/>
      <point x="286" y="279"/>
      <point x="269" y="281"/>
      <point x="254" y="286"/>
      <point x="243" y="296"/>
    </contour>
  </outline>
</glyph>
<glyph name="copyright" format="2">
  <advance width="862"/>
  <unicode hex="00A9"/>
  <outline>
    <contour>
      <point x="438" y="-7" type="qcurve" smooth="yes"/>
      <point x="522" y="-7"/>
      <point x="666" y="48"/>
      <point x="770" y="145"/>
      <point x="829" y="277"/>
      <point x="829" y="355" type="qcurve" smooth="yes"/>
      <point x="829" y="432"/>
      <point x="770" y="564"/>
      <point x="666" y="660"/>
      <point x="522" y="715"/>
      <point x="438" y="715" type="qcurve" smooth="yes"/>
      <point x="356" y="715"/>
      <point x="216" y="660"/>
      <point x="114" y="564"/>
      <point x="57" y="432"/>
      <point x="57" y="355" type="qcurve" smooth="yes"/>
      <point x="57" y="277"/>
      <point x="114" y="145"/>
      <point x="216" y="48"/>
      <point x="356" y="-7"/>
    </contour>
    <contour>
      <point x="438" y="57" type="qcurve" smooth="yes"/>
      <point x="371" y="57"/>
      <point x="257" y="103"/>
      <point x="174" y="184"/>
      <point x="127" y="293"/>
      <point x="127" y="355" type="qcurve" smooth="yes"/>
      <point x="127" y="417"/>
      <point x="174" y="524"/>
      <point x="258" y="605"/>
      <point x="372" y="651"/>
      <point x="438" y="651" type="qcurve" smooth="yes"/>
      <point x="507" y="651"/>
      <point x="625" y="605"/>
      <point x="710" y="524"/>
      <point x="759" y="417"/>
      <point x="759" y="355" type="qcurve" smooth="yes"/>
      <point x="759" y="289"/>
      <point x="709" y="179"/>
      <point x="623" y="101"/>
      <point x="506" y="57"/>
    </contour>
    <contour>
      <point x="448" y="111" type="qcurve" smooth="yes"/>
      <point x="494" y="111"/>
      <point x="571" y="132"/>
      <point x="633" y="170"/>
      <point x="680" y="223"/>
      <point x="695" y="254" type="qcurve"/>
      <point x="510" y="310" type="line"/>
      <point x="504" y="301"/>
      <point x="491" y="286"/>
      <point x="475" y="276"/>
      <point x="457" y="271"/>
      <point x="447" y="271" type="qcurve" smooth="yes"/>
      <point x="432" y="271"/>
      <point x="405" y="282"/>
      <point x="386" y="303"/>
      <point x="374" y="334"/>
      <point x="374" y="354" type="qcurve" smooth="yes"/>
      <point x="374" y="374"/>
      <point x="386" y="405"/>
      <point x="405" y="426"/>
      <point x="432" y="437"/>
      <point x="447" y="437" type="qcurve" smooth="yes"/>
      <point x="457" y="437"/>
      <point x="475" y="432"/>
      <point x="491" y="422"/>
      <point x="504" y="407"/>
      <point x="510" y="398" type="qcurve"/>
      <point x="695" y="454" type="line"/>
      <point x="664" y="517"/>
      <point x="540" y="597"/>
      <point x="448" y="597" type="qcurve" smooth="yes"/>
      <point x="383" y="597"/>
      <point x="282" y="557"/>
      <point x="214" y="490"/>
      <point x="179" y="402"/>
      <point x="179" y="354" type="qcurve" smooth="yes"/>
      <point x="179" y="306"/>
      <point x="214" y="218"/>
      <point x="282" y="151"/>
      <point x="383" y="111"/>
    </contour>
  </outline>
</glyph>
<glyph name="ordfeminine" format="2">
  <advance width="434"/>
  <unicode hex="00AA"/>
  <outline>
    <contour>
      <point x="155" y="333" type="qcurve" smooth="yes"/>
      <point x="187" y="333"/>
      <point x="249" y="366"/>
      <point x="278" y="398" type="qcurve"/>
      <point x="268" y="343" type="line"/>
      <point x="376" y="343" type="line"/>
      <point x="376" y="345"/>
      <point x="385" y="388"/>
      <point x="395" y="440"/>
      <point x="405" y="485"/>
      <point x="405" y="487" type="qcurve"/>
      <point x="420" y="558" type="line"/>
      <point x="422" y="570"/>
      <point x="425" y="592"/>
      <point x="425" y="603" type="qcurve" smooth="yes"/>
      <point x="425" y="659"/>
      <point x="354" y="715"/>
      <point x="285" y="715" type="qcurve" smooth="yes"/>
      <point x="241" y="715"/>
      <point x="162" y="692"/>
      <point x="124" y="668" type="qcurve"/>
      <point x="144" y="586" type="line"/>
      <point x="174" y="606"/>
      <point x="225" y="626"/>
      <point x="254" y="626" type="qcurve" smooth="yes"/>
      <point x="277" y="626"/>
      <point x="297" y="609"/>
      <point x="297" y="592" type="qcurve" smooth="yes"/>
      <point x="297" y="588"/>
      <point x="296" y="579"/>
      <point x="295" y="574" type="qcurve" smooth="yes"/>
      <point x="293" y="563" type="line"/>
      <point x="282" y="570"/>
      <point x="252" y="577"/>
      <point x="233" y="577" type="qcurve" smooth="yes"/>
      <point x="197" y="577"/>
      <point x="135" y="554"/>
      <point x="88" y="514"/>
      <point x="61" y="460"/>
      <point x="61" y="428" type="qcurve" smooth="yes"/>
      <point x="61" y="386"/>
      <point x="112" y="333"/>
    </contour>
    <contour>
      <point x="214" y="428" type="qcurve" smooth="yes"/>
      <point x="202" y="428"/>
      <point x="187" y="444"/>
      <point x="187" y="456" type="qcurve" smooth="yes"/>
      <point x="187" y="476"/>
      <point x="220" y="505"/>
      <point x="241" y="505" type="qcurve" smooth="yes"/>
      <point x="249" y="505"/>
      <point x="270" y="500"/>
      <point x="278" y="495" type="qcurve"/>
      <point x="272" y="468" type="line"/>
      <point x="270" y="461"/>
      <point x="257" y="446"/>
      <point x="240" y="435"/>
      <point x="221" y="428"/>
    </contour>
  </outline>
</glyph>
<glyph name="registered" format="2">
  <advance width="862"/>
  <unicode hex="00AE"/>
  <outline>
    <contour>
      <point x="440" y="-7" type="qcurve" smooth="yes"/>
      <point x="523" y="-7"/>
      <point x="666" y="48"/>
      <point x="770" y="145"/>
      <point x="829" y="277"/>
      <point x="829" y="355" type="qcurve" smooth="yes"/>
      <point x="829" y="432"/>
      <point x="770" y="564"/>
      <point x="666" y="660"/>
      <point x="523" y="715"/>
      <point x="440" y="715" type="qcurve" smooth="yes"/>
      <point x="357" y="715"/>
      <point x="216" y="660"/>
      <point x="114" y="564"/>
      <point x="57" y="432"/>
      <point x="57" y="355" type="qcurve" smooth="yes"/>
      <point x="57" y="277"/>
      <point x="114" y="145"/>
      <point x="216" y="48"/>
      <point x="357" y="-7"/>
    </contour>
    <contour>
      <point x="441" y="56" type="qcurve" smooth="yes"/>
      <point x="373" y="56"/>
      <point x="259" y="103"/>
      <point x="177" y="184"/>
      <point x="131" y="292"/>
      <point x="131" y="354" type="qcurve" smooth="yes"/>
      <point x="131" y="416"/>
      <point x="177" y="524"/>
      <point x="259" y="605"/>
      <point x="373" y="651"/>
      <point x="441" y="651" type="qcurve" smooth="yes"/>
      <point x="509" y="651"/>
      <point x="624" y="605"/>
      <point x="708" y="524"/>
      <point x="755" y="415"/>
      <point x="755" y="352" type="qcurve" smooth="yes"/>
      <point x="755" y="288"/>
      <point x="707" y="180"/>
      <point x="622" y="101"/>
      <point x="507" y="56"/>
    </contour>
    <contour>
      <point x="270" y="144" type="line"/>
      <point x="402" y="144" type="line"/>
      <point x="402" y="275" type="line"/>
      <point x="420" y="275" type="line"/>
      <point x="501" y="144" type="line"/>
      <point x="648" y="144" type="line"/>
      <point x="552" y="301" type="line"/>
      <point x="566" y="311"/>
      <point x="589" y="338"/>
      <point x="605" y="370"/>
      <point x="614" y="404"/>
      <point x="614" y="422" type="qcurve" smooth="yes"/>
      <point x="614" y="449"/>
      <point x="592" y="503"/>
      <point x="554" y="546"/>
      <point x="501" y="572"/>
      <point x="469" y="572" type="qcurve" smooth="yes"/>
      <point x="270" y="572" type="line"/>
    </contour>
    <contour>
      <point x="402" y="387" type="line"/>
      <point x="402" y="457" type="line"/>
      <point x="453" y="457" type="line" smooth="yes"/>
      <point x="458" y="457"/>
      <point x="469" y="455"/>
      <point x="478" y="447"/>
      <point x="484" y="434"/>
      <point x="484" y="422" type="qcurve" smooth="yes"/>
      <point x="484" y="412"/>
      <point x="479" y="398"/>
      <point x="471" y="390"/>
      <point x="461" y="387"/>
      <point x="455" y="387" type="qcurve" smooth="yes"/>
    </contour>
  </outline>
</glyph>
<glyph name="degree" format="2">
  <advance width="294"/>
  <unicode hex="00B0"/>
  <outline>
    <contour>
      <point x="184" y="486" type="qcurve" smooth="yes"/>
      <point x="214" y="486"/>
      <point x="267" y="508"/>
      <point x="306" y="547"/>
      <point x="329" y="600"/>
      <point x="329" y="631" type="qcurve" smooth="yes"/>
      <point x="329" y="672"/>
      <point x="279" y="724"/>
      <point x="235" y="724" type="qcurve" smooth="yes"/>
      <point x="204" y="724"/>
      <point x="151" y="699"/>
      <point x="113" y="658"/>
      <point x="91" y="605"/>
      <point x="91" y="577" type="qcurve" smooth="yes"/>
      <point x="91" y="535"/>
      <point x="140" y="486"/>
    </contour>
    <contour>
      <point x="203" y="573" type="qcurve" smooth="yes"/>
      <point x="191" y="573"/>
      <point x="179" y="589"/>
      <point x="179" y="600" type="qcurve" smooth="yes"/>
      <point x="179" y="614"/>
      <point x="202" y="636"/>
      <point x="216" y="636" type="qcurve" smooth="yes"/>
      <point x="224" y="636"/>
      <point x="239" y="626"/>
      <point x="239" y="612" type="qcurve" smooth="yes"/>
      <point x="239" y="597"/>
      <point x="216" y="573"/>
    </contour>
  </outline>
</glyph>
<glyph name="twosuperior" format="2">
  <advance width="427"/>
  <unicode hex="00B2"/>
  <outline>
    <contour>
      <point x="397" y="376" type="line"/>
      <point x="422" y="483" type="line"/>
      <point x="243" y="483" type="line"/>
      <point x="245" y="494"/>
      <point x="260" y="509"/>
      <point x="282" y="521"/>
      <point x="309" y="530"/>
      <point x="323" y="535" type="qcurve" smooth="yes"/>
      <point x="342" y="541"/>
      <point x="393" y="566"/>
      <point x="438" y="607"/>
      <point x="470" y="667"/>
      <point x="470" y="709" type="qcurve" smooth="yes"/>
      <point x="470" y="762"/>
      <point x="397" y="821"/>
      <point x="328" y="821" type="qcurve" smooth="yes"/>
      <point x="298" y="821"/>
      <point x="238" y="810"/>
      <point x="185" y="792"/>
      <point x="141" y="766"/>
      <point x="127" y="751" type="qcurve"/>
      <point x="175" y="671" type="line"/>
      <point x="186" y="681"/>
      <point x="214" y="700"/>
      <point x="244" y="715"/>
      <point x="278" y="724"/>
      <point x="295" y="724" type="qcurve" smooth="yes"/>
      <point x="318" y="724"/>
      <point x="347" y="702"/>
      <point x="347" y="682" type="qcurve" smooth="yes"/>
      <point x="347" y="662"/>
      <point x="321" y="632"/>
      <point x="280" y="609"/>
      <point x="230" y="589"/>
      <point x="206" y="578" type="qcurve" smooth="yes"/>
      <point x="165" y="559"/>
      <point x="110" y="521"/>
      <point x="73" y="474"/>
      <point x="49" y="416"/>
      <point x="40" y="376" type="qcurve"/>
    </contour>
  </outline>
</glyph>
<glyph name="threesuperior" format="2">
  <advance width="407"/>
  <unicode hex="00B3"/>
  <outline>
    <contour>
      <point x="201" y="369" type="qcurve" smooth="yes"/>
      <point x="240" y="369"/>
      <point x="315" y="385"/>
      <point x="373" y="421"/>
      <point x="409" y="479"/>
      <point x="409" y="520" type="qcurve" smooth="yes"/>
      <point x="409" y="554"/>
      <point x="382" y="606"/>
      <point x="355" y="611" type="qcurve"/>
      <point x="395" y="619"/>
      <point x="446" y="676"/>
      <point x="446" y="717" type="qcurve" smooth="yes"/>
      <point x="446" y="763"/>
      <point x="376" y="821"/>
      <point x="310" y="821" type="qcurve" smooth="yes"/>
      <point x="288" y="821"/>
      <point x="236" y="814"/>
      <point x="185" y="800"/>
      <point x="140" y="779"/>
      <point x="124" y="765" type="qcurve"/>
      <point x="168" y="683" type="line"/>
      <point x="188" y="699"/>
      <point x="242" y="725"/>
      <point x="277" y="725" type="qcurve" smooth="yes"/>
      <point x="288" y="725"/>
      <point x="317" y="715"/>
      <point x="317" y="695" type="qcurve" smooth="yes"/>
      <point x="317" y="685"/>
      <point x="311" y="669"/>
      <point x="292" y="658"/>
      <point x="258" y="653"/>
      <point x="230" y="653" type="qcurve" smooth="yes"/>
      <point x="208" y="653" type="line"/>
      <point x="187" y="557" type="line"/>
      <point x="210" y="557" type="line" smooth="yes"/>
      <point x="258" y="557"/>
      <point x="291" y="541"/>
      <point x="291" y="523" type="qcurve" smooth="yes"/>
      <point x="291" y="509"/>
      <point x="279" y="490"/>
      <point x="258" y="479"/>
      <point x="232" y="474"/>
      <point x="217" y="474" type="qcurve" smooth="yes"/>
      <point x="200" y="474"/>
      <point x="174" y="479"/>
      <point x="151" y="490"/>
      <point x="132" y="505"/>
      <point x="123" y="514" type="qcurve"/>
      <point x="53" y="440" type="line"/>
      <point x="64" y="403"/>
      <point x="147" y="369"/>
    </contour>
  </outline>
</glyph>
<glyph name="micro" format="2">
  <advance width="668"/>
  <unicode hex="00B5"/>
  <outline>
    <contour>
      <point x="-49" y="-213" type="line"/>
      <point x="141" y="-213" type="line"/>
      <point x="180" y="26" type="line"/>
      <point x="180" y="9"/>
      <point x="204" y="-10"/>
      <point x="226" y="-10" type="qcurve" smooth="yes"/>
      <point x="246" y="-10"/>
      <point x="289" y="11"/>
      <point x="328" y="40"/>
      <point x="357" y="71"/>
      <point x="363" y="82" type="qcurve"/>
      <point x="381" y="0" type="line"/>
      <point x="511" y="0" type="line"/>
      <point x="617" y="526" type="line"/>
      <point x="427" y="526" type="line"/>
      <point x="359" y="204" type="line"/>
      <point x="344" y="187"/>
      <point x="319" y="166"/>
      <point x="297" y="154"/>
      <point x="279" y="150"/>
      <point x="272" y="150" type="qcurve" smooth="yes"/>
      <point x="251" y="150"/>
      <point x="230" y="173"/>
      <point x="230" y="195" type="qcurve" smooth="yes"/>
      <point x="230" y="201"/>
      <point x="232" y="215"/>
      <point x="234" y="223" type="qcurve"/>
      <point x="298" y="526" type="line"/>
      <point x="108" y="526" type="line"/>
    </contour>
  </outline>
</glyph>
<glyph name="paragraph" format="2">
  <advance width="683"/>
  <unicode hex="00B6"/>
  <outline>
    <contour>
      <point x="60" y="377" type="qcurve" smooth="yes"/>
      <point x="60" y="335"/>
      <point x="79" y="265"/>
      <point x="116" y="216"/>
      <point x="169" y="188"/>
      <point x="202" y="188" type="qcurve"/>
      <point x="145" y="-80" type="line"/>
      <point x="305" y="-80" type="line"/>
      <point x="362" y="188" type="line"/>
      <point x="388" y="188" type="line"/>
      <point x="331" y="-80" type="line"/>
      <point x="491" y="-80" type="line"/>
      <point x="629" y="570" type="line"/>
      <point x="696" y="570" type="line"/>
      <point x="726" y="710" type="line"/>
      <point x="394" y="710" type="line" smooth="yes"/>
      <point x="317" y="710"/>
      <point x="193" y="663"/>
      <point x="106" y="576"/>
      <point x="60" y="453"/>
    </contour>
    <contour>
      <point x="218" y="387" type="qcurve" smooth="yes"/>
      <point x="218" y="419"/>
      <point x="231" y="483"/>
      <point x="251" y="534"/>
      <point x="274" y="567"/>
      <point x="284" y="570" type="qcurve"/>
      <point x="232" y="328" type="line"/>
      <point x="229" y="329"/>
      <point x="223" y="339"/>
      <point x="220" y="355"/>
      <point x="218" y="375"/>
    </contour>
    <contour>
      <point x="418" y="328" type="line"/>
      <point x="392" y="328" type="line"/>
      <point x="443" y="570" type="line"/>
      <point x="470" y="570" type="line"/>
    </contour>
  </outline>
</glyph>
<glyph name="ordmasculine" format="2">
  <advance width="424"/>
  <unicode hex="00BA"/>
  <outline>
    <contour>
      <point x="218" y="333" type="qcurve" smooth="yes"/>
      <point x="272" y="333"/>
      <point x="356" y="373"/>
      <point x="415" y="438"/>
      <point x="446" y="522"/>
      <point x="446" y="565" type="qcurve" smooth="yes"/>
      <point x="446" y="596"/>
      <point x="428" y="650"/>
      <point x="392" y="691"/>
      <point x="337" y="715"/>
      <point x="299" y="715" type="qcurve" smooth="yes"/>
      <point x="246" y="715"/>
      <point x="161" y="675"/>
      <point x="102" y="611"/>
      <point x="71" y="528"/>
      <point x="71" y="484" type="qcurve" smooth="yes"/>
      <point x="71" y="453"/>
      <point x="89" y="398"/>
      <point x="125" y="357"/>
      <point x="181" y="333"/>
    </contour>
    <contour>
      <point x="242" y="445" type="qcurve" smooth="yes"/>
      <point x="233" y="445"/>
      <point x="220" y="453"/>
      <point x="210" y="467"/>
      <point x="205" y="487"/>
      <point x="205" y="500" type="qcurve" smooth="yes"/>
      <point x="205" y="522"/>
      <point x="216" y="559"/>
      <point x="235" y="587"/>
      <point x="261" y="603"/>
      <point x="275" y="603" type="qcurve" smooth="yes"/>
      <point x="284" y="603"/>
      <point x="298" y="595"/>
      <point x="307" y="581"/>
      <point x="312" y="561"/>
      <point x="312" y="548" type="qcurve" smooth="yes"/>
      <point x="312" y="526"/>
      <point x="301" y="489"/>
      <point x="282" y="461"/>
      <point x="256" y="445"/>
    </contour>
  </outline>
</glyph>
<glyph name="onehalf" format="2">
  <advance width="970"/>
  <unicode hex="00BD"/>
  <outline>
    <contour>
      <point x="248" y="395" type="line"/>
      <point x="320" y="731" type="line"/>
      <point x="210" y="731" type="line"/>
      <point x="210" y="730"/>
      <point x="189" y="712"/>
      <point x="159" y="690"/>
      <point x="124" y="672"/>
      <point x="109" y="672" type="qcurve"/>
      <point x="86" y="563" type="line"/>
      <point x="97" y="563"/>
      <point x="126" y="574"/>
      <point x="154" y="591"/>
      <point x="179" y="609"/>
      <point x="186" y="616" type="qcurve"/>
      <point x="139" y="395" type="line"/>
      <point x="67" y="395" type="line"/>
      <point x="44" y="288" type="line"/>
      <point x="288" y="288" type="line"/>
      <point x="311" y="395" type="line"/>
    </contour>
    <contour>
      <point x="156" y="-10" type="line"/>
      <point x="478" y="337" type="line"/>
      <point x="801" y="646" type="line"/>
      <point x="734" y="721" type="line"/>
      <point x="426" y="384" type="line"/>
      <point x="89" y="65" type="line"/>
    </contour>
    <contour>
      <point x="867" y="-1" type="line"/>
      <point x="891" y="106" type="line"/>
      <point x="719" y="106" type="line"/>
      <point x="721" y="117"/>
      <point x="735" y="132"/>
      <point x="756" y="144"/>
      <point x="782" y="153"/>
      <point x="796" y="158" type="qcurve" smooth="yes"/>
      <point x="814" y="164"/>
      <point x="863" y="189"/>
      <point x="907" y="230"/>
      <point x="938" y="290"/>
      <point x="938" y="332" type="qcurve" smooth="yes"/>
      <point x="938" y="385"/>
      <point x="868" y="444"/>
      <point x="801" y="444" type="qcurve" smooth="yes"/>
      <point x="772" y="444"/>
      <point x="714" y="433"/>
      <point x="663" y="415"/>
      <point x="621" y="389"/>
      <point x="607" y="374" type="qcurve"/>
      <point x="653" y="294" type="line"/>
      <point x="664" y="304"/>
      <point x="690" y="323"/>
      <point x="720" y="338"/>
      <point x="752" y="347"/>
      <point x="769" y="347" type="qcurve" smooth="yes"/>
      <point x="791" y="347"/>
      <point x="819" y="325"/>
      <point x="819" y="305" type="qcurve" smooth="yes"/>
      <point x="819" y="285"/>
      <point x="794" y="255"/>
      <point x="754" y="232"/>
      <point x="706" y="212"/>
      <point x="683" y="201" type="qcurve" smooth="yes"/>
      <point x="643" y="182"/>
      <point x="590" y="144"/>
      <point x="555" y="97"/>
      <point x="532" y="39"/>
      <point x="523" y="-1" type="qcurve"/>
    </contour>
  </outline>
</glyph>
<glyph name="questiondown" format="2">
  <advance width="480"/>
  <unicode hex="00BF"/>
  <outline>
    <contour>
      <point x="292" y="260" type="line"/>
      <point x="275" y="244"/>
      <point x="249" y="229"/>
      <point x="216" y="217" type="curve" smooth="yes"/>
      <point x="137" y="189"/>
      <point x="79" y="157"/>
      <point x="38" y="119" type="curve" smooth="yes"/>
      <point x="2" y="85"/>
      <point x="-20" y="48"/>
      <point x="-29" y="4" type="curve" smooth="yes"/>
      <point x="-55" y="-120"/>
      <point x="13" y="-200"/>
      <point x="141" y="-200" type="curve" smooth="yes"/>
      <point x="234" y="-200"/>
      <point x="323" y="-151"/>
      <point x="374" y="-71" type="curve"/>
      <point x="274" y="15" type="line"/>
      <point x="243" y="-15"/>
      <point x="226" y="-47"/>
      <point x="181" y="-47" type="curve" smooth="yes"/>
      <point x="148" y="-47"/>
      <point x="126" y="-25"/>
      <point x="132" y="3" type="curve" smooth="yes"/>
      <point x="136" y="23"/>
      <point x="158" y="44"/>
      <point x="204" y="72" type="curve" smooth="yes"/>
      <point x="241" y="94"/>
      <point x="284" y="112"/>
      <point x="304" y="125" type="curve" smooth="yes"/>
      <point x="340" y="149"/>
      <point x="357" y="170"/>
      <point x="363" y="197" type="curve" smooth="yes"/>
      <point x="368" y="221"/>
      <point x="356" y="242"/>
      <point x="326" y="260" type="curve"/>
    </contour>
    <contour>
      <point x="435" y="442" type="curve" smooth="yes"/>
      <point x="446" y="494"/>
      <point x="414" y="536"/>
      <point x="363" y="536" type="curve" smooth="yes"/>
      <point x="312" y="536"/>
      <point x="262" y="494"/>
      <point x="251" y="442" type="curve" smooth="yes"/>
      <point x="240" y="390"/>
      <point x="272" y="348"/>
      <point x="323" y="348" type="curve" smooth="yes"/>
      <point x="374" y="348"/>
      <point x="424" y="390"/>
    </contour>
  </outline>
</glyph>
<glyph name="Idieresis" format="2">
  <advance width="317"/>
  <unicode hex="00CF"/>
  <outline>
    <contour>
      <point x="-3" y="0" type="line"/>
      <point x="192" y="0" type="line"/>
      <point x="343" y="710" type="line"/>
      <point x="148" y="710" type="line"/>
    </contour>
    <contour>
      <point x="283" y="835" type="qcurve" smooth="yes"/>
      <point x="275" y="796"/>
      <point x="301" y="741"/>
      <point x="326" y="741" type="qcurve" smooth="yes"/>
      <point x="352" y="741"/>
      <point x="401" y="796"/>
      <point x="409" y="835" type="qcurve" smooth="yes"/>
      <point x="417" y="874"/>
      <point x="392" y="929"/>
      <point x="366" y="929" type="qcurve" smooth="yes"/>
      <point x="340" y="929"/>
      <point x="291" y="874"/>
    </contour>
    <contour>
      <point x="128" y="835" type="qcurve" smooth="yes"/>
      <point x="120" y="796"/>
      <point x="145" y="741"/>
      <point x="171" y="741" type="qcurve" smooth="yes"/>
      <point x="197" y="741"/>
      <point x="246" y="796"/>
      <point x="254" y="835" type="qcurve" smooth="yes"/>
      <point x="262" y="874"/>
      <point x="237" y="929"/>
      <point x="211" y="929" type="qcurve" smooth="yes"/>
      <point x="185" y="929"/>
      <point x="136" y="874"/>
    </contour>
  </outline>
</glyph>
<glyph name="Eth" format="2">
  <advance width="696"/>
  <unicode hex="00D0"/>
  <outline>
    <contour>
      <point x="28" y="287" type="line"/>
      <point x="360" y="287" type="line"/>
      <point x="390" y="427" type="line"/>
      <point x="57" y="427" type="line"/>
    </contour>
    <contour>
      <point x="0" y="0" type="line"/>
      <point x="262" y="0" type="line" smooth="yes"/>
      <point x="353" y="0"/>
      <point x="509" y="65"/>
      <point x="624" y="181"/>
      <point x="689" y="339"/>
      <point x="689" y="433" type="qcurve" smooth="yes"/>
      <point x="689" y="491"/>
      <point x="656" y="592"/>
      <point x="587" y="667"/>
      <point x="484" y="710"/>
      <point x="413" y="710" type="qcurve" smooth="yes"/>
      <point x="151" y="710" type="line"/>
    </contour>
    <contour>
      <point x="231" y="170" type="line"/>
      <point x="310" y="540" type="line"/>
      <point x="377" y="540" type="line" smooth="yes"/>
      <point x="404" y="540"/>
      <point x="445" y="521"/>
      <point x="474" y="485"/>
      <point x="488" y="435"/>
      <point x="488" y="405" type="qcurve" smooth="yes"/>
      <point x="488" y="358"/>
      <point x="460" y="273"/>
      <point x="410" y="208"/>
      <point x="340" y="170"/>
      <point x="298" y="170" type="qcurve" smooth="yes"/>
    </contour>
  </outline>
</glyph>
<glyph name="Thorn" format="2">
  <advance width="585"/>
  <unicode hex="00DE"/>
  <outline>
    <contour>
      <point x="-3" y="0" type="line"/>
      <point x="192" y="0" type="line"/>
      <point x="213" y="101" type="line"/>
      <point x="301" y="101" type="line" smooth="yes"/>
      <point x="359" y="101"/>
      <point x="461" y="151"/>
      <point x="538" y="233"/>
      <point x="583" y="336"/>
      <point x="583" y="388" type="qcurve" smooth="yes"/>
      <point x="583" y="427"/>
      <point x="558" y="501"/>
      <point x="511" y="558"/>
      <point x="443" y="592"/>
      <point x="400" y="592" type="qcurve" smooth="yes"/>
      <point x="318" y="592" type="line"/>
      <point x="343" y="710" type="line"/>
      <point x="148" y="710" type="line"/>
    </contour>
    <contour>
      <point x="250" y="271" type="line"/>
      <point x="282" y="422" type="line"/>
      <point x="354" y="422" type="line" smooth="yes"/>
      <point x="360" y="422"/>
      <point x="372" y="415"/>
      <point x="381" y="401"/>
      <point x="386" y="381"/>
      <point x="386" y="368" type="qcurve" smooth="yes"/>
      <point x="386" y="347"/>
      <point x="374" y="312"/>
      <point x="357" y="286"/>
      <point x="336" y="271"/>
      <point x="327" y="271" type="qcurve" smooth="yes"/>
    </contour>
  </outline>
</glyph>
<glyph name="germandbls" format="2">
  <advance width="546"/>
  <unicode hex="00DF"/>
  <outline>
    <contour>
      <point x="182" y="-6" type="line"/>
      <point x="236" y="-6"/>
      <point x="352" y="18"/>
      <point x="448" y="78"/>
      <point x="511" y="180"/>
      <point x="511" y="258" type="qcurve" smooth="yes"/>
      <point x="511" y="311"/>
      <point x="469" y="386"/>
      <point x="431" y="403" type="qcurve"/>
      <point x="448" y="412"/>
      <point x="484" y="446"/>
      <point x="513" y="493"/>
      <point x="531" y="548"/>
      <point x="531" y="578" type="qcurve" smooth="yes"/>
      <point x="531" y="643"/>
      <point x="441" y="714"/>
      <point x="367" y="714" type="qcurve" smooth="yes"/>
      <point x="318" y="714"/>
      <point x="228" y="686"/>
      <point x="155" y="637"/>
      <point x="105" y="569"/>
      <point x="96" y="529" type="qcurve" smooth="yes"/>
      <point x="-16" y="0" type="line"/>
      <point x="164" y="0" type="line"/>
      <point x="269" y="494" type="line" smooth="yes"/>
      <point x="272" y="509"/>
      <point x="280" y="531"/>
      <point x="290" y="546"/>
      <point x="304" y="554"/>
      <point x="313" y="554" type="qcurve" smooth="yes"/>
      <point x="325" y="554"/>
      <point x="341" y="537"/>
      <point x="341" y="522" type="qcurve" smooth="yes"/>
      <point x="341" y="516"/>
      <point x="338" y="499"/>
      <point x="329" y="484"/>
      <point x="313" y="473"/>
      <point x="300" y="473" type="qcurve" smooth="yes"/>
      <point x="280" y="473" type="line"/>
      <point x="244" y="303" type="line"/>
      <point x="266" y="303" type="line" smooth="yes"/>
      <point x="271" y="303"/>
      <point x="287" y="297"/>
      <point x="302" y="284"/>
      <point x="312" y="264"/>
      <point x="312" y="250" type="qcurve" smooth="yes"/>
      <point x="312" y="231"/>
      <point x="296" y="200"/>
      <point x="270" y="179"/>
      <point x="237" y="168"/>
      <point x="219" y="168" type="qcurve"/>
    </contour>
  </outline>
</glyph>
<glyph name="ae" format="2">
  <advance width="942"/>
  <unicode hex="00E6"/>
  <outline>
    <contour>
      <point x="193" y="-10" type="qcurve" smooth="yes"/>
      <point x="241" y="-10"/>
      <point x="312" y="29"/>
      <point x="341" y="69" type="qcurve"/>
      <point x="326" y="0" type="line"/>
      <point x="465" y="0" type="line"/>
      <point x="496" y="162" type="line"/>
      <point x="491" y="263" type="line"/>
      <point x="540" y="352" type="line"/>
      <point x="575" y="518" type="line"/>
      <point x="435" y="518" type="line"/>
      <point x="420" y="448" type="line"/>
      <point x="408" y="490"/>
      <point x="339" y="536"/>
      <point x="290" y="536" type="qcurve" smooth="yes"/>
      <point x="234" y="536"/>
      <point x="131" y="483"/>
      <point x="53" y="391"/>
      <point x="7" y="271"/>
      <point x="7" y="203" type="qcurve" smooth="yes"/>
      <point x="7" y="156"/>
      <point x="33" y="77"/>
      <point x="81" y="21"/>
      <point x="150" y="-10"/>
    </contour>
    <contour>
      <point x="278" y="150" type="qcurve" smooth="yes"/>
      <point x="262" y="150"/>
      <point x="235" y="162"/>
      <point x="217" y="184"/>
      <point x="207" y="215"/>
      <point x="207" y="234" type="qcurve" smooth="yes"/>
      <point x="207" y="261"/>
      <point x="226" y="313"/>
      <point x="258" y="352"/>
      <point x="297" y="376"/>
      <point x="318" y="376" type="qcurve" smooth="yes"/>
      <point x="331" y="376"/>
      <point x="355" y="365"/>
      <point x="373" y="345"/>
      <point x="386" y="316"/>
      <point x="389" y="298" type="qcurve"/>
      <point x="369" y="204" type="line"/>
      <point x="357" y="191"/>
      <point x="335" y="170"/>
      <point x="313" y="157"/>
      <point x="290" y="150"/>
    </contour>
    <contour>
      <point x="609" y="-10" type="qcurve" smooth="yes"/>
      <point x="650" y="-10"/>
      <point x="732" y="10"/>
      <point x="807" y="48"/>
      <point x="870" y="100"/>
      <point x="892" y="132" type="qcurve"/>
      <point x="743" y="180" type="line"/>
      <point x="735" y="167"/>
      <point x="714" y="147"/>
      <point x="689" y="133"/>
      <point x="661" y="126"/>
      <point x="645" y="126" type="qcurve" smooth="yes"/>
      <point x="628" y="126"/>
      <point x="603" y="135"/>
      <point x="588" y="153"/>
      <point x="581" y="182"/>
      <point x="581" y="203" type="qcurve" smooth="yes"/>
      <point x="581" y="244"/>
      <point x="599" y="316"/>
      <point x="631" y="370"/>
      <point x="672" y="401"/>
      <point x="696" y="401" type="qcurve" smooth="yes"/>
      <point x="707" y="401"/>
      <point x="726" y="395"/>
      <point x="740" y="385"/>
      <point x="747" y="371"/>
      <point x="747" y="362" type="qcurve" smooth="yes"/>
      <point x="747" y="350"/>
      <point x="733" y="333"/>
      <point x="700" y="322"/>
      <point x="647" y="318"/>
      <point x="609" y="318" type="qcurve" smooth="yes"/>
      <point x="578" y="318"/>
      <point x="525" y="321"/>
      <point x="506" y="324" type="qcurve"/>
      <point x="482" y="211" type="line"/>
      <point x="510" y="207"/>
      <point x="578" y="204"/>
      <point x="610" y="204" type="qcurve" smooth="yes"/>
      <point x="770" y="204"/>
      <point x="933" y="294"/>
      <point x="933" y="383" type="qcurve" smooth="yes"/>
      <point x="933" y="419"/>
      <point x="905" y="476"/>
      <point x="853" y="515"/>
      <point x="778" y="536"/>
      <point x="730" y="536" type="qcurve" smooth="yes"/>
      <point x="658" y="536"/>
      <point x="545" y="486"/>
      <point x="469" y="398"/>
      <point x="429" y="281"/>
      <point x="429" y="213" type="qcurve" smooth="yes"/>
      <point x="429" y="162"/>
      <point x="447" y="80"/>
      <point x="489" y="22"/>
      <point x="558" y="-10"/>
    </contour>
  </outline>
</glyph>
<glyph name="idieresis" format="2">
  <advance width="286"/>
  <unicode hex="00EF"/>
  <outline>
    <contour>
      <point x="76" y="651" type="qcurve" smooth="yes"/>
      <point x="68" y="612"/>
      <point x="93" y="557"/>
      <point x="119" y="557" type="qcurve" smooth="yes"/>
      <point x="145" y="557"/>
      <point x="194" y="612"/>
      <point x="202" y="651" type="qcurve" smooth="yes"/>
      <point x="210" y="690"/>
      <point x="185" y="745"/>
      <point x="159" y="745" type="qcurve" smooth="yes"/>
      <point x="133" y="745"/>
      <point x="84" y="690"/>
    </contour>
    <contour>
      <point x="231" y="651" type="qcurve" smooth="yes"/>
      <point x="223" y="612"/>
      <point x="248" y="557"/>
      <point x="274" y="557" type="qcurve" smooth="yes"/>
      <point x="300" y="557"/>
      <point x="349" y="612"/>
      <point x="357" y="651" type="qcurve" smooth="yes"/>
      <point x="365" y="690"/>
      <point x="340" y="745"/>
      <point x="314" y="745" type="qcurve" smooth="yes"/>
      <point x="288" y="745"/>
      <point x="239" y="690"/>
    </contour>
    <contour>
      <point x="-16" y="0" type="line"/>
      <point x="174" y="0" type="line"/>
      <point x="286" y="526" type="line"/>
      <point x="96" y="526" type="line"/>
    </contour>
  </outline>
</glyph>
<glyph name="eth" format="2">
  <advance width="603"/>
  <unicode hex="00F0"/>
  <outline>
    <contour>
      <point x="585" y="379" type="qcurve" smooth="yes"/>
      <point x="585" y="436"/>
      <point x="562" y="546"/>
      <point x="518" y="639"/>
      <point x="458" y="711"/>
      <point x="420" y="730" type="qcurve"/>
      <point x="192" y="730" type="line"/>
      <point x="235" y="704"/>
      <point x="304" y="649"/>
      <point x="355" y="589"/>
      <point x="389" y="525"/>
      <point x="398" y="489" type="qcurve" smooth="yes"/>
      <point x="402" y="474"/>
      <point x="406" y="442"/>
      <point x="407" y="425" type="qcurve"/>
      <point x="384" y="447"/>
      <point x="321" y="471"/>
      <point x="286" y="471" type="qcurve" smooth="yes"/>
      <point x="231" y="471"/>
      <point x="129" y="426"/>
      <point x="51" y="350"/>
      <point x="4" y="248"/>
      <point x="4" y="191" type="qcurve" smooth="yes"/>
      <point x="4" y="147"/>
      <point x="36" y="73"/>
      <point x="96" y="20"/>
      <point x="181" y="-10"/>
      <point x="234" y="-10" type="qcurve" smooth="yes"/>
      <point x="314" y="-10"/>
      <point x="443" y="46"/>
      <point x="535" y="148"/>
      <point x="585" y="291"/>
    </contour>
    <contour>
      <point x="202" y="216" type="qcurve" smooth="yes"/>
      <point x="202" y="239"/>
      <point x="217" y="277"/>
      <point x="244" y="304"/>
      <point x="282" y="320"/>
      <point x="304" y="320" type="qcurve" smooth="yes"/>
      <point x="320" y="320"/>
      <point x="344" y="311"/>
      <point x="361" y="293"/>
      <point x="369" y="269"/>
      <point x="369" y="254" type="qcurve" smooth="yes"/>
      <point x="369" y="232"/>
      <point x="354" y="193"/>
      <point x="327" y="166"/>
      <point x="290" y="150"/>
      <point x="268" y="150" type="qcurve" smooth="yes"/>
      <point x="252" y="150"/>
      <point x="228" y="159"/>
      <point x="211" y="177"/>
      <point x="202" y="201"/>
    </contour>
    <contour>
      <point x="568" y="712" type="line"/>
      <point x="436" y="648" type="line"/>
      <point x="379" y="634" type="line"/>
      <point x="268" y="581" type="line"/>
      <point x="305" y="510" type="line"/>
      <point x="417" y="563" type="line"/>
      <point x="478" y="580" type="line"/>
      <point x="605" y="641" type="line"/>
    </contour>
  </outline>
</glyph>
<glyph name="divide" format="2">
  <advance width="485"/>
  <unicode hex="00F7"/>
  <outline>
    <contour>
      <point x="445" y="235" type="line"/>
      <point x="445" y="385" type="line"/>
      <point x="41" y="385" type="line"/>
      <point x="41" y="235" type="line"/>
    </contour>
    <contour>
      <point x="150" y="94" type="qcurve" smooth="yes"/>
      <point x="150" y="55"/>
      <point x="205" y="0"/>
      <point x="244" y="0" type="qcurve" smooth="yes"/>
      <point x="283" y="0"/>
      <point x="338" y="55"/>
      <point x="338" y="94" type="qcurve" smooth="yes"/>
      <point x="338" y="133"/>
      <point x="283" y="188"/>
      <point x="244" y="188" type="qcurve" smooth="yes"/>
      <point x="205" y="188"/>
      <point x="150" y="133"/>
    </contour>
    <contour>
      <point x="150" y="526" type="qcurve" smooth="yes"/>
      <point x="150" y="487"/>
      <point x="205" y="432"/>
      <point x="244" y="432" type="qcurve" smooth="yes"/>
      <point x="283" y="432"/>
      <point x="338" y="487"/>
      <point x="338" y="526" type="qcurve" smooth="yes"/>
      <point x="338" y="565"/>
      <point x="283" y="620"/>
      <point x="244" y="620" type="qcurve" smooth="yes"/>
      <point x="205" y="620"/>
      <point x="150" y="565"/>
    </contour>
  </outline>
</glyph>
<glyph name="oslash" format="2">
  <advance width="596"/>
  <unicode hex="00F8"/>
  <outline>
    <contour>
      <point x="232" y="-10" type="qcurve" smooth="yes"/>
      <point x="311" y="-10"/>
      <point x="437" y="46"/>
      <point x="526" y="138"/>
      <point x="573" y="256"/>
      <point x="573" y="317" type="qcurve" smooth="yes"/>
      <point x="573" y="362"/>
      <point x="546" y="441"/>
      <point x="491" y="501"/>
      <point x="406" y="536"/>
      <point x="348" y="536" type="qcurve" smooth="yes"/>
      <point x="269" y="536"/>
      <point x="143" y="480"/>
      <point x="54" y="388"/>
      <point x="7" y="271"/>
      <point x="7" y="209" type="qcurve" smooth="yes"/>
      <point x="7" y="165"/>
      <point x="34" y="85"/>
      <point x="90" y="25"/>
      <point x="175" y="-10"/>
    </contour>
    <contour>
      <point x="266" y="150" type="qcurve" smooth="yes"/>
      <point x="252" y="150"/>
      <point x="229" y="161"/>
      <point x="213" y="182"/>
      <point x="205" y="213"/>
      <point x="205" y="232" type="qcurve" smooth="yes"/>
      <point x="205" y="263"/>
      <point x="222" y="316"/>
      <point x="252" y="354"/>
      <point x="292" y="376"/>
      <point x="314" y="376" type="qcurve" smooth="yes"/>
      <point x="328" y="376"/>
      <point x="351" y="365"/>
      <point x="367" y="344"/>
      <point x="376" y="313"/>
      <point x="376" y="294" type="qcurve" smooth="yes"/>
      <point x="376" y="263"/>
      <point x="358" y="210"/>
      <point x="328" y="172"/>
      <point x="288" y="150"/>
    </contour>
    <contour>
      <point x="-52" y="-6" type="line"/>
      <point x="47" y="-6" type="line"/>
      <point x="167" y="104" type="line"/>
      <point x="127" y="158" type="line"/>
    </contour>
    <contour>
      <point x="180" y="121" type="line"/>
      <point x="453" y="381" type="line"/>
      <point x="405" y="418" type="line"/>
      <point x="144" y="169" type="line"/>
    </contour>
    <contour>
      <point x="471" y="393" type="line"/>
      <point x="624" y="532" type="line"/>
      <point x="523" y="532" type="line"/>
      <point x="418" y="435" type="line"/>
    </contour>
  </outline>
</glyph>
<glyph name="thorn" format="2">
  <advance width="626"/>
  <unicode hex="00FE"/>
  <outline>
    <contour>
      <point x="128" y="-213" type="line"/>
      <point x="190" y="78" type="line"/>
      <point x="196" y="57"/>
      <point x="219" y="24"/>
      <point x="253" y="1"/>
      <point x="297" y="-10"/>
      <point x="324" y="-10" type="qcurve" smooth="yes"/>
      <point x="378" y="-10"/>
      <point x="479" y="44"/>
      <point x="557" y="135"/>
      <point x="603" y="257"/>
      <point x="603" y="324" type="qcurve" smooth="yes"/>
      <point x="603" y="370"/>
      <point x="578" y="448"/>
      <point x="531" y="504"/>
      <point x="464" y="536"/>
      <point x="422" y="536" type="qcurve" smooth="yes"/>
      <point x="400" y="536"/>
      <point x="361" y="529"/>
      <point x="326" y="516"/>
      <point x="295" y="497"/>
      <point x="281" y="485" type="qcurve"/>
      <point x="329" y="710" type="line"/>
      <point x="134" y="710" type="line"/>
      <point x="-62" y="-213" type="line"/>
    </contour>
    <contour>
      <point x="292" y="150" type="qcurve" smooth="yes"/>
      <point x="279" y="150"/>
      <point x="256" y="162"/>
      <point x="237" y="184"/>
      <point x="225" y="214"/>
      <point x="222" y="231" type="qcurve"/>
      <point x="242" y="322" type="line"/>
      <point x="254" y="336"/>
      <point x="276" y="356"/>
      <point x="298" y="369"/>
      <point x="320" y="376"/>
      <point x="332" y="376" type="qcurve" smooth="yes"/>
      <point x="349" y="376"/>
      <point x="376" y="364"/>
      <point x="394" y="342"/>
      <point x="404" y="312"/>
      <point x="404" y="293" type="qcurve" smooth="yes"/>
      <point x="404" y="265"/>
      <point x="385" y="213"/>
      <point x="353" y="174"/>
      <point x="313" y="150"/>
    </contour>
  </outline>
</glyph>
<glyph name="Lslash" format="2">
  <advance width="573"/>
  <unicode hex="0141"/>
  <outline>
    <contour>
      <point x="17" y="252" type="line"/>
      <point x="396" y="426" type="line"/>
      <point x="375" y="527" type="line"/>
      <point x="-4" y="353" type="line"/>
    </contour>
    <contour>
      <point x="-3" y="0" type="line"/>
      <point x="491" y="0" type="line"/>
      <point x="527" y="170" type="line"/>
      <point x="228" y="170" type="line"/>
      <point x="343" y="710" type="line"/>
      <point x="148" y="710" type="line"/>
    </contour>
  </outline>
</glyph>
<glyph name="lslash" format="2">
  <advance width="394"/>
  <unicode hex="0142"/>
  <outline>
    <contour>
      <point x="25" y="252" type="line"/>
      <point x="409" y="426" type="line"/>
      <point x="388" y="527" type="line"/>
      <point x="4" y="353" type="line"/>
    </contour>
    <contour>
      <point x="180" y="-10" type="qcurve" smooth="yes"/>
      <point x="217" y="-10"/>
      <point x="304" y="8"/>
      <point x="341" y="24" type="qcurve"/>
      <point x="347" y="164" type="line"/>
      <point x="334" y="157"/>
      <point x="306" y="149"/>
      <point x="295" y="149" type="qcurve" smooth="yes"/>
      <point x="277" y="149"/>
      <point x="259" y="168"/>
      <point x="259" y="187" type="qcurve" smooth="yes"/>
      <point x="259" y="192"/>
      <point x="260" y="203"/>
      <point x="262" y="209" type="qcurve"/>
      <point x="373" y="730" type="line"/>
      <point x="183" y="730" type="line"/>
      <point x="58" y="142" type="line"/>
      <point x="55" y="130"/>
      <point x="53" y="108"/>
      <point x="53" y="97" type="qcurve" smooth="yes"/>
      <point x="53" y="45"/>
      <point x="117" y="-10"/>
    </contour>
  </outline>
</glyph>
<glyph name="Eng" format="2">
  <advance width="705"/>
  <unicode hex="014A"/>
  <outline>
    <contour>
      <point x="336" y="-209" type="qcurve" smooth="yes"/>
      <point x="379" y="-209"/>
      <point x="458" y="-179"/>
      <point x="523" y="-123"/>
      <point x="571" y="-44"/>
      <point x="581" y="5" type="qcurve" smooth="yes"/>
      <point x="731" y="709" type="line"/>
      <point x="536" y="709" type="line"/>
      <point x="462" y="359" type="line"/>
      <point x="298" y="710" type="line"/>
      <point x="148" y="710" type="line"/>
      <point x="-3" y="0" type="line"/>
      <point x="192" y="0" type="line"/>
      <point x="265" y="343" type="line"/>
      <point x="400" y="44" type="line"/>
      <point x="390" y="-3" type="line" smooth="yes"/>
      <point x="388" y="-13"/>
      <point x="380" y="-29"/>
      <point x="369" y="-40"/>
      <point x="355" y="-46"/>
      <point x="347" y="-46" type="qcurve" smooth="yes"/>
      <point x="334" y="-46"/>
      <point x="313" y="-35"/>
      <point x="308" y="-26" type="qcurve"/>
      <point x="203" y="-155" type="line"/>
      <point x="228" y="-181"/>
      <point x="296" y="-209"/>
    </contour>
  </outline>
</glyph>
<glyph name="eng" format="2">
  <advance width="600"/>
  <unicode hex="014B"/>
  <outline>
    <contour>
      <point x="248" y="-209" type="qcurve" smooth="yes"/>
      <point x="292" y="-209"/>
      <point x="372" y="-177"/>
      <point x="438" y="-118"/>
      <point x="485" y="-37"/>
      <point x="495" y="12" type="qcurve" smooth="yes"/>
      <point x="566" y="346" type="line" smooth="yes"/>
      <point x="570" y="363"/>
      <point x="575" y="400"/>
      <point x="575" y="419" type="qcurve" smooth="yes"/>
      <point x="575" y="441"/>
      <point x="565" y="483"/>
      <point x="538" y="516"/>
      <point x="491" y="536"/>
      <point x="455" y="536" type="qcurve" smooth="yes"/>
      <point x="423" y="536"/>
      <point x="364" y="525"/>
      <point x="312" y="502"/>
      <point x="268" y="469"/>
      <point x="250" y="448" type="qcurve"/>
      <point x="267" y="526" type="line"/>
      <point x="96" y="526" type="line"/>
      <point x="-16" y="0" type="line"/>
      <point x="174" y="0" type="line"/>
      <point x="237" y="295" type="line"/>
      <point x="246" y="312"/>
      <point x="271" y="339"/>
      <point x="296" y="359"/>
      <point x="321" y="370"/>
      <point x="331" y="370" type="qcurve" smooth="yes"/>
      <point x="347" y="370"/>
      <point x="370" y="347"/>
      <point x="370" y="322" type="qcurve" smooth="yes"/>
      <point x="370" y="316"/>
      <point x="369" y="304"/>
      <point x="367" y="296" type="qcurve"/>
      <point x="303" y="-3" type="line" smooth="yes"/>
      <point x="301" y="-13"/>
      <point x="293" y="-29"/>
      <point x="281" y="-40"/>
      <point x="267" y="-46"/>
      <point x="259" y="-46" type="qcurve" smooth="yes"/>
      <point x="246" y="-46"/>
      <point x="226" y="-35"/>
      <point x="221" y="-26" type="qcurve"/>
      <point x="116" y="-155" type="line"/>
      <point x="140" y="-181"/>
      <point x="208" y="-209"/>
    </contour>
  </outline>
</glyph>
<glyph name="OE" format="2">
  <advance width="977"/>
  <unicode hex="0152"/>
  <outline>
    <contour>
      <point x="282" y="-5" type="qcurve" smooth="yes"/>
      <point x="300" y="-5"/>
      <point x="337" y="2"/>
      <point x="374" y="14"/>
      <point x="411" y="31"/>
      <point x="429" y="41" type="qcurve"/>
      <point x="420" y="0" type="line"/>
      <point x="883" y="0" type="line"/>
      <point x="919" y="170" type="line"/>
      <point x="651" y="170" type="line"/>
      <point x="674" y="276" type="line"/>
      <point x="882" y="276" type="line"/>
      <point x="918" y="446" type="line"/>
      <point x="710" y="446" type="line"/>
      <point x="730" y="540" type="line"/>
      <point x="989" y="540" type="line"/>
      <point x="1025" y="710" type="line"/>
      <point x="571" y="710" type="line"/>
      <point x="563" y="670" type="line"/>
      <point x="550" y="681"/>
      <point x="521" y="697"/>
      <point x="490" y="709"/>
      <point x="458" y="715"/>
      <point x="440" y="715" type="qcurve" smooth="yes"/>
      <point x="359" y="715"/>
      <point x="210" y="643"/>
      <point x="96" y="523"/>
      <point x="28" y="369"/>
      <point x="28" y="288" type="qcurve" smooth="yes"/>
      <point x="28" y="231"/>
      <point x="62" y="125"/>
      <point x="126" y="44"/>
      <point x="221" y="-5"/>
    </contour>
    <contour>
      <point x="321" y="168" type="qcurve" smooth="yes"/>
      <point x="296" y="168"/>
      <point x="260" y="190"/>
      <point x="238" y="226"/>
      <point x="227" y="274"/>
      <point x="227" y="301" type="qcurve" smooth="yes"/>
      <point x="227" y="340"/>
      <point x="250" y="425"/>
      <point x="294" y="496"/>
      <point x="358" y="542"/>
      <point x="400" y="542" type="qcurve" smooth="yes"/>
      <point x="425" y="542"/>
      <point x="460" y="520"/>
      <point x="483" y="484"/>
      <point x="494" y="436"/>
      <point x="494" y="409" type="qcurve" smooth="yes"/>
      <point x="494" y="370"/>
      <point x="472" y="285"/>
      <point x="428" y="214"/>
      <point x="363" y="168"/>
    </contour>
  </outline>
</glyph>
<glyph name="tbar" format="2">
  <advance width="417"/>
  <unicode hex="0167"/>
  <outline>
    <contour>
      <point x="9" y="227" type="line"/>
      <point x="336" y="227" type="line"/>
      <point x="359" y="336" type="line"/>
      <point x="32" y="336" type="line"/>
    </contour>
    <contour>
      <point x="45" y="96" type="qcurve" smooth="yes"/>
      <point x="45" y="37"/>
      <point x="118" y="-11"/>
      <point x="172" y="-11" type="qcurve" smooth="yes"/>
      <point x="193" y="-11"/>
      <point x="237" y="-5"/>
      <point x="283" y="6"/>
      <point x="329" y="20"/>
      <point x="351" y="29" type="qcurve"/>
      <point x="349" y="179" type="line"/>
      <point x="339" y="175"/>
      <point x="320" y="169"/>
      <point x="303" y="165"/>
      <point x="288" y="162"/>
      <point x="282" y="162" type="qcurve" smooth="yes"/>
      <point x="268" y="162"/>
      <point x="252" y="175"/>
      <point x="252" y="191" type="qcurve" smooth="yes"/>
      <point x="252" y="195"/>
      <point x="253" y="204"/>
      <point x="254" y="209" type="qcurve" smooth="yes"/>
      <point x="291" y="383" type="line"/>
      <point x="388" y="383" type="line"/>
      <point x="418" y="526" type="line"/>
      <point x="322" y="526" type="line"/>
      <point x="357" y="691" type="line"/>
      <point x="167" y="691" type="line"/>
      <point x="132" y="526" type="line"/>
      <point x="71" y="526" type="line"/>
      <point x="40" y="383" type="line"/>
      <point x="101" y="383" type="line"/>
      <point x="50" y="142" type="line" smooth="yes"/>
      <point x="47" y="129"/>
      <point x="45" y="107"/>
    </contour>
  </outline>
</glyph>
<glyph name="Schwa" format="2">
  <advance width="732"/>
  <unicode hex="018F"/>
  <outline>
    <contour>
      <point x="296" y="-5" type="qcurve" smooth="yes"/>
      <point x="395" y="-5"/>
      <point x="555" y="76"/>
      <point x="667" y="202"/>
      <point x="728" y="353"/>
      <point x="728" y="423" type="qcurve" smooth="yes"/>
      <point x="728" y="475"/>
      <point x="695" y="579"/>
      <point x="626" y="662"/>
      <point x="521" y="714"/>
      <point x="449" y="714" type="qcurve" smooth="yes"/>
      <point x="390" y="714"/>
      <point x="285" y="686"/>
      <point x="194" y="636"/>
      <point x="120" y="565"/>
      <point x="91" y="521" type="qcurve"/>
      <point x="283" y="464" type="line"/>
      <point x="292" y="483"/>
      <point x="321" y="512"/>
      <point x="357" y="532"/>
      <point x="396" y="543"/>
      <point x="415" y="543" type="qcurve" smooth="yes"/>
      <point x="436" y="543"/>
      <point x="474" y="531"/>
      <point x="502" y="505"/>
      <point x="519" y="465"/>
      <point x="519" y="437" type="qcurve" smooth="yes"/>
      <point x="519" y="431"/>
      <point x="518" y="418"/>
      <point x="517" y="411" type="qcurve"/>
      <point x="43" y="411" type="line"/>
      <point x="33" y="388"/>
      <point x="15" y="326"/>
      <point x="15" y="284" type="qcurve" smooth="yes"/>
      <point x="15" y="234"/>
      <point x="47" y="131"/>
      <point x="116" y="48"/>
      <point x="222" y="-5"/>
    </contour>
    <contour>
      <point x="335" y="165" type="qcurve" smooth="yes"/>
      <point x="311" y="165"/>
      <point x="269" y="176"/>
      <point x="238" y="197"/>
      <point x="220" y="227"/>
      <point x="220" y="246" type="qcurve" smooth="yes"/>
      <point x="220" y="251"/>
      <point x="221" y="262"/>
      <point x="223" y="268" type="qcurve"/>
      <point x="482" y="268" type="line"/>
      <point x="473" y="244"/>
      <point x="443" y="205"/>
      <point x="405" y="179"/>
      <point x="360" y="165"/>
    </contour>
  </outline>
</glyph>
<glyph name="florin" format="2">
  <advance width="544"/>
  <unicode hex="0192"/>
  <outline>
    <contour>
      <point x="64" y="-209" type="qcurve" smooth="yes"/>
      <point x="107" y="-209"/>
      <point x="187" y="-178"/>
      <point x="251" y="-123"/>
      <point x="298" y="-45"/>
      <point x="308" y="2" type="qcurve" smooth="yes"/>
      <point x="376" y="322" type="line"/>
      <point x="483" y="322" type="line"/>
      <point x="514" y="465" type="line"/>
      <point x="406" y="465" type="line"/>
      <point x="420" y="529" type="line" smooth="yes"/>
      <point x="425" y="555"/>
      <point x="451" y="580"/>
      <point x="471" y="580" type="qcurve" smooth="yes"/>
      <point x="485" y="580"/>
      <point x="521" y="572"/>
      <point x="535" y="566" type="qcurve"/>
      <point x="597" y="710" type="line"/>
      <point x="561" y="725"/>
      <point x="494" y="740"/>
      <point x="462" y="740" type="qcurve" smooth="yes"/>
      <point x="420" y="740"/>
      <point x="345" y="709"/>
      <point x="283" y="652"/>
      <point x="240" y="572"/>
      <point x="229" y="522" type="qcurve" smooth="yes"/>
      <point x="217" y="465" type="line"/>
      <point x="156" y="465" type="line"/>
      <point x="125" y="322" type="line"/>
      <point x="186" y="322" type="line"/>
      <point x="117" y="-3" type="line" smooth="yes"/>
      <point x="115" y="-13"/>
      <point x="107" y="-29"/>
      <point x="96" y="-40"/>
      <point x="82" y="-46"/>
      <point x="74" y="-46" type="qcurve" smooth="yes"/>
      <point x="62" y="-46"/>
      <point x="41" y="-35"/>
      <point x="36" y="-26" type="qcurve"/>
      <point x="-69" y="-155" type="line"/>
      <point x="-45" y="-181"/>
      <point x="24" y="-209"/>
    </contour>
  </outline>
</glyph>
<glyph name="Aringacute" format="2">
  <advance width="636"/>
  <unicode hex="01FA"/>
  <outline>
    <contour>
      <point x="-61" y="0" type="line"/>
      <point x="138" y="0" type="line"/>
      <point x="203" y="139" type="line"/>
      <point x="373" y="139" type="line"/>
      <point x="380" y="0" type="line"/>
      <point x="578" y="0" type="line"/>
      <point x="499" y="710" type="line"/>
      <point x="320" y="710" type="line"/>
    </contour>
    <contour>
      <point x="259" y="269" type="line"/>
      <point x="362" y="489" type="line"/>
      <point x="370" y="269" type="line"/>
    </contour>
    <contour>
      <point x="632" y="964" type="line"/>
      <point x="453" y="964" type="line"/>
      <point x="377" y="812" type="line"/>
      <point x="477" y="812" type="line"/>
    </contour>
    <contour>
      <point x="301" y="734" type="qcurve" smooth="yes"/>
      <point x="301" y="699"/>
      <point x="354" y="664"/>
      <point x="400" y="664" type="qcurve" smooth="yes"/>
      <point x="460" y="664"/>
      <point x="535" y="717"/>
      <point x="535" y="768" type="qcurve" smooth="yes"/>
      <point x="535" y="803"/>
      <point x="483" y="838"/>
      <point x="437" y="838" type="qcurve" smooth="yes"/>
      <point x="376" y="838"/>
      <point x="301" y="785"/>
    </contour>
    <contour>
      <point x="425" y="784" type="qcurve" smooth="yes"/>
      <point x="439" y="784"/>
      <point x="457" y="769"/>
      <point x="457" y="757" type="qcurve" smooth="yes"/>
      <point x="457" y="740"/>
      <point x="429" y="718"/>
      <point x="411" y="718" type="qcurve" smooth="yes"/>
      <point x="397" y="718"/>
      <point x="380" y="733"/>
      <point x="380" y="746" type="qcurve" smooth="yes"/>
      <point x="380" y="763"/>
      <point x="406" y="784"/>
    </contour>
  </outline>
</glyph>
<glyph name="dotlessj" format="2">
  <advance width="286"/>
  <unicode hex="0237"/>
  <outline>
    <contour>
      <point x="-70" y="-209" type="qcurve" smooth="yes"/>
      <point x="-26" y="-209"/>
      <point x="55" y="-177"/>
      <point x="120" y="-118"/>
      <point x="167" y="-37"/>
      <point x="177" y="12" type="qcurve" smooth="yes"/>
      <point x="286" y="526" type="line"/>
      <point x="95" y="526" type="line"/>
      <point x="-17" y="-3" type="line" smooth="yes"/>
      <point x="-19" y="-13"/>
      <point x="-27" y="-29"/>
      <point x="-38" y="-40"/>
      <point x="-52" y="-46"/>
      <point x="-60" y="-46" type="qcurve" smooth="yes"/>
      <point x="-72" y="-46"/>
      <point x="-93" y="-35"/>
      <point x="-98" y="-26" type="qcurve"/>
      <point x="-203" y="-155" type="line"/>
      <point x="-179" y="-181"/>
      <point x="-110" y="-209"/>
    </contour>
  </outline>
</glyph>
<glyph name="schwa" format="2">
  <advance width="591"/>
  <unicode hex="0259"/>
  <outline>
    <contour>
      <point x="227" y="-10" type="qcurve" smooth="yes"/>
      <point x="307" y="-10"/>
      <point x="434" y="47"/>
      <point x="522" y="140"/>
      <point x="569" y="258"/>
      <point x="569" y="320" type="qcurve" smooth="yes"/>
      <point x="569" y="364"/>
      <point x="541" y="442"/>
      <point x="485" y="501"/>
      <point x="400" y="536"/>
      <point x="343" y="536" type="qcurve" smooth="yes"/>
      <point x="297" y="536"/>
      <point x="213" y="515"/>
      <point x="142" y="477"/>
      <point x="83" y="425"/>
      <point x="61" y="393" type="qcurve"/>
      <point x="212" y="347" type="line"/>
      <point x="218" y="359"/>
      <point x="240" y="379"/>
      <point x="265" y="393"/>
      <point x="294" y="400"/>
      <point x="308" y="400" type="qcurve" smooth="yes"/>
      <point x="320" y="400"/>
      <point x="343" y="393"/>
      <point x="361" y="377"/>
      <point x="372" y="354"/>
      <point x="372" y="337" type="qcurve" smooth="yes"/>
      <point x="372" y="333"/>
      <point x="372" y="325"/>
      <point x="371" y="321" type="qcurve"/>
      <point x="26" y="321" type="line"/>
      <point x="15" y="293"/>
      <point x="2" y="227"/>
      <point x="2" y="197" type="qcurve" smooth="yes"/>
      <point x="2" y="154"/>
      <point x="29" y="78"/>
      <point x="85" y="22"/>
      <point x="169" y="-10"/>
    </contour>
    <contour>
      <point x="258" y="125" type="qcurve" smooth="yes"/>
      <point x="244" y="125"/>
      <point x="223" y="134"/>
      <point x="208" y="151"/>
      <point x="201" y="176"/>
      <point x="201" y="192" type="qcurve" smooth="yes"/>
      <point x="201" y="196"/>
      <point x="201" y="203"/>
      <point x="202" y="207" type="qcurve"/>
      <point x="351" y="207" type="line"/>
      <point x="345" y="188"/>
      <point x="326" y="157"/>
      <point x="302" y="136"/>
      <point x="274" y="125"/>
    </contour>
  </outline>
</glyph>
<glyph name="apostrophemod" format="2">
  <advance width="267"/>
  <unicode hex="02BC"/>
  <outline>
    <contour>
      <point x="362" y="730" type="line"/>
      <point x="183" y="730" type="line"/>
      <point x="107" y="570" type="line"/>
      <point x="207" y="570" type="line"/>
    </contour>
  </outline>
</glyph>
<glyph name="ringhalfrightmod" format="2">
  <advance width="135"/>
  <unicode hex="02BE"/>
  <outline>
    <contour>
      <point x="81" y="549" type="line"/>
      <point x="106" y="549"/>
      <point x="148" y="565"/>
      <point x="179" y="594"/>
      <point x="196" y="635"/>
      <point x="196" y="660" type="qcurve" smooth="yes"/>
      <point x="196" y="695"/>
      <point x="163" y="737"/>
      <point x="131" y="737" type="qcurve"/>
      <point x="116" y="681" type="line"/>
      <point x="122" y="681"/>
      <point x="128" y="662"/>
      <point x="128" y="650" type="qcurve" smooth="yes"/>
      <point x="128" y="633"/>
      <point x="107" y="605"/>
      <point x="96" y="605" type="qcurve"/>
    </contour>
  </outline>
</glyph>
<glyph name="uni02BF" format="2">
  <advance width="134"/>
  <unicode hex="02BF"/>
  <outline>
    <contour>
      <point x="181" y="605" type="line"/>
      <point x="174" y="605"/>
      <point x="169" y="625"/>
      <point x="169" y="638" type="qcurve" smooth="yes"/>
      <point x="169" y="655"/>
      <point x="189" y="681"/>
      <point x="200" y="681" type="qcurve"/>
      <point x="215" y="737" type="line"/>
      <point x="190" y="737"/>
      <point x="148" y="721"/>
      <point x="117" y="692"/>
      <point x="100" y="651"/>
      <point x="100" y="626" type="qcurve" smooth="yes"/>
      <point x="100" y="591"/>
      <point x="133" y="549"/>
      <point x="166" y="549" type="qcurve"/>
    </contour>
  </outline>
</glyph>
<glyph name="uni02C8" format="2">
  <advance width="239"/>
  <unicode hex="02C8"/>
  <outline>
    <contour>
      <point x="100" y="775" type="line"/>
      <point x="100" y="391" type="line"/>
      <point x="260" y="391" type="line"/>
      <point x="260" y="775" type="line"/>
    </contour>
  </outline>
</glyph>
<glyph name="uni02CB" format="2">
  <advance width="261"/>
  <unicode hex="02CB"/>
  <outline>
    <contour>
      <point x="249" y="496" type="line"/>
      <point x="307" y="730" type="line"/>
      <point x="152" y="730" type="line"/>
      <point x="128" y="496" type="line"/>
    </contour>
  </outline>
</glyph>
<glyph name="uni02CC" format="2">
  <advance width="239"/>
  <unicode hex="02CC"/>
  <outline>
    <contour>
      <point x="-11" y="254" type="line"/>
      <point x="-11" y="-130" type="line"/>
      <point x="149" y="-130" type="line"/>
      <point x="149" y="254" type="line"/>
    </contour>
  </outline>
</glyph>
<glyph name="gravecomb" format="2">
  <advance width="314"/>
  <unicode hex="0300"/>
  <anchor x="253" y="526" name="_top"/>
  <outline>
    <contour>
      <point x="86" y="760" type="line"/>
      <point x="200" y="600" type="line"/>
      <point x="312" y="600" type="line"/>
      <point x="299" y="760" type="line"/>
    </contour>
  </outline>
</glyph>
<glyph name="acutecomb" format="2">
  <advance width="314"/>
  <unicode hex="0301"/>
  <anchor x="59" y="526" name="_top"/>
  <outline>
    <contour>
      <point x="312" y="760" type="line"/>
      <point x="99" y="760" type="line"/>
      <point x="18" y="600" type="line"/>
      <point x="130" y="600" type="line"/>
    </contour>
  </outline>
</glyph>
<glyph name="circumflexcomb" format="2">
  <advance width="417"/>
  <unicode hex="0302"/>
  <outline>
    <contour>
      <point x="61" y="600" type="line"/>
      <point x="161" y="600" type="line"/>
      <point x="259" y="678" type="line"/>
      <point x="324" y="600" type="line"/>
      <point x="424" y="600" type="line"/>
      <point x="372" y="765" type="line"/>
      <point x="183" y="765" type="line"/>
    </contour>
  </outline>
</glyph>
<glyph name="uni0302" format="2">
  <advance width="402"/>
  <unicode hex="0302"/>
  <outline>
    <contour>
      <point x="63" y="600" type="line"/>
      <point x="153" y="600" type="line"/>
      <point x="254" y="680" type="line"/>
      <point x="321" y="600" type="line"/>
      <point x="411" y="600" type="line"/>
      <point x="356" y="760" type="line"/>
      <point x="186" y="760" type="line"/>
    </contour>
  </outline>
</glyph>
<glyph name="tildecomb" format="2">
  <advance width="534"/>
  <unicode hex="0303"/>
  <outline>
    <contour>
      <point x="398" y="596" type="qcurve" smooth="yes"/>
      <point x="436" y="596"/>
      <point x="502" y="643"/>
      <point x="550" y="702"/>
      <point x="580" y="758"/>
      <point x="582" y="767" type="qcurve"/>
      <point x="471" y="767" type="line"/>
      <point x="471" y="766"/>
      <point x="464" y="750"/>
      <point x="450" y="731"/>
      <point x="428" y="716"/>
      <point x="414" y="716" type="qcurve" smooth="yes"/>
      <point x="398" y="716"/>
      <point x="376" y="733"/>
      <point x="350" y="752"/>
      <point x="320" y="769"/>
      <point x="295" y="769" type="qcurve" smooth="yes"/>
      <point x="257" y="769"/>
      <point x="193" y="726"/>
      <point x="145" y="670"/>
      <point x="117" y="612"/>
      <point x="114" y="598" type="qcurve"/>
      <point x="226" y="598" type="line"/>
      <point x="226" y="598"/>
      <point x="230" y="613"/>
      <point x="242" y="632"/>
      <point x="263" y="646"/>
      <point x="279" y="646" type="qcurve" smooth="yes"/>
      <point x="295" y="646"/>
      <point x="320" y="630"/>
      <point x="345" y="612"/>
      <point x="375" y="596"/>
    </contour>
  </outline>
</glyph>
<glyph name="uni0304" format="2">
  <advance width="396"/>
  <unicode hex="0304"/>
  <outline>
    <contour>
      <point x="419" y="607" type="line"/>
      <point x="443" y="720" type="line"/>
      <point x="147" y="720" type="line"/>
      <point x="123" y="607" type="line"/>
    </contour>
  </outline>
</glyph>
<glyph name="brevecomb" format="2">
  <advance width="412"/>
  <unicode hex="0306"/>
  <outline>
    <contour>
      <point x="288" y="649" type="qcurve" smooth="yes"/>
      <point x="268" y="649"/>
      <point x="244" y="682"/>
      <point x="244" y="707" type="qcurve" smooth="yes"/>
      <point x="244" y="712"/>
      <point x="245" y="724"/>
      <point x="247" y="730" type="qcurve"/>
      <point x="149" y="730" type="line"/>
      <point x="147" y="719"/>
      <point x="144" y="699"/>
      <point x="144" y="689" type="qcurve" smooth="yes"/>
      <point x="144" y="634"/>
      <point x="211" y="568"/>
      <point x="271" y="568" type="qcurve" smooth="yes"/>
      <point x="306" y="568"/>
      <point x="368" y="592"/>
      <point x="418" y="635"/>
      <point x="454" y="694"/>
      <point x="461" y="730" type="qcurve"/>
      <point x="363" y="730" type="line"/>
      <point x="352" y="695"/>
      <point x="310" y="649"/>
    </contour>
  </outline>
</glyph>
<glyph name="dotaccentcomb" format="2">
  <advance width="270"/>
  <unicode hex="0307"/>
  <outline>
    <contour>
      <point x="100" y="660" type="qcurve" smooth="yes"/>
      <point x="92" y="621"/>
      <point x="135" y="566"/>
      <point x="174" y="566" type="qcurve" smooth="yes"/>
      <point x="194" y="566"/>
      <point x="231" y="581"/>
      <point x="262" y="606"/>
      <point x="284" y="641"/>
      <point x="288" y="660" type="qcurve" smooth="yes"/>
      <point x="296" y="699"/>
      <point x="253" y="754"/>
      <point x="214" y="754" type="qcurve" smooth="yes"/>
      <point x="195" y="754"/>
      <point x="157" y="739"/>
      <point x="126" y="714"/>
      <point x="104" y="680"/>
    </contour>
  </outline>
</glyph>
<glyph name="uni0308" format="2">
  <advance width="566"/>
  <unicode hex="0308"/>
  <outline>
    <contour>
      <point x="197" y="557" type="qcurve" smooth="yes"/>
      <point x="217" y="557"/>
      <point x="254" y="572"/>
      <point x="285" y="597"/>
      <point x="307" y="632"/>
      <point x="311" y="651" type="qcurve" smooth="yes"/>
      <point x="319" y="690"/>
      <point x="276" y="745"/>
      <point x="237" y="745" type="qcurve" smooth="yes"/>
      <point x="218" y="745"/>
      <point x="180" y="730"/>
      <point x="149" y="705"/>
      <point x="127" y="671"/>
      <point x="123" y="651" type="qcurve" smooth="yes"/>
      <point x="115" y="612"/>
      <point x="158" y="557"/>
    </contour>
    <contour>
      <point x="448" y="557" type="qcurve" smooth="yes"/>
      <point x="468" y="557"/>
      <point x="505" y="572"/>
      <point x="536" y="597"/>
      <point x="558" y="632"/>
      <point x="562" y="651" type="qcurve" smooth="yes"/>
      <point x="570" y="690"/>
      <point x="527" y="745"/>
      <point x="488" y="745" type="qcurve" smooth="yes"/>
      <point x="469" y="745"/>
      <point x="431" y="730"/>
      <point x="400" y="705"/>
      <point x="378" y="671"/>
      <point x="374" y="651" type="qcurve" smooth="yes"/>
      <point x="366" y="612"/>
      <point x="409" y="557"/>
    </contour>
  </outline>
</glyph>
<glyph name="hookabovecomb" format="2">
  <advance width="311"/>
  <unicode hex="0309"/>
  <outline>
    <contour>
      <point x="180" y="676" type="line"/>
      <point x="200" y="689"/>
      <point x="226" y="703"/>
      <point x="240" y="703" type="qcurve" smooth="yes"/>
      <point x="254" y="703"/>
      <point x="264" y="686"/>
      <point x="259" y="673" type="qcurve" smooth="yes"/>
      <point x="254" y="659"/>
      <point x="225" y="636"/>
      <point x="204" y="625" type="qcurve"/>
      <point x="231" y="578" type="line"/>
      <point x="281" y="609"/>
      <point x="337" y="661"/>
      <point x="353" y="701" type="qcurve"/>
      <point x="367" y="739"/>
      <point x="332" y="785"/>
      <point x="287" y="785" type="qcurve" smooth="yes"/>
      <point x="258" y="785"/>
      <point x="192" y="758"/>
      <point x="148" y="726" type="qcurve"/>
    </contour>
  </outline>
</glyph>
<glyph name="uni030A" format="2">
  <advance width="332"/>
  <unicode hex="030A"/>
  <outline>
    <contour>
      <point x="130" y="626" type="qcurve" smooth="yes"/>
      <point x="130" y="591"/>
      <point x="183" y="556"/>
      <point x="229" y="556" type="qcurve" smooth="yes"/>
      <point x="289" y="556"/>
      <point x="364" y="609"/>
      <point x="364" y="660" type="qcurve" smooth="yes"/>
      <point x="364" y="695"/>
      <point x="312" y="730"/>
      <point x="266" y="730" type="qcurve" smooth="yes"/>
      <point x="205" y="730"/>
      <point x="130" y="677"/>
    </contour>
    <contour>
      <point x="254" y="676" type="qcurve" smooth="yes"/>
      <point x="268" y="676"/>
      <point x="286" y="661"/>
      <point x="286" y="649" type="qcurve" smooth="yes"/>
      <point x="286" y="632"/>
      <point x="258" y="610"/>
      <point x="240" y="610" type="qcurve" smooth="yes"/>
      <point x="226" y="610"/>
      <point x="209" y="625"/>
      <point x="209" y="638" type="qcurve" smooth="yes"/>
      <point x="209" y="655"/>
      <point x="235" y="676"/>
    </contour>
  </outline>
</glyph>
<glyph name="uni030B" format="2">
  <advance width="399"/>
  <unicode hex="030B"/>
  <outline>
    <contour>
      <point x="536" y="760" type="line"/>
      <point x="357" y="760" type="line"/>
      <point x="264" y="600" type="line"/>
      <point x="364" y="600" type="line"/>
    </contour>
    <contour>
      <point x="325" y="760" type="line"/>
      <point x="146" y="760" type="line"/>
      <point x="53" y="600" type="line"/>
      <point x="153" y="600" type="line"/>
    </contour>
  </outline>
</glyph>
<glyph name="caroncomb" format="2">
  <advance width="417"/>
  <unicode hex="030C"/>
  <outline>
    <contour>
      <point x="96" y="765" type="line"/>
      <point x="148" y="600" type="line"/>
      <point x="337" y="600" type="line"/>
      <point x="459" y="765" type="line"/>
      <point x="359" y="765" type="line"/>
      <point x="261" y="687" type="line"/>
      <point x="196" y="765" type="line"/>
    </contour>
  </outline>
</glyph>
<glyph name="uni030C" format="2">
  <advance width="402"/>
  <unicode hex="030C"/>
  <outline>
    <contour>
      <point x="97" y="760" type="line"/>
      <point x="152" y="600" type="line"/>
      <point x="322" y="600" type="line"/>
      <point x="445" y="760" type="line"/>
      <point x="355" y="760" type="line"/>
      <point x="254" y="680" type="line"/>
      <point x="187" y="760" type="line"/>
    </contour>
  </outline>
</glyph>
<glyph name="dblgravecomb" format="2">
  <advance width="414"/>
  <unicode hex="030F"/>
  <outline>
    <contour>
      <point x="251" y="760" type="line"/>
      <point x="360" y="600" type="line"/>
      <point x="460" y="600" type="line"/>
      <point x="440" y="760" type="line"/>
    </contour>
    <contour>
      <point x="35" y="760" type="line"/>
      <point x="144" y="600" type="line"/>
      <point x="244" y="600" type="line"/>
      <point x="224" y="760" type="line"/>
    </contour>
  </outline>
</glyph>
<glyph name="uni030F" format="2">
  <advance width="399"/>
  <unicode hex="030F"/>
  <outline>
    <contour>
      <point x="243" y="760" type="line"/>
      <point x="347" y="600" type="line"/>
      <point x="437" y="600" type="line"/>
      <point x="412" y="760" type="line"/>
    </contour>
    <contour>
      <point x="35" y="760" type="line"/>
      <point x="139" y="600" type="line"/>
      <point x="229" y="600" type="line"/>
      <point x="204" y="760" type="line"/>
    </contour>
  </outline>
</glyph>
<glyph name="breveinvertedcomb" format="2">
  <advance width="412"/>
  <unicode hex="0311"/>
  <outline>
    <contour>
      <point x="115" y="568" type="qcurve"/>
      <point x="212" y="568" type="line"/>
      <point x="221" y="616"/>
      <point x="263" y="649"/>
      <point x="287" y="649" type="qcurve" smooth="yes"/>
      <point x="310" y="649"/>
      <point x="332" y="626"/>
      <point x="332" y="600" type="qcurve" smooth="yes"/>
      <point x="332" y="593"/>
      <point x="331" y="577"/>
      <point x="329" y="568" type="qcurve"/>
      <point x="427" y="568" type="line"/>
      <point x="429" y="578"/>
      <point x="431" y="596"/>
      <point x="431" y="605" type="qcurve" smooth="yes"/>
      <point x="431" y="659"/>
      <point x="367" y="730"/>
      <point x="305" y="730" type="qcurve" smooth="yes"/>
      <point x="271" y="730"/>
      <point x="208" y="706"/>
      <point x="158" y="663"/>
      <point x="123" y="604"/>
    </contour>
  </outline>
</glyph>
<glyph name="commaturnedabovecomb" format="2">
  <advance width="259"/>
  <unicode hex="0312"/>
  <outline>
    <contour>
      <point x="49" y="572" type="line"/>
      <point x="237" y="572" type="line"/>
      <point x="334" y="754" type="line"/>
      <point x="234" y="754" type="line"/>
    </contour>
  </outline>
</glyph>
<glyph name="uni0312" format="2">
  <advance width="241"/>
  <unicode hex="0312"/>
  <outline>
    <contour>
      <point x="53" y="575" type="line"/>
      <point x="222" y="575" type="line"/>
      <point x="319" y="749" type="line"/>
      <point x="229" y="749" type="line"/>
    </contour>
  </outline>
</glyph>
<glyph name="uni031B" format="2">
  <advance width="344"/>
  <unicode hex="031B"/>
  <outline>
    <contour>
      <point x="94" y="470" type="line"/>
      <point x="123" y="470"/>
      <point x="183" y="479"/>
      <point x="239" y="494"/>
      <point x="285" y="514"/>
      <point x="300" y="526" type="qcurve" smooth="yes"/>
      <point x="323" y="544"/>
      <point x="353" y="586"/>
      <point x="371" y="630"/>
      <point x="381" y="673"/>
      <point x="385" y="692" type="qcurve"/>
      <point x="256" y="692" type="line"/>
      <point x="251" y="672"/>
      <point x="242" y="635"/>
      <point x="225" y="621" type="qcurve" smooth="yes"/>
      <point x="208" y="607"/>
      <point x="156" y="598"/>
      <point x="121" y="598" type="qcurve"/>
    </contour>
  </outline>
</glyph>
<glyph name="dotbelowcomb" format="2">
  <advance width="270"/>
  <unicode hex="0323"/>
  <outline>
    <contour>
      <point x="6" y="-140" type="qcurve" smooth="yes"/>
      <point x="-2" y="-179"/>
      <point x="41" y="-234"/>
      <point x="80" y="-234" type="qcurve" smooth="yes"/>
      <point x="100" y="-234"/>
      <point x="137" y="-219"/>
      <point x="168" y="-194"/>
      <point x="190" y="-160"/>
      <point x="194" y="-140" type="qcurve" smooth="yes"/>
      <point x="202" y="-101"/>
      <point x="159" y="-46"/>
      <point x="120" y="-46" type="qcurve" smooth="yes"/>
      <point x="101" y="-46"/>
      <point x="63" y="-61"/>
      <point x="32" y="-86"/>
      <point x="10" y="-121"/>
    </contour>
  </outline>
</glyph>
<glyph name="dieresisbelowcomb" format="2">
  <advance width="566"/>
  <unicode hex="0324"/>
  <outline>
    <contour>
      <point x="111" y="-238" type="qcurve" smooth="yes"/>
      <point x="131" y="-238"/>
      <point x="168" y="-223"/>
      <point x="199" y="-198"/>
      <point x="221" y="-164"/>
      <point x="225" y="-144" type="qcurve" smooth="yes"/>
      <point x="233" y="-105"/>
      <point x="190" y="-50"/>
      <point x="151" y="-50" type="qcurve" smooth="yes"/>
      <point x="132" y="-50"/>
      <point x="94" y="-65"/>
      <point x="63" y="-90"/>
      <point x="41" y="-125"/>
      <point x="37" y="-144" type="qcurve" smooth="yes"/>
      <point x="29" y="-183"/>
      <point x="72" y="-238"/>
    </contour>
    <contour>
      <point x="362" y="-238" type="qcurve" smooth="yes"/>
      <point x="382" y="-238"/>
      <point x="419" y="-223"/>
      <point x="450" y="-198"/>
      <point x="472" y="-164"/>
      <point x="476" y="-144" type="qcurve" smooth="yes"/>
      <point x="484" y="-105"/>
      <point x="441" y="-50"/>
      <point x="402" y="-50" type="qcurve" smooth="yes"/>
      <point x="383" y="-50"/>
      <point x="345" y="-65"/>
      <point x="314" y="-90"/>
      <point x="292" y="-125"/>
      <point x="288" y="-144" type="qcurve" smooth="yes"/>
      <point x="280" y="-183"/>
      <point x="323" y="-238"/>
    </contour>
  </outline>
</glyph>
<glyph name="commaaccentcomb" format="2">
  <advance width="259"/>
  <unicode hex="0326"/>
  <outline>
    <contour>
      <point x="-52" y="-303" type="line"/>
      <point x="133" y="-46" type="line"/>
      <point x="-43" y="-46" type="line"/>
      <point x="-143" y="-303" type="line"/>
    </contour>
  </outline>
</glyph>
<glyph name="uni0326" format="2">
  <advance width="241"/>
  <unicode hex="0326"/>
  <outline>
    <contour>
      <point x="-31" y="-291" type="line"/>
      <point x="139" y="-46" type="line"/>
      <point x="-18" y="-46" type="line"/>
      <point x="-113" y="-291" type="line"/>
    </contour>
  </outline>
</glyph>
<glyph name="cedillacomb" format="2">
  <advance width="362"/>
  <unicode hex="0327"/>
  <outline>
    <contour>
      <point x="-123" y="-208" type="line"/>
      <point x="-46" y="-154"/>
      <point x="14" y="-100"/>
      <point x="59" y="-45" type="curve"/>
      <point x="-122" y="-26" type="line"/>
      <point x="-141" y="-80"/>
      <point x="-177" y="-153"/>
      <point x="-217" y="-193" type="curve"/>
    </contour>
  </outline>
</glyph>
<glyph name="uni0327" format="2">
  <advance width="350"/>
  <unicode hex="0327"/>
  <outline>
    <contour>
      <point x="-42" y="-198" type="qcurve"/>
      <point x="-19" y="-209"/>
      <point x="36" y="-219"/>
      <point x="62" y="-219" type="qcurve" smooth="yes"/>
      <point x="89" y="-219"/>
      <point x="150" y="-207"/>
      <point x="201" y="-180"/>
      <point x="234" y="-134"/>
      <point x="234" y="-101" type="qcurve" smooth="yes"/>
      <point x="234" y="-68"/>
      <point x="188" y="-38"/>
      <point x="158" y="-38" type="qcurve" smooth="yes"/>
      <point x="151" y="-38"/>
      <point x="140" y="-38"/>
      <point x="133" y="-40" type="qcurve"/>
      <point x="178" y="11" type="line"/>
      <point x="114" y="30" type="line"/>
      <point x="24" y="-102" type="line"/>
      <point x="43" y="-98"/>
      <point x="82" y="-93"/>
      <point x="101" y="-93" type="qcurve" smooth="yes"/>
      <point x="107" y="-93"/>
      <point x="124" y="-94"/>
      <point x="138" y="-99"/>
      <point x="148" y="-109"/>
      <point x="148" y="-118" type="qcurve" smooth="yes"/>
      <point x="148" y="-130"/>
      <point x="136" y="-144"/>
      <point x="118" y="-151"/>
      <point x="97" y="-154"/>
      <point x="88" y="-154" type="qcurve" smooth="yes"/>
      <point x="80" y="-154"/>
      <point x="57" y="-152"/>
      <point x="33" y="-147"/>
      <point x="12" y="-140"/>
      <point x="6" y="-134" type="qcurve"/>
      <point x="-6" y="-150"/>
      <point x="-30" y="-182"/>
    </contour>
  </outline>
</glyph>
<glyph name="uni0328" format="2">
  <advance width="273"/>
  <unicode hex="0328"/>
  <outline>
    <contour>
      <point x="-31" y="-125" type="qcurve" smooth="yes"/>
      <point x="-31" y="-157"/>
      <point x="28" y="-206"/>
      <point x="80" y="-214" type="qcurve"/>
      <point x="137" y="-114" type="line"/>
      <point x="112" y="-114"/>
      <point x="92" y="-96"/>
      <point x="92" y="-82" type="qcurve" smooth="yes"/>
      <point x="92" y="-64"/>
      <point x="133" y="-21"/>
      <point x="167" y="1" type="qcurve"/>
      <point x="165" y="25" type="line"/>
      <point x="101" y="25" type="line"/>
      <point x="37" y="-7"/>
      <point x="-31" y="-89"/>
    </contour>
  </outline>
</glyph>
<glyph name="brevebelowcomb" format="2">
  <advance width="343"/>
  <unicode hex="032E"/>
  <outline>
    <contour>
      <point x="67" y="-213" type="qcurve" smooth="yes"/>
      <point x="100" y="-213"/>
      <point x="159" y="-189"/>
      <point x="208" y="-146"/>
      <point x="243" y="-87"/>
      <point x="251" y="-51" type="qcurve"/>
      <point x="156" y="-51" type="line"/>
      <point x="145" y="-86"/>
      <point x="106" y="-132"/>
      <point x="86" y="-132" type="qcurve" smooth="yes"/>
      <point x="64" y="-132"/>
      <point x="45" y="-84"/>
      <point x="53" y="-51" type="qcurve"/>
      <point x="-42" y="-51" type="line"/>
      <point x="-59" y="-123"/>
      <point x="1" y="-213"/>
    </contour>
  </outline>
</glyph>
<glyph name="uni0331" format="2">
  <advance width="385"/>
  <unicode hex="0331"/>
  <outline>
    <contour>
      <point x="237" y="-187" type="line"/>
      <point x="263" y="-74" type="line"/>
      <point x="-20" y="-74" type="line"/>
      <point x="-46" y="-187" type="line"/>
    </contour>
  </outline>
</glyph>
<glyph name="uni0335" format="2">
  <advance width="415"/>
  <unicode hex="0335"/>
  <outline>
    <contour>
      <point x="356" y="227" type="line"/>
      <point x="381" y="336" type="line"/>
      <point x="67" y="336" type="line"/>
      <point x="42" y="227" type="line"/>
    </contour>
  </outline>
</glyph>
<glyph name="dieresistonos" format="2">
  <advance width="616"/>
  <unicode hex="0385"/>
  <outline>
    <contour>
      <point x="136" y="676" type="qcurve" smooth="yes"/>
      <point x="125" y="631"/>
      <point x="170" y="568"/>
      <point x="212" y="568" type="qcurve" smooth="yes"/>
      <point x="250" y="568"/>
      <point x="304" y="611"/>
      <point x="312" y="644" type="qcurve" smooth="yes"/>
      <point x="323" y="691"/>
      <point x="280" y="752"/>
      <point x="236" y="752" type="qcurve" smooth="yes"/>
      <point x="200" y="752"/>
      <point x="144" y="711"/>
    </contour>
    <contour>
      <point x="484" y="676" type="qcurve"/>
      <point x="475" y="631"/>
      <point x="520" y="568"/>
      <point x="562" y="568" type="qcurve" smooth="yes"/>
      <point x="598" y="568"/>
      <point x="654" y="611"/>
      <point x="662" y="644" type="qcurve" smooth="yes"/>
      <point x="673" y="691"/>
      <point x="628" y="752"/>
      <point x="586" y="752" type="qcurve" smooth="yes"/>
      <point x="550" y="752"/>
      <point x="493" y="711"/>
    </contour>
    <contour>
      <point x="404" y="844" type="line"/>
      <point x="320" y="584" type="line"/>
      <point x="410" y="570" type="line"/>
      <point x="528" y="816" type="line"/>
    </contour>
  </outline>
</glyph>
<glyph name="Gamma" format="2">
  <advance width="500"/>
  <unicode hex="0393"/>
  <outline>
    <contour>
      <point x="130" y="714" type="line"/>
      <point x="620" y="714" type="line"/>
      <point x="575" y="545" type="line"/>
      <point x="278" y="545" type="line"/>
      <point x="136" y="10" type="line"/>
      <point x="-58" y="10" type="line"/>
    </contour>
  </outline>
</glyph>
<glyph name="Delta" format="2">
  <advance width="680"/>
  <unicode hex="0394"/>
  <outline>
    <contour>
      <point x="-56" y="0" type="line"/>
      <point x="617" y="0" type="line"/>
      <point x="621" y="24" type="line"/>
      <point x="557" y="714" type="line"/>
      <point x="325" y="714" type="line"/>
      <point x="-52" y="24" type="line"/>
    </contour>
    <contour>
      <point x="186" y="147" type="line"/>
      <point x="301" y="353" type="line"/>
      <point x="411" y="573" type="line"/>
      <point x="414" y="573" type="line"/>
      <point x="426" y="353" type="line"/>
      <point x="440" y="147" type="line"/>
    </contour>
  </outline>
</glyph>
<glyph name="Eta" format="2">
  <advance width="724"/>
  <unicode hex="0397"/>
  <outline>
    <contour>
      <point x="-62" y="0" type="line"/>
      <point x="131" y="0" type="line"/>
      <point x="190" y="276" type="line"/>
      <point x="400" y="276" type="line"/>
      <point x="342" y="0" type="line"/>
      <point x="535" y="0" type="line"/>
      <point x="685" y="704" type="line"/>
      <point x="491" y="704" type="line"/>
      <point x="436" y="444" type="line"/>
      <point x="226" y="444" type="line"/>
      <point x="281" y="704" type="line"/>
      <point x="88" y="704" type="line"/>
    </contour>
  </outline>
</glyph>
<glyph name="Theta" format="2">
  <advance width="738"/>
  <unicode hex="0398"/>
  <outline>
    <contour>
      <point x="256" y="278" type="line"/>
      <point x="461" y="278" type="line"/>
      <point x="496" y="440" type="line"/>
      <point x="292" y="440" type="line"/>
    </contour>
    <contour>
      <point x="300" y="-6" type="qcurve" smooth="yes"/>
      <point x="386" y="-6"/>
      <point x="541" y="65"/>
      <point x="658" y="183"/>
      <point x="727" y="333"/>
      <point x="727" y="413" type="qcurve" smooth="yes"/>
      <point x="727" y="470"/>
      <point x="692" y="576"/>
      <point x="623" y="659"/>
      <point x="522" y="708"/>
      <point x="456" y="708" type="qcurve" smooth="yes"/>
      <point x="371" y="708"/>
      <point x="215" y="637"/>
      <point x="97" y="520"/>
      <point x="28" y="369"/>
      <point x="28" y="290" type="qcurve" smooth="yes"/>
      <point x="28" y="232"/>
      <point x="64" y="125"/>
      <point x="133" y="43"/>
      <point x="235" y="-6"/>
    </contour>
    <contour>
      <point x="338" y="166" type="qcurve" smooth="yes"/>
      <point x="308" y="166"/>
      <point x="265" y="188"/>
      <point x="239" y="227"/>
      <point x="226" y="277"/>
      <point x="226" y="304" type="qcurve" smooth="yes"/>
      <point x="226" y="343"/>
      <point x="250" y="425"/>
      <point x="298" y="493"/>
      <point x="370" y="536"/>
      <point x="416" y="536" type="qcurve" smooth="yes"/>
      <point x="447" y="536"/>
      <point x="489" y="514"/>
      <point x="517" y="477"/>
      <point x="530" y="427"/>
      <point x="530" y="400" type="qcurve" smooth="yes"/>
      <point x="530" y="361"/>
      <point x="505" y="279"/>
      <point x="457" y="210"/>
      <point x="386" y="166"/>
    </contour>
  </outline>
</glyph>
<glyph name="Pi" format="2">
  <advance width="686"/>
  <unicode hex="03A0"/>
  <outline>
    <contour>
      <point x="8" y="0" type="line"/>
      <point x="182" y="0" type="line"/>
      <point x="311" y="563" type="line"/>
      <point x="514" y="563" type="line"/>
      <point x="385" y="0" type="line"/>
      <point x="559" y="0" type="line"/>
      <point x="720" y="710" type="line"/>
      <point x="169" y="710" type="line"/>
    </contour>
  </outline>
</glyph>
<glyph name="Sigma" format="2">
  <advance width="585"/>
  <unicode hex="03A3"/>
  <outline>
    <contour>
      <point x="-10" y="0" type="line"/>
      <point x="478" y="0" type="line"/>
      <point x="512" y="147" type="line"/>
      <point x="264" y="147" type="line"/>
      <point x="472" y="363" type="line"/>
      <point x="357" y="563" type="line"/>
      <point x="591" y="563" type="line"/>
      <point x="623" y="710" type="line"/>
      <point x="153" y="710" type="line"/>
      <point x="131" y="603" type="line"/>
      <point x="286" y="359" type="line"/>
      <point x="12" y="105" type="line"/>
    </contour>
  </outline>
</glyph>
<glyph name="Upsilon" format="2">
  <advance width="656"/>
  <unicode hex="03A5"/>
  <outline>
    <contour>
      <point x="180" y="0" type="line"/>
      <point x="357" y="0" type="line"/>
      <point x="407" y="218" type="line"/>
      <point x="422" y="287"/>
      <point x="494" y="403"/>
      <point x="585" y="502"/>
      <point x="683" y="586"/>
      <point x="726" y="623" type="qcurve"/>
      <point x="611" y="728" type="line"/>
      <point x="562" y="689"/>
      <point x="487" y="623"/>
      <point x="430" y="561"/>
      <point x="389" y="501"/>
      <point x="375" y="468" type="qcurve"/>
      <point x="367" y="452" type="line"/>
      <point x="367" y="485"/>
      <point x="354" y="547"/>
      <point x="326" y="611"/>
      <point x="281" y="678"/>
      <point x="248" y="716" type="qcurve"/>
      <point x="103" y="635" type="line"/>
      <point x="129" y="597"/>
      <point x="189" y="515"/>
      <point x="233" y="418"/>
      <point x="250" y="303"/>
      <point x="234" y="234" type="qcurve" smooth="yes"/>
    </contour>
  </outline>
</glyph>
<glyph name="Phi" format="2">
  <advance width="785"/>
  <unicode hex="03A6"/>
  <outline>
    <contour>
      <point x="347" y="210" type="line"/>
      <point x="312" y="210"/>
      <point x="259" y="229"/>
      <point x="226" y="263"/>
      <point x="215" y="311"/>
      <point x="222" y="341" type="qcurve" smooth="yes"/>
      <point x="230" y="377"/>
      <point x="269" y="437"/>
      <point x="322" y="480"/>
      <point x="387" y="504"/>
      <point x="422" y="504" type="qcurve"/>
      <point x="446" y="647" type="line"/>
      <point x="373" y="647"/>
      <point x="247" y="608"/>
      <point x="149" y="536"/>
      <point x="81" y="435"/>
      <point x="67" y="373" type="qcurve" smooth="yes"/>
      <point x="52" y="304"/>
      <point x="73" y="192"/>
      <point x="141" y="111"/>
      <point x="250" y="67"/>
      <point x="323" y="67" type="qcurve"/>
    </contour>
    <contour>
      <point x="407" y="-34" type="line"/>
      <point x="583" y="744" type="line"/>
      <point x="420" y="744" type="line"/>
      <point x="244" y="-34" type="line"/>
    </contour>
    <contour>
      <point x="387" y="67" type="line"/>
      <point x="460" y="67"/>
      <point x="584" y="106"/>
      <point x="682" y="178"/>
      <point x="748" y="279"/>
      <point x="762" y="341" type="qcurve" smooth="yes"/>
      <point x="777" y="410"/>
      <point x="757" y="522"/>
      <point x="691" y="603"/>
      <point x="583" y="647"/>
      <point x="510" y="647" type="qcurve"/>
      <point x="486" y="504" type="line"/>
      <point x="521" y="504"/>
      <point x="572" y="486"/>
      <point x="604" y="452"/>
      <point x="614" y="403"/>
      <point x="607" y="373" type="qcurve" smooth="yes"/>
      <point x="599" y="337"/>
      <point x="562" y="278"/>
      <point x="510" y="234"/>
      <point x="446" y="210"/>
      <point x="411" y="210" type="qcurve"/>
    </contour>
  </outline>
</glyph>
<glyph name="Psi" format="2">
  <advance width="837"/>
  <unicode hex="03A8"/>
  <outline>
    <contour>
      <point x="278" y="0" type="line"/>
      <point x="440" y="0" type="line"/>
      <point x="603" y="714" type="line"/>
      <point x="440" y="714" type="line"/>
    </contour>
    <contour>
      <point x="119" y="456" type="line" smooth="yes"/>
      <point x="106" y="401"/>
      <point x="114" y="299"/>
      <point x="167" y="221"/>
      <point x="271" y="174"/>
      <point x="355" y="173" type="qcurve"/>
      <point x="367" y="309" type="line"/>
      <point x="328" y="309"/>
      <point x="285" y="328"/>
      <point x="268" y="359"/>
      <point x="270" y="398"/>
      <point x="274" y="418" type="qcurve"/>
      <point x="279" y="438"/>
      <point x="288" y="477"/>
      <point x="297" y="513"/>
      <point x="305" y="546"/>
      <point x="307" y="559" type="qcurve"/>
      <point x="319" y="604"/>
      <point x="333" y="685"/>
      <point x="327" y="706" type="qcurve"/>
      <point x="167" y="722" type="line"/>
      <point x="167" y="697"/>
      <point x="161" y="646"/>
      <point x="152" y="600"/>
      <point x="143" y="560"/>
      <point x="139" y="545" type="qcurve"/>
    </contour>
    <contour>
      <point x="821" y="530" type="line"/>
      <point x="826" y="548"/>
      <point x="836" y="588"/>
      <point x="849" y="633"/>
      <point x="866" y="681"/>
      <point x="877" y="706" type="qcurve"/>
      <point x="710" y="722" type="line"/>
      <point x="703" y="712"/>
      <point x="691" y="680"/>
      <point x="681" y="644"/>
      <point x="673" y="607"/>
      <point x="670" y="591" type="qcurve" smooth="yes"/>
      <point x="666" y="572"/>
      <point x="658" y="533"/>
      <point x="650" y="496"/>
      <point x="644" y="464"/>
      <point x="641" y="450" type="qcurve" smooth="yes"/>
      <point x="635" y="425"/>
      <point x="613" y="375"/>
      <point x="576" y="334"/>
      <point x="521" y="309"/>
      <point x="482" y="309" type="qcurve"/>
      <point x="450" y="173" type="line"/>
      <point x="534" y="174"/>
      <point x="656" y="217"/>
      <point x="739" y="289"/>
      <point x="788" y="386"/>
      <point x="799" y="440" type="qcurve"/>
    </contour>
  </outline>
</glyph>
<glyph name="uni03A9" format="2">
  <advance width="726"/>
  <unicode hex="03A9"/>
  <outline>
    <contour>
      <point x="-36" y="0" type="line"/>
      <point x="266" y="0" type="line"/>
      <point x="319" y="254" type="line"/>
      <point x="298" y="261"/>
      <point x="268" y="290"/>
      <point x="250" y="330"/>
      <point x="246" y="377"/>
      <point x="252" y="403" type="qcurve" smooth="yes"/>
      <point x="259" y="436"/>
      <point x="294" y="493"/>
      <point x="342" y="535"/>
      <point x="402" y="559"/>
      <point x="434" y="559" type="qcurve" smooth="yes"/>
      <point x="464" y="559"/>
      <point x="510" y="540"/>
      <point x="539" y="506"/>
      <point x="551" y="460"/>
      <point x="545" y="432" type="qcurve"/>
      <point x="541" y="406"/>
      <point x="512" y="345"/>
      <point x="470" y="292"/>
      <point x="421" y="254"/>
      <point x="397" y="250" type="qcurve"/>
      <point x="339" y="0" type="line"/>
      <point x="643" y="0" type="line"/>
      <point x="676" y="147" type="line"/>
      <point x="418" y="147" type="line"/>
      <point x="478" y="97" type="line"/>
      <point x="502" y="216" type="line"/>
      <point x="440" y="137" type="line"/>
      <point x="489" y="145"/>
      <point x="580" y="195"/>
      <point x="654" y="267"/>
      <point x="707" y="359"/>
      <point x="718" y="409" type="qcurve" smooth="yes"/>
      <point x="733" y="472"/>
      <point x="709" y="585"/>
      <point x="639" y="671"/>
      <point x="527" y="722"/>
      <point x="454" y="722" type="qcurve" smooth="yes"/>
      <point x="386" y="722"/>
      <point x="264" y="678"/>
      <point x="166" y="601"/>
      <point x="97" y="497"/>
      <point x="83" y="436" type="qcurve" smooth="yes"/>
      <point x="71" y="387"/>
      <point x="80" y="294"/>
      <point x="116" y="215"/>
      <point x="180" y="155"/>
      <point x="224" y="139" type="qcurve"/>
      <point x="204" y="216" type="line"/>
      <point x="180" y="97" type="line"/>
      <point x="258" y="147" type="line"/>
      <point x="-2" y="147" type="line"/>
    </contour>
  </outline>
</glyph>
<glyph name="epsilontonos" format="2">
  <advance width="522"/>
  <unicode hex="03AD"/>
  <outline>
    <contour>
      <point x="422" y="169" type="line"/>
      <point x="391" y="162"/>
      <point x="300" y="139"/>
      <point x="255" y="139" type="qcurve" smooth="yes"/>
      <point x="214" y="139"/>
      <point x="170" y="152"/>
      <point x="171" y="161" type="qcurve"/>
      <point x="174" y="172"/>
      <point x="195" y="189"/>
      <point x="225" y="202"/>
      <point x="261" y="209"/>
      <point x="279" y="209" type="qcurve" smooth="yes"/>
      <point x="317" y="209" type="line"/>
      <point x="341" y="315" type="line"/>
      <point x="303" y="315" type="line"/>
      <point x="286" y="316"/>
      <point x="257" y="320"/>
      <point x="236" y="325"/>
      <point x="224" y="332"/>
      <point x="225" y="335" type="qcurve"/>
      <point x="227" y="344"/>
      <point x="246" y="360"/>
      <point x="276" y="373"/>
      <point x="317" y="381"/>
      <point x="343" y="381" type="qcurve" smooth="yes"/>
      <point x="360" y="381"/>
      <point x="394" y="378"/>
      <point x="424" y="373"/>
      <point x="451" y="366"/>
      <point x="460" y="361" type="qcurve"/>
      <point x="530" y="502" type="line"/>
      <point x="491" y="522"/>
      <point x="407" y="538"/>
      <point x="367" y="534" type="qcurve"/>
      <point x="309" y="536"/>
      <point x="214" y="518"/>
      <point x="144" y="481"/>
      <point x="99" y="429"/>
      <point x="92" y="396" type="qcurve" smooth="yes"/>
      <point x="87" y="375"/>
      <point x="90" y="334"/>
      <point x="104" y="300"/>
      <point x="128" y="277"/>
      <point x="145" y="273" type="qcurve"/>
      <point x="137" y="275" type="line"/>
      <point x="114" y="269"/>
      <point x="74" y="246"/>
      <point x="43" y="215"/>
      <point x="24" y="181"/>
      <point x="20" y="163" type="qcurve" smooth="yes"/>
      <point x="11" y="125"/>
      <point x="36" y="60"/>
      <point x="96" y="13"/>
      <point x="186" y="-14"/>
      <point x="241" y="-14" type="qcurve" smooth="yes"/>
      <point x="264" y="-14"/>
      <point x="315" y="-10"/>
      <point x="367" y="-4"/>
      <point x="415" y="6"/>
      <point x="436" y="12" type="qcurve"/>
    </contour>
    <contour>
      <point x="407" y="887" type="line"/>
      <point x="324" y="628" type="line"/>
      <point x="413" y="614" type="line"/>
      <point x="531" y="859" type="line"/>
    </contour>
  </outline>
</glyph>
<glyph name="upsilondieresistonos" format="2">
  <advance width="608"/>
  <unicode hex="03B0"/>
  <outline>
    <contour>
      <point x="56" y="209" type="qcurve" smooth="yes"/>
      <point x="44" y="158"/>
      <point x="59" y="78"/>
      <point x="109" y="22"/>
      <point x="191" y="-8"/>
      <point x="245" y="-8" type="qcurve" smooth="yes"/>
      <point x="308" y="-8"/>
      <point x="411" y="29"/>
      <point x="491" y="102"/>
      <point x="547" y="207"/>
      <point x="562" y="275" type="qcurve" smooth="yes"/>
      <point x="570" y="309"/>
      <point x="586" y="379"/>
      <point x="598" y="444"/>
      <point x="606" y="499"/>
      <point x="606" y="518" type="qcurve"/>
      <point x="446" y="534" type="line"/>
      <point x="443" y="498"/>
      <point x="434" y="434"/>
      <point x="423" y="377"/>
      <point x="412" y="329"/>
      <point x="406" y="309" type="qcurve"/>
      <point x="389" y="222"/>
      <point x="316" y="147"/>
      <point x="261" y="147" type="qcurve" smooth="yes"/>
      <point x="245" y="147"/>
      <point x="224" y="152"/>
      <point x="212" y="164"/>
      <point x="209" y="186"/>
      <point x="213" y="203" type="qcurve" smooth="yes"/>
      <point x="216" y="215"/>
      <point x="223" y="239"/>
      <point x="231" y="268"/>
      <point x="240" y="304"/>
      <point x="245" y="327" type="qcurve"/>
      <point x="256" y="371"/>
      <point x="266" y="430"/>
      <point x="269" y="473"/>
      <point x="268" y="503"/>
      <point x="267" y="518" type="qcurve"/>
      <point x="112" y="534" type="line"/>
      <point x="113" y="516"/>
      <point x="114" y="438"/>
      <point x="98" y="365" type="qcurve" smooth="yes"/>
      <point x="92" y="338"/>
      <point x="79" y="290"/>
      <point x="67" y="249"/>
      <point x="58" y="218"/>
    </contour>
    <contour>
      <point x="117" y="673" type="qcurve" smooth="yes"/>
      <point x="107" y="628"/>
      <point x="151" y="566"/>
      <point x="193" y="566" type="qcurve" smooth="yes"/>
      <point x="231" y="566"/>
      <point x="285" y="608"/>
      <point x="293" y="642" type="qcurve" smooth="yes"/>
      <point x="303" y="688"/>
      <point x="261" y="749"/>
      <point x="217" y="749" type="qcurve" smooth="yes"/>
      <point x="181" y="749"/>
      <point x="125" y="708"/>
    </contour>
    <contour>
      <point x="464" y="673" type="qcurve"/>
      <point x="455" y="628"/>
      <point x="500" y="566"/>
      <point x="542" y="566" type="qcurve" smooth="yes"/>
      <point x="578" y="566"/>
      <point x="634" y="608"/>
      <point x="641" y="642" type="qcurve"/>
      <point x="652" y="688"/>
      <point x="608" y="749"/>
      <point x="566" y="749" type="qcurve" smooth="yes"/>
      <point x="530" y="749"/>
      <point x="473" y="708"/>
    </contour>
    <contour>
      <point x="384" y="841" type="line"/>
      <point x="301" y="582" type="line"/>
      <point x="390" y="568" type="line"/>
      <point x="508" y="813" type="line"/>
    </contour>
  </outline>
</glyph>
<glyph name="alpha" format="2">
  <advance width="659"/>
  <unicode hex="03B1"/>
  <outline>
    <contour>
      <point x="375" y="255" type="line" smooth="yes"/>
      <point x="365" y="237"/>
      <point x="340" y="198"/>
      <point x="307" y="165"/>
      <point x="266" y="143"/>
      <point x="241" y="143" type="qcurve" smooth="yes"/>
      <point x="221" y="143"/>
      <point x="191" y="158"/>
      <point x="174" y="185"/>
      <point x="169" y="223"/>
      <point x="173" y="245" type="qcurve"/>
      <point x="181" y="274"/>
      <point x="210" y="324"/>
      <point x="247" y="360"/>
      <point x="290" y="381"/>
      <point x="311" y="381" type="qcurve" smooth="yes"/>
      <point x="322" y="381"/>
      <point x="343" y="375"/>
      <point x="362" y="363"/>
      <point x="376" y="342"/>
      <point x="384" y="312"/>
      <point x="387" y="271"/>
      <point x="385" y="245" type="qcurve"/>
      <point x="466" y="333" type="line"/>
      <point x="468" y="388"/>
      <point x="440" y="465"/>
      <point x="393" y="513"/>
      <point x="333" y="534"/>
      <point x="303" y="534" type="qcurve" smooth="yes"/>
      <point x="259" y="534"/>
      <point x="174" y="494"/>
      <point x="102" y="425"/>
      <point x="47" y="329"/>
      <point x="34" y="273" type="qcurve" smooth="yes"/>
      <point x="21" y="212"/>
      <point x="35" y="110"/>
      <point x="81" y="34"/>
      <point x="158" y="-8"/>
      <point x="209" y="-8" type="qcurve" smooth="yes"/>
      <point x="251" y="-8"/>
      <point x="330" y="20"/>
      <point x="400" y="69"/>
      <point x="460" y="136"/>
      <point x="482" y="175" type="qcurve" smooth="yes"/>
      <point x="679" y="526" type="line"/>
      <point x="530" y="526" type="line"/>
    </contour>
    <contour>
      <point x="606" y="130" type="line"/>
      <point x="582" y="133" type="line"/>
      <point x="574" y="138"/>
      <point x="552" y="149"/>
      <point x="529" y="169"/>
      <point x="507" y="203"/>
      <point x="498" y="231" type="qcurve"/>
      <point x="400" y="135" type="line"/>
      <point x="397" y="101"/>
      <point x="408" y="53"/>
      <point x="431" y="20"/>
      <point x="462" y="0"/>
      <point x="480" y="-6" type="qcurve"/>
      <point x="492" y="-8" type="line"/>
    </contour>
  </outline>
</glyph>
<glyph name="beta" format="2">
  <advance width="697"/>
  <unicode hex="03B2"/>
  <outline>
    <contour>
      <point x="161" y="30" type="line"/>
      <point x="174" y="22"/>
      <point x="213" y="8"/>
      <point x="259" y="-2"/>
      <point x="310" y="-8"/>
      <point x="335" y="-8" type="qcurve" smooth="yes"/>
      <point x="391" y="-8"/>
      <point x="491" y="27"/>
      <point x="570" y="86"/>
      <point x="623" y="163"/>
      <point x="632" y="205" type="qcurve" smooth="yes"/>
      <point x="640" y="240"/>
      <point x="636" y="303"/>
      <point x="610" y="354"/>
      <point x="562" y="390"/>
      <point x="526" y="398" type="qcurve"/>
      <point x="536" y="400" type="line"/>
      <point x="560" y="412"/>
      <point x="600" y="449"/>
      <point x="630" y="494"/>
      <point x="650" y="542"/>
      <point x="654" y="564" type="qcurve"/>
      <point x="663" y="606"/>
      <point x="642" y="679"/>
      <point x="589" y="732"/>
      <point x="509" y="762"/>
      <point x="460" y="761" type="qcurve"/>
      <point x="401" y="762"/>
      <point x="292" y="719"/>
      <point x="202" y="640"/>
      <point x="137" y="530"/>
      <point x="122" y="464" type="qcurve" smooth="yes"/>
      <point x="-30" y="-205" type="line"/>
      <point x="139" y="-213" type="line"/>
      <point x="156" y="-108"/>
      <point x="166" y="3"/>
      <point x="163" y="24" type="qcurve"/>
      <point x="197" y="151" type="line"/>
      <point x="211" y="195"/>
      <point x="229" y="261"/>
      <point x="245" y="325"/>
      <point x="262" y="400"/>
      <point x="275" y="454" type="qcurve" smooth="yes"/>
      <point x="283" y="489"/>
      <point x="315" y="548"/>
      <point x="357" y="591"/>
      <point x="407" y="615"/>
      <point x="432" y="614" type="qcurve"/>
      <point x="449" y="615"/>
      <point x="476" y="606"/>
      <point x="493" y="589"/>
      <point x="499" y="565"/>
      <point x="496" y="550" type="qcurve" smooth="yes"/>
      <point x="491" y="528"/>
      <point x="462" y="490"/>
      <point x="422" y="461"/>
      <point x="376" y="444"/>
      <point x="353" y="442" type="qcurve"/>
      <point x="335" y="327" type="line"/>
      <point x="339" y="328"/>
      <point x="352" y="330"/>
      <point x="367" y="331"/>
      <point x="384" y="332"/>
      <point x="391" y="331" type="qcurve"/>
      <point x="418" y="332"/>
      <point x="461" y="320"/>
      <point x="489" y="299"/>
      <point x="502" y="269"/>
      <point x="498" y="251" type="qcurve" smooth="yes"/>
      <point x="493" y="228"/>
      <point x="461" y="186"/>
      <point x="416" y="155"/>
      <point x="359" y="137"/>
      <point x="329" y="137" type="qcurve" smooth="yes"/>
      <point x="314" y="137"/>
      <point x="276" y="142"/>
      <point x="236" y="152"/>
      <point x="198" y="167"/>
      <point x="183" y="177" type="qcurve"/>
    </contour>
  </outline>
</glyph>
<glyph name="gamma" format="2">
  <advance width="650"/>
  <unicode hex="03B3"/>
  <outline>
    <contour>
      <point x="291" y="-213" type="line"/>
      <point x="318" y="-105"/>
      <point x="358" y="124"/>
      <point x="354" y="330"/>
      <point x="293" y="498"/>
      <point x="219" y="546" type="qcurve"/>
      <point x="102" y="414" type="line"/>
      <point x="136" y="396"/>
      <point x="173" y="320"/>
      <point x="188" y="219"/>
      <point x="184" y="100"/>
      <point x="169" y="-24"/>
      <point x="146" y="-145"/>
      <point x="135" y="-197" type="qcurve"/>
    </contour>
    <contour>
      <point x="325" y="-10" type="line"/>
      <point x="403" y="67"/>
      <point x="510" y="196"/>
      <point x="591" y="318"/>
      <point x="655" y="444"/>
      <point x="689" y="518" type="qcurve"/>
      <point x="516" y="534" type="line"/>
      <point x="499" y="482"/>
      <point x="457" y="381"/>
      <point x="408" y="292"/>
      <point x="353" y="217"/>
      <point x="323" y="189" type="qcurve"/>
    </contour>
  </outline>
</glyph>
<glyph name="delta" format="2">
  <advance width="604"/>
  <unicode hex="03B4"/>
  <outline>
    <contour>
      <point x="251" y="-8" type="qcurve" smooth="yes"/>
      <point x="304" y="-8"/>
      <point x="403" y="26"/>
      <point x="485" y="89"/>
      <point x="545" y="181"/>
      <point x="558" y="239" type="qcurve" smooth="yes"/>
      <point x="571" y="298"/>
      <point x="557" y="385"/>
      <point x="521" y="448"/>
      <point x="470" y="488"/>
      <point x="446" y="500" type="qcurve"/>
      <point x="430" y="514"/>
      <point x="391" y="539"/>
      <point x="359" y="561"/>
      <point x="339" y="581"/>
      <point x="341" y="590" type="qcurve"/>
      <point x="344" y="608"/>
      <point x="380" y="632"/>
      <point x="408" y="632" type="qcurve" smooth="yes"/>
      <point x="430" y="632"/>
      <point x="474" y="621"/>
      <point x="519" y="600"/>
      <point x="563" y="571"/>
      <point x="584" y="552" type="qcurve"/>
      <point x="667" y="661" type="line"/>
      <point x="649" y="678"/>
      <point x="599" y="714"/>
      <point x="536" y="742"/>
      <point x="457" y="760"/>
      <point x="410" y="759" type="qcurve"/>
      <point x="320" y="761"/>
      <point x="204" y="695"/>
      <point x="189" y="634" type="qcurve" smooth="yes"/>
      <point x="180" y="594"/>
      <point x="200" y="534"/>
      <point x="244" y="487"/>
      <point x="303" y="450"/>
      <point x="333" y="432" type="qcurve"/>
      <point x="356" y="413"/>
      <point x="393" y="379"/>
      <point x="418" y="343"/>
      <point x="429" y="304"/>
      <point x="424" y="279" type="qcurve"/>
      <point x="416" y="246"/>
      <point x="381" y="195"/>
      <point x="337" y="161"/>
      <point x="287" y="143"/>
      <point x="263" y="143" type="qcurve" smooth="yes"/>
      <point x="241" y="143"/>
      <point x="203" y="157"/>
      <point x="178" y="183"/>
      <point x="168" y="219"/>
      <point x="173" y="241" type="qcurve" smooth="yes"/>
      <point x="179" y="270"/>
      <point x="212" y="323"/>
      <point x="258" y="362"/>
      <point x="315" y="385"/>
      <point x="345" y="385" type="qcurve" smooth="yes"/>
      <point x="363" y="385"/>
      <point x="409" y="379"/>
      <point x="420" y="365" type="qcurve"/>
      <point x="367" y="482" type="line"/>
      <point x="362" y="485"/>
      <point x="320" y="496"/>
      <point x="293" y="496" type="qcurve" smooth="yes"/>
      <point x="244" y="496"/>
      <point x="158" y="458"/>
      <point x="91" y="396"/>
      <point x="44" y="316"/>
      <point x="34" y="273" type="qcurve" smooth="yes"/>
      <point x="22" y="219"/>
      <point x="40" y="117"/>
      <point x="97" y="39"/>
      <point x="189" y="-8"/>
    </contour>
  </outline>
</glyph>
<glyph name="zeta" format="2">
  <advance width="556"/>
  <unicode hex="03B6"/>
  <outline>
    <contour>
      <point x="235" y="-217" type="qcurve" smooth="yes"/>
      <point x="276" y="-217"/>
      <point x="355" y="-188"/>
      <point x="420" y="-137"/>
      <point x="467" y="-66"/>
      <point x="476" y="-24" type="qcurve"/>
      <point x="485" y="13"/>
      <point x="477" y="75"/>
      <point x="447" y="120"/>
      <point x="398" y="145"/>
      <point x="367" y="145" type="qcurve" smooth="yes"/>
      <point x="360" y="145"/>
      <point x="341" y="143"/>
      <point x="318" y="141"/>
      <point x="291" y="139"/>
      <point x="275" y="139" type="qcurve" smooth="yes"/>
      <point x="262" y="139"/>
      <point x="227" y="140"/>
      <point x="197" y="151"/>
      <point x="180" y="176"/>
      <point x="185" y="199" type="qcurve" smooth="yes"/>
      <point x="192" y="230"/>
      <point x="239" y="306"/>
      <point x="308" y="385"/>
      <point x="390" y="465"/>
      <point x="475" y="534"/>
      <point x="556" y="590"/>
      <point x="588" y="606" type="qcurve"/>
      <point x="606" y="717" type="line"/>
      <point x="428" y="717" type="line" smooth="yes"/>
      <point x="421" y="717"/>
      <point x="399" y="715"/>
      <point x="380" y="718"/>
      <point x="369" y="727"/>
      <point x="371" y="737" type="qcurve" smooth="yes"/>
      <point x="374" y="752"/>
      <point x="390" y="784"/>
      <point x="398" y="795" type="qcurve"/>
      <point x="275" y="857" type="line"/>
      <point x="251" y="825"/>
      <point x="227" y="782"/>
      <point x="221" y="761" type="qcurve"/>
      <point x="213" y="724"/>
      <point x="230" y="665"/>
      <point x="275" y="625"/>
      <point x="344" y="604"/>
      <point x="387" y="604" type="qcurve" smooth="yes"/>
      <point x="442" y="604" type="line"/>
      <point x="404" y="661" type="line"/>
      <point x="339" y="615"/>
      <point x="217" y="507"/>
      <point x="117" y="391"/>
      <point x="47" y="272"/>
      <point x="34" y="215" type="qcurve" smooth="yes"/>
      <point x="20" y="154"/>
      <point x="43" y="69"/>
      <point x="97" y="16"/>
      <point x="172" y="-8"/>
      <point x="211" y="-8" type="qcurve" smooth="yes"/>
      <point x="223" y="-8"/>
      <point x="256" y="-7"/>
      <point x="289" y="-5"/>
      <point x="316" y="-4"/>
      <point x="323" y="-4" type="qcurve" smooth="yes"/>
      <point x="334" y="-4"/>
      <point x="342" y="-9"/>
      <point x="339" y="-14" type="qcurve"/>
      <point x="337" y="-28"/>
      <point x="317" y="-51"/>
      <point x="284" y="-68"/>
      <point x="242" y="-78"/>
      <point x="217" y="-78" type="qcurve" smooth="yes"/>
      <point x="199" y="-78"/>
      <point x="168" y="-74"/>
      <point x="157" y="-74" type="qcurve"/>
      <point x="137" y="-205" type="line"/>
      <point x="170" y="-211"/>
      <point x="217" y="-217"/>
    </contour>
  </outline>
</glyph>
<glyph name="eta" format="2">
  <advance width="649"/>
  <unicode hex="03B7"/>
  <outline>
    <contour>
      <point x="169" y="-8" type="line"/>
      <point x="202" y="88"/>
      <point x="252" y="241"/>
      <point x="267" y="315" type="qcurve"/>
      <point x="278" y="360"/>
      <point x="277" y="431"/>
      <point x="255" y="484"/>
      <point x="212" y="521"/>
      <point x="181" y="532" type="qcurve"/>
      <point x="76" y="398" type="line"/>
      <point x="91" y="391"/>
      <point x="106" y="367"/>
      <point x="109" y="334"/>
      <point x="102" y="291"/>
      <point x="96" y="265" type="qcurve"/>
      <point x="84" y="203"/>
      <point x="38" y="73"/>
      <point x="16" y="8" type="qcurve"/>
    </contour>
    <contour>
      <point x="440" y="-213" type="line"/>
      <point x="462" y="-160"/>
      <point x="507" y="-33"/>
      <point x="547" y="93"/>
      <point x="580" y="209"/>
      <point x="590" y="251" type="qcurve" smooth="yes"/>
      <point x="623" y="399"/>
      <point x="572" y="534"/>
      <point x="482" y="534" type="qcurve" smooth="yes"/>
      <point x="455" y="534"/>
      <point x="399" y="517"/>
      <point x="343" y="481"/>
      <point x="289" y="426"/>
      <point x="263" y="389" type="qcurve"/>
      <point x="249" y="247" type="line"/>
      <point x="259" y="269"/>
      <point x="294" y="312"/>
      <point x="336" y="347"/>
      <point x="380" y="369"/>
      <point x="398" y="369" type="qcurve" smooth="yes"/>
      <point x="433" y="369"/>
      <point x="448" y="313"/>
      <point x="430" y="237" type="qcurve" smooth="yes"/>
      <point x="422" y="201"/>
      <point x="398" y="118"/>
      <point x="362" y="15"/>
      <point x="314" y="-111"/>
      <point x="283" y="-189" type="qcurve"/>
    </contour>
  </outline>
</glyph>
